<svg width="231" height="231" viewBox="0 0 231 231" fill="none" xmlns="http://www.w3.org/2000/svg">
<rect width="231" height="231" rx="115.5" fill="#F0F9FF"/>
<path d="M77.4538 117.264C73.2528 118.518 68.9263 120.972 65.9432 122.881C63.6031 124.378 62.7294 127.295 63.6435 129.919L84.6372 190.17C87.4146 198.14 95.6938 202.795 103.947 201.025L156.203 189.818C164.466 188.046 170.111 180.391 169.362 171.974L164.043 112.232C163.815 109.667 162.083 107.486 159.58 106.878C154.42 105.623 145.347 103.979 138.154 105.666C126.651 108.364 121.682 116.771 110.18 119.474C97.5843 122.433 89.8564 113.561 77.4538 117.264Z" fill="#3BAFDA"/>
<path d="M102.121 66.5529C117.197 63.3198 131.172 61.5103 141.607 61.2253C146.797 61.0835 151.277 61.3133 154.628 62.0034C156.291 62.346 157.869 62.8391 159.155 63.5864C160.431 64.3284 161.805 65.5603 162.219 67.4867C162.278 67.7656 162.31 68.0399 162.325 68.3079L173.384 168.93C174.718 181.071 166.649 192.253 154.707 194.814L107.287 204.984C95.3915 207.535 83.486 200.709 79.6779 189.154L47.9486 92.8823C47.8443 92.6194 47.7558 92.3419 47.6927 92.0473C47.2797 90.1207 48.0278 88.4337 48.8876 87.2336C49.7536 86.0251 50.9905 84.928 52.3667 83.9337C55.14 81.9301 59.1315 79.8837 63.9236 77.8847C73.5578 73.8659 87.0453 69.786 102.121 66.5529ZM156.714 76.175C153.999 77.9937 150.321 79.8426 145.987 81.6505C136.353 85.6693 122.865 89.7492 107.789 92.9823C92.7131 96.2154 78.7388 98.0249 68.3039 98.3099C63.6313 98.4376 59.5352 98.2623 56.3197 97.7229L85.7899 187.141C88.5689 195.572 97.2571 200.553 105.937 198.691L153.357 188.522C162.072 186.653 167.959 178.493 166.985 169.633L156.714 76.175ZM103.471 72.8454C88.6593 76.0218 75.5715 79.999 66.401 83.8244C61.7914 85.7473 58.3231 87.57 56.1361 89.1499C55.3316 89.7311 54.7843 90.2202 54.433 90.6018C54.9099 90.8058 55.6093 91.0273 56.5817 91.2276C59.2242 91.7719 63.1349 92.013 68.1278 91.8767C78.0606 91.6053 91.6281 89.8652 106.44 86.6888C121.251 83.5124 134.339 79.5362 143.51 75.7108C148.12 73.7877 151.588 71.9641 153.775 70.3841C154.579 69.8032 155.125 69.3141 155.476 68.9326C155 68.7288 154.301 68.5065 153.33 68.3064C150.687 67.7621 146.776 67.5221 141.783 67.6585C131.85 67.9298 118.282 69.669 103.471 72.8454Z" fill="#095696"/>
<path d="M120.404 79.8725C120.404 79.8725 123.812 52.6836 133.035 38.555C135.932 34.1178 140.273 29.6341 144.78 25.6247C153.757 17.6371 167.283 22.355 171.16 33.7289L172.454 37.5242C177.257 51.6114 161.608 64.2762 146.942 66.8112C135.56 68.7787 120.404 79.8725 120.404 79.8725Z" fill="url(#paint0_linear_3487_3682)"/>
<path d="M112.823 70.3855C112.823 70.3855 103.621 56.8608 102.178 46.8922C101.725 43.7614 101.901 40.0397 102.337 36.4654C103.207 29.3447 111.128 26.1214 117.353 29.6866L119.43 30.8762C127.14 35.2919 125.127 47.1403 119.558 54.0629C115.235 59.4355 112.823 70.3855 112.823 70.3855Z" fill="url(#paint1_linear_3487_3682)"/>
<path d="M96.1546 136.944C98.9349 136.347 101.732 138.4 102.403 141.527C103.074 144.655 101.364 147.674 98.5837 148.27C95.8034 148.866 93.0059 146.814 92.3352 143.686C91.6645 140.559 93.3745 137.54 96.1546 136.944ZM136.427 128.307C139.208 127.711 142.005 129.763 142.676 132.891C143.347 136.018 141.637 139.037 138.856 139.633C136.076 140.23 133.279 138.178 132.608 135.05C131.937 131.922 133.647 128.903 136.427 128.307Z" fill="#095696"/>
<path d="M108.923 156.584C108.923 156.584 116.599 160.862 122.094 159.684C127.589 158.505 132.835 151.456 132.835 151.456" stroke="#095696" stroke-width="5.14855" stroke-linecap="round"/>
<defs>
<linearGradient id="paint0_linear_3487_3682" x1="120.308" y1="79.0797" x2="179.516" y2="40.4655" gradientUnits="userSpaceOnUse">
<stop stop-color="#095696"/>
<stop offset="0.5" stop-color="#3BAFDA"/>
<stop offset="1" stop-color="#F0F9FF"/>
</linearGradient>
<linearGradient id="paint1_linear_3487_3682" x1="112.467" y1="70.0686" x2="123.754" y2="29.4075" gradientUnits="userSpaceOnUse">
<stop stop-color="#095696"/>
<stop offset="0.5" stop-color="#3BAFDA"/>
<stop offset="1" stop-color="#F0F9FF"/>
</linearGradient>
</defs>
</svg>
