<svg width="303" height="133" viewBox="0 0 303 133" fill="none" xmlns="http://www.w3.org/2000/svg" xmlns:xlink="http://www.w3.org/1999/xlink">
<g clip-path="url(#clip0_3486_905)">
<rect width="316" height="133" fill="#D8F3FE"/>
<rect width="316" height="133" fill="url(#pattern0_3486_905)" fill-opacity="0.15"/>
<path d="M29.5156 73.6043C26.0264 72.7333 21.947 72.6568 19.0439 72.7567C16.7665 72.8351 14.9304 74.5285 14.4788 76.762L4.10728 128.06C2.73519 134.846 6.63244 141.592 13.1969 143.793L54.7609 157.729C61.333 159.933 68.5168 156.89 71.5069 150.637L92.7281 106.252C93.6394 104.346 93.3287 102.082 91.8168 100.607C88.6993 97.5643 82.9836 92.611 77.2021 90.7948C67.9559 87.8902 60.9347 91.746 51.6875 88.8447C41.5614 85.6677 39.8166 76.1758 29.5156 73.6043Z" fill="#3BAFDA"/>
<path d="M68.124 48.128C80.1154 52.1487 90.7344 56.7138 98.2179 60.8749C101.94 62.9446 105.005 64.979 107.081 66.8668C108.112 67.8039 109.019 68.8123 109.614 69.877C110.205 70.9343 110.66 72.378 110.146 73.9105C110.071 74.1326 109.98 74.34 109.877 74.5354L75.6175 150.17C71.4836 159.296 61.1153 163.814 51.6166 160.63L13.8992 147.983C4.43809 144.81 -1.11024 135.017 1.03212 125.271L18.8858 44.0616C18.9072 43.9267 18.9334 43.7905 18.969 43.6538L19.0538 43.367L19.159 43.0871C19.7219 41.7265 20.8702 40.9263 21.9093 40.4692C23.0257 39.9782 24.3577 39.7207 25.7448 39.5943C28.5395 39.3397 32.2122 39.5646 36.4298 40.1571C44.9089 41.3484 56.133 44.1073 68.124 48.128ZM102.631 77.7407C99.9542 77.8892 96.5855 77.6567 92.7706 77.1207C84.2913 75.9294 73.0667 73.1703 61.0754 69.1496C49.0843 65.1289 38.4659 60.5639 30.9825 56.4029C27.6312 54.5395 24.8132 52.7033 22.7693 50.9782L6.18735 126.404C4.62401 133.516 8.67316 140.663 15.5772 142.978L53.2946 155.625C60.226 157.949 67.7917 154.651 70.8085 147.992L102.631 77.7407ZM66.4457 53.1334C54.665 49.1832 43.766 46.518 35.6948 45.3841C31.638 44.8141 28.4282 44.6508 26.2244 44.8515C25.4133 44.9255 24.8222 45.0421 24.4148 45.1646C24.6661 45.5079 25.0673 45.9572 25.6699 46.5052C27.3073 47.9939 29.9666 49.7986 33.5471 51.7894C40.6704 55.7503 50.973 60.194 62.7537 64.1442C74.5345 68.0943 85.4334 70.7595 93.5046 71.8935C97.5618 72.4635 100.772 72.6271 102.976 72.4263C103.786 72.3525 104.376 72.235 104.784 72.1127C104.532 71.7694 104.133 71.3201 103.53 70.7726C101.893 69.2838 99.2333 67.4792 95.6524 65.4881C88.529 61.5272 78.2265 57.0835 66.4457 53.1334Z" fill="#095696"/>
<path d="M75.4585 65.1712C75.4585 65.1712 89.2294 47.4076 101.645 41.2922C105.544 39.3717 110.482 38.0223 115.339 37.0766C125.014 35.1926 132.587 44.1764 130.569 53.8243L129.895 57.0437C127.396 68.9933 111.057 71.3893 99.6472 67.0474C90.792 63.6777 75.4585 65.1712 75.4585 65.1712Z" fill="url(#paint2_linear_3486_905)"/>
<path d="M74.0738 55.3064C74.0738 55.3064 73.2337 41.9148 76.3826 34.2763C77.3715 31.8774 79.0514 29.3243 80.8538 26.9844C84.4446 22.3227 91.382 23.3592 94.2848 28.4776L95.2535 30.1855C98.8488 36.525 92.475 44.0453 85.6502 46.6024C80.3537 48.5869 74.0738 55.3064 74.0738 55.3064Z" fill="url(#paint3_linear_3486_905)"/>
<path d="M34.4863 95.3106C36.6976 96.052 37.8145 98.67 36.9804 101.158C36.1462 103.646 33.6769 105.061 31.4655 104.32C29.2544 103.578 28.1382 100.96 28.9723 98.4726C29.8064 95.985 32.275 94.5694 34.4863 95.3106ZM66.5187 106.051C68.73 106.793 69.8469 109.411 69.0128 111.898C68.1786 114.386 65.7093 115.802 63.4979 115.06C61.2867 114.319 60.1706 111.701 61.0047 109.213C61.8389 106.726 64.3074 105.31 66.5187 106.051Z" fill="#095696"/>
<path d="M35.2876 114.51C35.2876 114.51 38.9162 120.737 43.2868 122.203C47.6574 123.668 54.3068 120.887 54.3068 120.887" stroke="#095696" stroke-width="4.22313" stroke-linecap="round"/>
<path d="M149.098 50.5469H145.987C145.93 50.1444 145.814 49.7869 145.639 49.4744C145.464 49.1572 145.239 48.8873 144.964 48.6648C144.69 48.4422 144.373 48.2718 144.013 48.1534C143.658 48.035 143.272 47.9759 142.855 47.9759C142.102 47.9759 141.446 48.1629 140.888 48.5369C140.329 48.9062 139.896 49.446 139.588 50.1562C139.28 50.8617 139.126 51.7187 139.126 52.7273C139.126 53.7642 139.28 54.6354 139.588 55.3409C139.901 56.0464 140.336 56.5791 140.895 56.9389C141.454 57.2988 142.1 57.4787 142.834 57.4787C143.246 57.4787 143.627 57.4242 143.977 57.3153C144.332 57.2064 144.647 57.0478 144.922 56.8395C145.196 56.6264 145.424 56.3684 145.604 56.0653C145.788 55.7623 145.916 55.4167 145.987 55.0284L149.098 55.0426C149.018 55.7102 148.816 56.3542 148.494 56.9744C148.177 57.59 147.749 58.1416 147.209 58.6293C146.674 59.1122 146.035 59.4957 145.291 59.7798C144.553 60.0592 143.717 60.1989 142.784 60.1989C141.487 60.1989 140.327 59.9053 139.304 59.3182C138.286 58.7311 137.481 57.8812 136.889 56.7685C136.302 55.6558 136.009 54.3087 136.009 52.7273C136.009 51.1411 136.307 49.7917 136.903 48.679C137.5 47.5663 138.31 46.7187 139.332 46.1364C140.355 45.5492 141.506 45.2557 142.784 45.2557C143.627 45.2557 144.408 45.3741 145.128 45.6108C145.852 45.8475 146.494 46.1932 147.053 46.6477C147.611 47.0975 148.066 47.6491 148.416 48.3026C148.771 48.956 148.999 49.7041 149.098 50.5469ZM155.818 60.2131C154.696 60.2131 153.73 59.9858 152.92 59.5312C152.115 59.072 151.495 58.4233 151.06 57.5852C150.624 56.7424 150.406 55.7457 150.406 54.5952C150.406 53.473 150.624 52.4882 151.06 51.6406C151.495 50.7931 152.108 50.1326 152.899 49.6591C153.694 49.1856 154.627 48.9489 155.697 48.9489C156.417 48.9489 157.087 49.0649 157.707 49.2969C158.332 49.5241 158.877 49.8674 159.341 50.3267C159.81 50.786 160.174 51.3636 160.435 52.0597C160.695 52.7509 160.825 53.5606 160.825 54.4886V55.3196H151.613V53.4446H157.977C157.977 53.009 157.882 52.6231 157.693 52.2869C157.504 51.9508 157.241 51.688 156.905 51.4986C156.573 51.3045 156.187 51.2074 155.747 51.2074C155.288 51.2074 154.881 51.3139 154.525 51.527C154.175 51.7353 153.9 52.017 153.702 52.3722C153.503 52.7225 153.401 53.1132 153.396 53.544V55.3267C153.396 55.8665 153.496 56.3329 153.694 56.7259C153.898 57.1188 154.185 57.4219 154.554 57.6349C154.923 57.848 155.361 57.9545 155.868 57.9545C156.204 57.9545 156.512 57.9072 156.791 57.8125C157.07 57.7178 157.31 57.5758 157.508 57.3864C157.707 57.197 157.859 56.965 157.963 56.6903L160.761 56.875C160.619 57.5473 160.328 58.1345 159.888 58.6364C159.452 59.1335 158.889 59.5218 158.197 59.8011C157.511 60.0758 156.718 60.2131 155.818 60.2131ZM167.314 64.3182C166.334 64.3182 165.494 64.1832 164.793 63.9134C164.097 63.6482 163.543 63.286 163.131 62.8267C162.719 62.3674 162.452 61.8513 162.329 61.2784L165.127 60.902C165.212 61.1198 165.347 61.3234 165.532 61.5128C165.716 61.7022 165.96 61.8537 166.263 61.9673C166.571 62.0857 166.945 62.1449 167.385 62.1449C168.044 62.1449 168.586 61.9839 169.012 61.6619C169.443 61.3447 169.658 60.812 169.658 60.0639V58.0682H169.53C169.398 58.3712 169.199 58.6577 168.934 58.9276C168.669 59.1974 168.328 59.4176 167.911 59.5881C167.494 59.7585 166.997 59.8438 166.419 59.8438C165.6 59.8438 164.855 59.6544 164.182 59.2756C163.515 58.892 162.982 58.3073 162.584 57.5213C162.191 56.7306 161.995 55.7315 161.995 54.5241C161.995 53.2884 162.196 52.2562 162.598 51.4276C163.001 50.599 163.536 49.9787 164.204 49.5668C164.876 49.1548 165.612 48.9489 166.412 48.9489C167.023 48.9489 167.535 49.053 167.946 49.2614C168.358 49.465 168.69 49.7206 168.941 50.0284C169.196 50.3314 169.393 50.6297 169.53 50.9233H169.644V49.0909H172.648V60.1065C172.648 61.0346 172.421 61.8111 171.966 62.4361C171.512 63.0611 170.882 63.5298 170.077 63.8423C169.277 64.1596 168.356 64.3182 167.314 64.3182ZM167.378 57.571C167.866 57.571 168.278 57.4503 168.614 57.2088C168.955 56.9626 169.215 56.6122 169.395 56.1577C169.58 55.6984 169.672 55.1491 169.672 54.5099C169.672 53.8707 169.582 53.3168 169.402 52.848C169.222 52.3745 168.962 52.0076 168.621 51.7472C168.28 51.4867 167.866 51.3565 167.378 51.3565C166.881 51.3565 166.462 51.4915 166.121 51.7614C165.78 52.0265 165.522 52.3958 165.347 52.8693C165.172 53.3428 165.084 53.8897 165.084 54.5099C165.084 55.1397 165.172 55.6842 165.347 56.1435C165.527 56.598 165.785 56.9508 166.121 57.2017C166.462 57.4479 166.881 57.571 167.378 57.571ZM177.767 60.206C177.071 60.206 176.45 60.0852 175.906 59.8438C175.361 59.5975 174.93 59.2353 174.613 58.7571C174.301 58.2741 174.144 57.6728 174.144 56.9531C174.144 56.3471 174.256 55.8381 174.478 55.4261C174.701 55.0142 175.004 54.6828 175.387 54.4318C175.771 54.1809 176.206 53.9915 176.694 53.8636C177.187 53.7358 177.703 53.6458 178.242 53.5938C178.877 53.5275 179.388 53.4659 179.777 53.4091C180.165 53.3475 180.447 53.2576 180.622 53.1392C180.797 53.0208 180.885 52.8456 180.885 52.6136V52.571C180.885 52.1212 180.742 51.7732 180.458 51.527C180.179 51.2808 179.781 51.1577 179.265 51.1577C178.721 51.1577 178.287 51.2784 177.965 51.5199C177.644 51.7566 177.43 52.0549 177.326 52.4148L174.528 52.1875C174.67 51.5246 174.949 50.9517 175.366 50.4688C175.783 49.9811 176.32 49.607 176.978 49.3466C177.641 49.0814 178.408 48.9489 179.279 48.9489C179.885 48.9489 180.465 49.0199 181.019 49.1619C181.578 49.304 182.073 49.5241 182.504 49.8224C182.939 50.1207 183.283 50.5043 183.534 50.973C183.785 51.437 183.91 51.9934 183.91 52.642V60H181.041V58.4872H180.956C180.78 58.8281 180.546 59.1288 180.252 59.3892C179.959 59.6449 179.606 59.8461 179.194 59.9929C178.782 60.1349 178.306 60.206 177.767 60.206ZM178.633 58.1179C179.078 58.1179 179.471 58.0303 179.812 57.8551C180.153 57.6752 180.421 57.4337 180.615 57.1307C180.809 56.8277 180.906 56.4844 180.906 56.1009V54.9432C180.811 55.0047 180.681 55.0616 180.515 55.1136C180.354 55.161 180.172 55.206 179.968 55.2486C179.765 55.2865 179.561 55.322 179.358 55.3551C179.154 55.3835 178.969 55.4096 178.804 55.4332C178.448 55.4853 178.138 55.5682 177.873 55.6818C177.608 55.7955 177.402 55.9493 177.255 56.1435C177.108 56.3329 177.035 56.5696 177.035 56.8537C177.035 57.2656 177.184 57.5805 177.483 57.7983C177.786 58.0114 178.169 58.1179 178.633 58.1179ZM188.883 53.6932V60H185.857V45.4545H188.798V51.0156H188.926C189.172 50.3717 189.57 49.8674 190.119 49.5028C190.668 49.1335 191.357 48.9489 192.186 48.9489C192.943 48.9489 193.604 49.1146 194.167 49.446C194.735 49.7727 195.176 50.2438 195.488 50.8594C195.805 51.4702 195.962 52.2017 195.957 53.054V60H192.931V53.5938C192.936 52.9214 192.766 52.3982 192.42 52.0241C192.079 51.6501 191.601 51.4631 190.985 51.4631C190.573 51.4631 190.209 51.5507 189.891 51.7259C189.579 51.901 189.333 52.1567 189.153 52.4929C188.978 52.8243 188.888 53.2244 188.883 53.6932ZM207.38 60H202.224V45.4545H207.422C208.886 45.4545 210.145 45.7457 211.201 46.3281C212.257 46.9058 213.069 47.7367 213.637 48.821C214.21 49.9053 214.496 51.2027 214.496 52.7131C214.496 54.2282 214.21 55.5303 213.637 56.6193C213.069 57.7083 212.252 58.544 211.187 59.1264C210.126 59.7088 208.857 60 207.38 60ZM205.299 57.3651H207.252C208.161 57.3651 208.926 57.2041 209.546 56.8821C210.171 56.5554 210.64 56.0511 210.952 55.3693C211.27 54.6828 211.428 53.7973 211.428 52.7131C211.428 51.6383 211.27 50.7599 210.952 50.0781C210.64 49.3963 210.173 48.8944 209.553 48.5724C208.933 48.2505 208.168 48.0895 207.259 48.0895H205.299V57.3651ZM221.289 60.2131C220.167 60.2131 219.201 59.9858 218.391 59.5312C217.586 59.072 216.966 58.4233 216.531 57.5852C216.095 56.7424 215.877 55.7457 215.877 54.5952C215.877 53.473 216.095 52.4882 216.531 51.6406C216.966 50.7931 217.579 50.1326 218.37 49.6591C219.166 49.1856 220.098 48.9489 221.168 48.9489C221.888 48.9489 222.558 49.0649 223.178 49.2969C223.803 49.5241 224.348 49.8674 224.812 50.3267C225.281 50.786 225.645 51.3636 225.906 52.0597C226.166 52.7509 226.296 53.5606 226.296 54.4886V55.3196H217.085V53.4446H223.448C223.448 53.009 223.354 52.6231 223.164 52.2869C222.975 51.9508 222.712 51.688 222.376 51.4986C222.044 51.3045 221.658 51.2074 221.218 51.2074C220.759 51.2074 220.352 51.3139 219.997 51.527C219.646 51.7353 219.372 52.017 219.173 52.3722C218.974 52.7225 218.872 53.1132 218.867 53.544V55.3267C218.867 55.8665 218.967 56.3329 219.166 56.7259C219.369 57.1188 219.656 57.4219 220.025 57.6349C220.394 57.848 220.832 57.9545 221.339 57.9545C221.675 57.9545 221.983 57.9072 222.262 57.8125C222.541 57.7178 222.781 57.5758 222.979 57.3864C223.178 57.197 223.33 56.965 223.434 56.6903L226.232 56.875C226.09 57.5473 225.799 58.1345 225.359 58.6364C224.923 59.1335 224.36 59.5218 223.668 59.8011C222.982 60.0758 222.189 60.2131 221.289 60.2131ZM230.896 53.6932V60H227.871V45.4545H230.811V51.0156H230.939C231.185 50.3717 231.583 49.8674 232.132 49.5028C232.681 49.1335 233.37 48.9489 234.199 48.9489C234.956 48.9489 235.617 49.1146 236.18 49.446C236.749 49.7727 237.189 50.2438 237.501 50.8594C237.819 51.4702 237.975 52.2017 237.97 53.054V60H234.945V53.5938C234.949 52.9214 234.779 52.3982 234.433 52.0241C234.092 51.6501 233.614 51.4631 232.999 51.4631C232.587 51.4631 232.222 51.5507 231.905 51.7259C231.592 51.901 231.346 52.1567 231.166 52.4929C230.991 52.8243 230.901 53.2244 230.896 53.6932ZM239.951 60V49.0909H242.977V60H239.951ZM241.471 47.6847C241.021 47.6847 240.635 47.5355 240.313 47.2372C239.996 46.9342 239.838 46.572 239.838 46.1506C239.838 45.7339 239.996 45.3764 240.313 45.0781C240.635 44.7751 241.021 44.6236 241.471 44.6236C241.921 44.6236 242.304 44.7751 242.622 45.0781C242.944 45.3764 243.105 45.7339 243.105 46.1506C243.105 46.572 242.944 46.9342 242.622 47.2372C242.304 47.5355 241.921 47.6847 241.471 47.6847ZM249.02 60.1776C248.192 60.1776 247.441 59.9645 246.769 59.5384C246.101 59.1075 245.571 58.4754 245.178 57.642C244.79 56.804 244.596 55.7765 244.596 54.5597C244.596 53.3097 244.797 52.2704 245.199 51.4418C245.602 50.6084 246.137 49.9858 246.804 49.5739C247.477 49.1572 248.213 48.9489 249.013 48.9489C249.624 48.9489 250.133 49.053 250.54 49.2614C250.952 49.465 251.283 49.7206 251.534 50.0284C251.79 50.3314 251.984 50.6297 252.117 50.9233H252.209V45.4545H255.228V60H252.245V58.2528H252.117C251.975 58.5559 251.774 58.8565 251.513 59.1548C251.257 59.4484 250.924 59.6922 250.512 59.8864C250.105 60.0805 249.607 60.1776 249.02 60.1776ZM249.979 57.7699C250.467 57.7699 250.879 57.6373 251.215 57.3722C251.556 57.1023 251.816 56.7259 251.996 56.2429C252.181 55.7599 252.273 55.1941 252.273 54.5455C252.273 53.8968 252.183 53.3333 252.003 52.8551C251.823 52.3769 251.563 52.0076 251.222 51.7472C250.881 51.4867 250.467 51.3565 249.979 51.3565C249.482 51.3565 249.063 51.4915 248.722 51.7614C248.381 52.0312 248.123 52.4053 247.948 52.8835C247.773 53.3617 247.685 53.9157 247.685 54.5455C247.685 55.1799 247.773 55.741 247.948 56.2287C248.128 56.7116 248.386 57.0904 248.722 57.3651C249.063 57.6349 249.482 57.7699 249.979 57.7699ZM257.315 60V49.0909H260.248V50.9943H260.362C260.561 50.3172 260.895 49.8059 261.363 49.4602C261.832 49.1098 262.372 48.9347 262.983 48.9347C263.134 48.9347 263.298 48.9441 263.473 48.9631C263.648 48.982 263.802 49.008 263.935 49.0412V51.7259C263.792 51.6832 263.596 51.6454 263.345 51.6122C263.094 51.5791 262.864 51.5625 262.656 51.5625C262.211 51.5625 261.813 51.6596 261.463 51.8537C261.117 52.0431 260.843 52.3082 260.639 52.6491C260.44 52.9901 260.341 53.383 260.341 53.8281V60H257.315ZM267.897 60.206C267.201 60.206 266.581 60.0852 266.036 59.8438C265.492 59.5975 265.061 59.2353 264.744 58.7571C264.431 58.2741 264.275 57.6728 264.275 56.9531C264.275 56.3471 264.386 55.8381 264.609 55.4261C264.831 55.0142 265.134 54.6828 265.518 54.4318C265.901 54.1809 266.337 53.9915 266.825 53.8636C267.317 53.7358 267.833 53.6458 268.373 53.5938C269.007 53.5275 269.519 53.4659 269.907 53.4091C270.295 53.3475 270.577 53.2576 270.752 53.1392C270.927 53.0208 271.015 52.8456 271.015 52.6136V52.571C271.015 52.1212 270.873 51.7732 270.589 51.527C270.309 51.2808 269.912 51.1577 269.396 51.1577C268.851 51.1577 268.418 51.2784 268.096 51.5199C267.774 51.7566 267.561 52.0549 267.457 52.4148L264.658 52.1875C264.8 51.5246 265.08 50.9517 265.497 50.4688C265.913 49.9811 266.451 49.607 267.109 49.3466C267.772 49.0814 268.539 48.9489 269.41 48.9489C270.016 48.9489 270.596 49.0199 271.15 49.1619C271.709 49.304 272.203 49.5241 272.634 49.8224C273.07 50.1207 273.413 50.5043 273.664 50.973C273.915 51.437 274.041 51.9934 274.041 52.642V60H271.171V58.4872H271.086C270.911 58.8281 270.676 59.1288 270.383 59.3892C270.089 59.6449 269.737 59.8461 269.325 59.9929C268.913 60.1349 268.437 60.206 267.897 60.206ZM268.764 58.1179C269.209 58.1179 269.602 58.0303 269.943 57.8551C270.283 57.6752 270.551 57.4337 270.745 57.1307C270.939 56.8277 271.036 56.4844 271.036 56.1009V54.9432C270.942 55.0047 270.811 55.0616 270.646 55.1136C270.485 55.161 270.302 55.206 270.099 55.2486C269.895 55.2865 269.692 55.322 269.488 55.3551C269.284 55.3835 269.1 55.4096 268.934 55.4332C268.579 55.4853 268.269 55.5682 268.004 55.6818C267.738 55.7955 267.533 55.9493 267.386 56.1435C267.239 56.3329 267.166 56.5696 267.166 56.8537C267.166 57.2656 267.315 57.5805 267.613 57.7983C267.916 58.0114 268.3 58.1179 268.764 58.1179ZM285.065 52.2017L282.295 52.3722C282.247 52.1354 282.146 51.9223 281.989 51.733C281.833 51.5388 281.627 51.3849 281.371 51.2713C281.12 51.1529 280.82 51.0938 280.469 51.0938C280.001 51.0938 279.605 51.1932 279.283 51.392C278.961 51.5862 278.8 51.8466 278.8 52.1733C278.8 52.4337 278.905 52.6539 279.113 52.8338C279.321 53.0137 279.679 53.1581 280.185 53.267L282.16 53.6648C283.22 53.8826 284.011 54.233 284.532 54.7159C285.053 55.1989 285.313 55.8333 285.313 56.6193C285.313 57.3343 285.102 57.9616 284.681 58.5014C284.264 59.0412 283.691 59.4626 282.962 59.7656C282.238 60.0639 281.402 60.2131 280.455 60.2131C279.011 60.2131 277.86 59.9124 277.003 59.3111C276.151 58.705 275.652 57.8812 275.505 56.8395L278.481 56.6832C278.571 57.1236 278.789 57.4598 279.134 57.6918C279.48 57.919 279.923 58.0327 280.462 58.0327C280.993 58.0327 281.419 57.9309 281.741 57.7273C282.067 57.5189 282.233 57.2514 282.238 56.9247C282.233 56.6501 282.117 56.4252 281.89 56.25C281.663 56.0701 281.312 55.9328 280.839 55.8381L278.95 55.4616C277.884 55.2486 277.091 54.8793 276.57 54.3537C276.054 53.8281 275.796 53.1581 275.796 52.3438C275.796 51.643 275.985 51.0393 276.364 50.5327C276.748 50.026 277.285 49.6354 277.976 49.3608C278.673 49.0862 279.487 48.9489 280.42 48.9489C281.798 48.9489 282.882 49.2401 283.673 49.8224C284.468 50.4048 284.932 51.1979 285.065 52.2017ZM286.818 60V49.0909H289.844V60H286.818ZM288.338 47.6847C287.888 47.6847 287.503 47.5355 287.181 47.2372C286.863 46.9342 286.705 46.572 286.705 46.1506C286.705 45.7339 286.863 45.3764 287.181 45.0781C287.503 44.7751 287.888 44.6236 288.338 44.6236C288.788 44.6236 289.172 44.7751 289.489 45.0781C289.811 45.3764 289.972 45.7339 289.972 46.1506C289.972 46.572 289.811 46.9342 289.489 47.2372C289.172 47.5355 288.788 47.6847 288.338 47.6847ZM140.227 84.1776C139.399 84.1776 138.648 83.9645 137.976 83.5384C137.308 83.1075 136.778 82.4754 136.385 81.642C135.997 80.804 135.803 79.7765 135.803 78.5597C135.803 77.3097 136.004 76.2704 136.406 75.4418C136.809 74.6084 137.344 73.9858 138.011 73.5739C138.684 73.1572 139.42 72.9489 140.22 72.9489C140.831 72.9489 141.34 73.053 141.747 73.2614C142.159 73.465 142.491 73.7206 142.741 74.0284C142.997 74.3314 143.191 74.6297 143.324 74.9233H143.416V69.4545H146.435V84H143.452V82.2528H143.324C143.182 82.5559 142.981 82.8565 142.72 83.1548C142.464 83.4484 142.131 83.6922 141.719 83.8864C141.312 84.0805 140.814 84.1776 140.227 84.1776ZM141.186 81.7699C141.674 81.7699 142.086 81.6373 142.422 81.3722C142.763 81.1023 143.023 80.7259 143.203 80.2429C143.388 79.7599 143.48 79.1941 143.48 78.5455C143.48 77.8968 143.39 77.3333 143.21 76.8551C143.03 76.3769 142.77 76.0076 142.429 75.7472C142.088 75.4867 141.674 75.3565 141.186 75.3565C140.689 75.3565 140.27 75.4915 139.929 75.7614C139.588 76.0312 139.33 76.4053 139.155 76.8835C138.98 77.3617 138.892 77.9157 138.892 78.5455C138.892 79.1799 138.98 79.741 139.155 80.2287C139.335 80.7116 139.593 81.0904 139.929 81.3651C140.27 81.6349 140.689 81.7699 141.186 81.7699ZM151.633 84.206C150.937 84.206 150.317 84.0852 149.772 83.8438C149.228 83.5975 148.797 83.2353 148.48 82.7571C148.167 82.2741 148.011 81.6728 148.011 80.9531C148.011 80.3471 148.122 79.8381 148.345 79.4261C148.567 79.0142 148.87 78.6828 149.254 78.4318C149.637 78.1809 150.073 77.9915 150.561 77.8636C151.053 77.7358 151.569 77.6458 152.109 77.5938C152.743 77.5275 153.255 77.4659 153.643 77.4091C154.031 77.3475 154.313 77.2576 154.488 77.1392C154.663 77.0208 154.751 76.8456 154.751 76.6136V76.571C154.751 76.1212 154.609 75.7732 154.325 75.527C154.045 75.2808 153.648 75.1577 153.132 75.1577C152.587 75.1577 152.154 75.2784 151.832 75.5199C151.51 75.7566 151.297 76.0549 151.193 76.4148L148.394 76.1875C148.536 75.5246 148.816 74.9517 149.232 74.4688C149.649 73.9811 150.187 73.607 150.845 73.3466C151.508 73.0814 152.275 72.9489 153.146 72.9489C153.752 72.9489 154.332 73.0199 154.886 73.1619C155.445 73.304 155.939 73.5241 156.37 73.8224C156.806 74.1207 157.149 74.5043 157.4 74.973C157.651 75.437 157.776 75.9934 157.776 76.642V84H154.907V82.4872H154.822C154.647 82.8281 154.412 83.1288 154.119 83.3892C153.825 83.6449 153.473 83.8461 153.061 83.9929C152.649 84.1349 152.173 84.206 151.633 84.206ZM152.5 82.1179C152.945 82.1179 153.338 82.0303 153.678 81.8551C154.019 81.6752 154.287 81.4337 154.481 81.1307C154.675 80.8277 154.772 80.4844 154.772 80.1009V78.9432C154.678 79.0047 154.547 79.0616 154.382 79.1136C154.221 79.161 154.038 79.206 153.835 79.2486C153.631 79.2865 153.428 79.322 153.224 79.3551C153.02 79.3835 152.836 79.4096 152.67 79.4332C152.315 79.4853 152.005 79.5682 151.74 79.6818C151.474 79.7955 151.268 79.9493 151.122 80.1435C150.975 80.3329 150.901 80.5696 150.901 80.8537C150.901 81.2656 151.051 81.5805 151.349 81.7983C151.652 82.0114 152.035 82.1179 152.5 82.1179ZM159.724 84V73.0909H162.657V74.9943H162.771C162.97 74.3172 163.303 73.8059 163.772 73.4602C164.241 73.1098 164.781 72.9347 165.391 72.9347C165.543 72.9347 165.706 72.9441 165.881 72.9631C166.057 72.982 166.211 73.008 166.343 73.0412V75.7259C166.201 75.6832 166.005 75.6454 165.754 75.6122C165.503 75.5791 165.273 75.5625 165.065 75.5625C164.62 75.5625 164.222 75.6596 163.872 75.8537C163.526 76.0431 163.251 76.3082 163.048 76.6491C162.849 76.9901 162.749 77.383 162.749 77.8281V84H159.724ZM167.507 84V73.0909H170.533V84H167.507ZM169.027 71.6847C168.577 71.6847 168.192 71.5355 167.87 71.2372C167.552 70.9342 167.394 70.572 167.394 70.1506C167.394 69.7339 167.552 69.3764 167.87 69.0781C168.192 68.7751 168.577 68.6236 169.027 68.6236C169.477 68.6236 169.861 68.7751 170.178 69.0781C170.5 69.3764 170.661 69.7339 170.661 70.1506C170.661 70.572 170.5 70.9342 170.178 71.2372C169.861 71.5355 169.477 71.6847 169.027 71.6847ZM184.733 73.6378C184.676 73.0649 184.432 72.6198 184.001 72.3026C183.571 71.9853 182.986 71.8267 182.247 71.8267C181.745 71.8267 181.321 71.8977 180.976 72.0398C180.63 72.1771 180.365 72.3688 180.18 72.6151C180 72.8613 179.911 73.1406 179.911 73.4531C179.901 73.7135 179.955 73.9408 180.074 74.1349C180.197 74.3291 180.365 74.4972 180.578 74.6392C180.791 74.7765 181.037 74.8973 181.317 75.0014C181.596 75.1009 181.894 75.1861 182.212 75.2571L183.518 75.5696C184.153 75.7116 184.735 75.901 185.266 76.1378C185.796 76.3745 186.255 76.6657 186.643 77.0114C187.032 77.357 187.332 77.7642 187.545 78.233C187.763 78.7017 187.875 79.2391 187.879 79.8452C187.875 80.7353 187.647 81.5071 187.197 82.1605C186.752 82.8092 186.108 83.3134 185.266 83.6733C184.428 84.0284 183.417 84.206 182.233 84.206C181.059 84.206 180.036 84.026 179.165 83.6662C178.298 83.3063 177.621 82.7737 177.134 82.0682C176.651 81.358 176.397 80.4796 176.374 79.4332H179.349C179.383 79.9209 179.522 80.3281 179.768 80.6548C180.019 80.9768 180.353 81.2206 180.77 81.3864C181.191 81.5473 181.667 81.6278 182.197 81.6278C182.718 81.6278 183.17 81.5521 183.554 81.4006C183.942 81.2491 184.243 81.0384 184.456 80.7685C184.669 80.4986 184.776 80.1884 184.776 79.8381C184.776 79.5114 184.679 79.2367 184.484 79.0142C184.295 78.7917 184.016 78.6023 183.646 78.446C183.282 78.2898 182.834 78.1477 182.304 78.0199L180.72 77.6222C179.494 77.3239 178.526 76.8575 177.815 76.223C177.105 75.5885 176.752 74.7339 176.757 73.6591C176.752 72.7784 176.987 72.009 177.46 71.3509C177.938 70.6927 178.594 70.179 179.428 69.8097C180.261 69.4403 181.208 69.2557 182.268 69.2557C183.348 69.2557 184.29 69.4403 185.095 69.8097C185.905 70.179 186.535 70.6927 186.984 71.3509C187.434 72.009 187.666 72.7713 187.68 73.6378H184.733ZM194.463 84.2131C193.34 84.2131 192.375 83.9858 191.565 83.5312C190.76 83.072 190.14 82.4233 189.704 81.5852C189.268 80.7424 189.051 79.7457 189.051 78.5952C189.051 77.473 189.268 76.4882 189.704 75.6406C190.14 74.7931 190.753 74.1326 191.544 73.6591C192.339 73.1856 193.272 72.9489 194.342 72.9489C195.062 72.9489 195.732 73.0649 196.352 73.2969C196.977 73.5241 197.521 73.8674 197.985 74.3267C198.454 74.786 198.819 75.3636 199.079 76.0597C199.339 76.7509 199.47 77.5606 199.47 78.4886V79.3196H190.258V77.4446H196.622C196.622 77.009 196.527 76.6231 196.338 76.2869C196.148 75.9508 195.885 75.688 195.549 75.4986C195.218 75.3045 194.832 75.2074 194.392 75.2074C193.932 75.2074 193.525 75.3139 193.17 75.527C192.82 75.7353 192.545 76.017 192.346 76.3722C192.147 76.7225 192.045 77.1132 192.041 77.544V79.3267C192.041 79.8665 192.14 80.3329 192.339 80.7259C192.543 81.1188 192.829 81.4219 193.198 81.6349C193.568 81.848 194.006 81.9545 194.512 81.9545C194.848 81.9545 195.156 81.9072 195.436 81.8125C195.715 81.7178 195.954 81.5758 196.153 81.3864C196.352 81.197 196.503 80.965 196.607 80.6903L199.406 80.875C199.264 81.5473 198.973 82.1345 198.532 82.6364C198.097 83.1335 197.533 83.5218 196.842 83.8011C196.155 84.0758 195.362 84.2131 194.463 84.2131ZM203.786 80.8608L203.793 77.2315H204.233L207.727 73.0909H211.2L206.506 78.5739H205.788L203.786 80.8608ZM201.044 84V69.4545H204.07V84H201.044ZM207.862 84L204.652 79.2486L206.669 77.1108L211.406 84H207.862ZM215.396 84.206C214.7 84.206 214.079 84.0852 213.535 83.8438C212.99 83.5975 212.559 83.2353 212.242 82.7571C211.93 82.2741 211.773 81.6728 211.773 80.9531C211.773 80.3471 211.885 79.8381 212.107 79.4261C212.33 79.0142 212.633 78.6828 213.016 78.4318C213.4 78.1809 213.835 77.9915 214.323 77.8636C214.816 77.7358 215.332 77.6458 215.871 77.5938C216.506 77.5275 217.017 77.4659 217.405 77.4091C217.794 77.3475 218.075 77.2576 218.251 77.1392C218.426 77.0208 218.513 76.8456 218.513 76.6136V76.571C218.513 76.1212 218.371 75.7732 218.087 75.527C217.808 75.2808 217.41 75.1577 216.894 75.1577C216.35 75.1577 215.916 75.2784 215.594 75.5199C215.272 75.7566 215.059 76.0549 214.955 76.4148L212.157 76.1875C212.299 75.5246 212.578 74.9517 212.995 74.4688C213.412 73.9811 213.949 73.607 214.607 73.3466C215.27 73.0814 216.037 72.9489 216.908 72.9489C217.514 72.9489 218.094 73.0199 218.648 73.1619C219.207 73.304 219.702 73.5241 220.133 73.8224C220.568 74.1207 220.912 74.5043 221.163 74.973C221.414 75.437 221.539 75.9934 221.539 76.642V84H218.67V82.4872H218.584C218.409 82.8281 218.175 83.1288 217.881 83.3892C217.588 83.6449 217.235 83.8461 216.823 83.9929C216.411 84.1349 215.935 84.206 215.396 84.206ZM216.262 82.1179C216.707 82.1179 217.1 82.0303 217.441 81.8551C217.782 81.6752 218.049 81.4337 218.244 81.1307C218.438 80.8277 218.535 80.4844 218.535 80.1009V78.9432C218.44 79.0047 218.31 79.0616 218.144 79.1136C217.983 79.161 217.801 79.206 217.597 79.2486C217.394 79.2865 217.19 79.322 216.986 79.3551C216.783 79.3835 216.598 79.4096 216.432 79.4332C216.077 79.4853 215.767 79.5682 215.502 79.6818C215.237 79.7955 215.031 79.9493 214.884 80.1435C214.737 80.3329 214.664 80.5696 214.664 80.8537C214.664 81.2656 214.813 81.5805 215.111 81.7983C215.414 82.0114 215.798 82.1179 216.262 82.1179ZM223.486 84V73.0909H226.42V74.9943H226.533C226.732 74.3172 227.066 73.8059 227.535 73.4602C228.003 73.1098 228.543 72.9347 229.154 72.9347C229.305 72.9347 229.469 72.9441 229.644 72.9631C229.819 72.982 229.973 73.008 230.106 73.0412V75.7259C229.964 75.6832 229.767 75.6454 229.516 75.6122C229.265 75.5791 229.036 75.5625 228.827 75.5625C228.382 75.5625 227.984 75.6596 227.634 75.8537C227.288 76.0431 227.014 76.3082 226.81 76.6491C226.611 76.9901 226.512 77.383 226.512 77.8281V84H223.486ZM234.068 84.206C233.372 84.206 232.752 84.0852 232.207 83.8438C231.663 83.5975 231.232 83.2353 230.915 82.7571C230.602 82.2741 230.446 81.6728 230.446 80.9531C230.446 80.3471 230.557 79.8381 230.78 79.4261C231.002 79.0142 231.305 78.6828 231.689 78.4318C232.072 78.1809 232.508 77.9915 232.996 77.8636C233.488 77.7358 234.004 77.6458 234.544 77.5938C235.179 77.5275 235.69 77.4659 236.078 77.4091C236.466 77.3475 236.748 77.2576 236.923 77.1392C237.098 77.0208 237.186 76.8456 237.186 76.6136V76.571C237.186 76.1212 237.044 75.7732 236.76 75.527C236.481 75.2808 236.083 75.1577 235.567 75.1577C235.022 75.1577 234.589 75.2784 234.267 75.5199C233.945 75.7566 233.732 76.0549 233.628 76.4148L230.83 76.1875C230.972 75.5246 231.251 74.9517 231.668 74.4688C232.084 73.9811 232.622 73.607 233.28 73.3466C233.943 73.0814 234.71 72.9489 235.581 72.9489C236.187 72.9489 236.767 73.0199 237.321 73.1619C237.88 73.304 238.375 73.5241 238.805 73.8224C239.241 74.1207 239.584 74.5043 239.835 74.973C240.086 75.437 240.212 75.9934 240.212 76.642V84H237.342V82.4872H237.257C237.082 82.8281 236.848 83.1288 236.554 83.3892C236.26 83.6449 235.908 83.8461 235.496 83.9929C235.084 84.1349 234.608 84.206 234.068 84.206ZM234.935 82.1179C235.38 82.1179 235.773 82.0303 236.114 81.8551C236.455 81.6752 236.722 81.4337 236.916 81.1307C237.11 80.8277 237.207 80.4844 237.207 80.1009V78.9432C237.113 79.0047 236.982 79.0616 236.817 79.1136C236.656 79.161 236.473 79.206 236.27 79.2486C236.066 79.2865 235.863 79.322 235.659 79.3551C235.455 79.3835 235.271 79.4096 235.105 79.4332C234.75 79.4853 234.44 79.5682 234.175 79.6818C233.91 79.7955 233.704 79.9493 233.557 80.1435C233.41 80.3329 233.337 80.5696 233.337 80.8537C233.337 81.2656 233.486 81.5805 233.784 81.7983C234.087 82.0114 234.471 82.1179 234.935 82.1179ZM245.185 77.6932V84H242.159V73.0909H245.042V75.0156H245.17C245.412 74.3812 245.817 73.8793 246.385 73.5099C246.953 73.1359 247.642 72.9489 248.452 72.9489C249.209 72.9489 249.87 73.1146 250.433 73.446C250.997 73.7775 251.435 74.2509 251.747 74.8665C252.06 75.4773 252.216 76.2064 252.216 77.054V84H249.19V77.5938C249.195 76.9261 249.024 76.4053 248.679 76.0312C248.333 75.6525 247.857 75.4631 247.251 75.4631C246.844 75.4631 246.484 75.5507 246.172 75.7259C245.864 75.901 245.622 76.1567 245.447 76.4929C245.277 76.8243 245.189 77.2244 245.185 77.6932ZM259.115 88.3182C258.135 88.3182 257.295 88.1832 256.594 87.9134C255.898 87.6482 255.344 87.286 254.932 86.8267C254.52 86.3674 254.252 85.8513 254.129 85.2784L256.928 84.902C257.013 85.1198 257.148 85.3234 257.332 85.5128C257.517 85.7022 257.761 85.8537 258.064 85.9673C258.372 86.0857 258.746 86.1449 259.186 86.1449C259.844 86.1449 260.386 85.9839 260.813 85.6619C261.243 85.3447 261.459 84.812 261.459 84.0639V82.0682H261.331C261.198 82.3712 261 82.6577 260.734 82.9276C260.469 83.1974 260.128 83.4176 259.712 83.5881C259.295 83.7585 258.798 83.8438 258.22 83.8438C257.401 83.8438 256.655 83.6544 255.983 83.2756C255.315 82.892 254.783 82.3073 254.385 81.5213C253.992 80.7306 253.796 79.7315 253.796 78.5241C253.796 77.2884 253.997 76.2562 254.399 75.4276C254.802 74.599 255.337 73.9787 256.004 73.5668C256.677 73.1548 257.413 72.9489 258.213 72.9489C258.824 72.9489 259.335 73.053 259.747 73.2614C260.159 73.465 260.491 73.7206 260.742 74.0284C260.997 74.3314 261.194 74.6297 261.331 74.9233H261.445V73.0909H264.449V84.1065C264.449 85.0346 264.222 85.8111 263.767 86.4361C263.313 87.0611 262.683 87.5298 261.878 87.8423C261.078 88.1596 260.157 88.3182 259.115 88.3182ZM259.179 81.571C259.667 81.571 260.079 81.4503 260.415 81.2088C260.756 80.9626 261.016 80.6122 261.196 80.1577C261.381 79.6984 261.473 79.1491 261.473 78.5099C261.473 77.8707 261.383 77.3168 261.203 76.848C261.023 76.3745 260.763 76.0076 260.422 75.7472C260.081 75.4867 259.667 75.3565 259.179 75.3565C258.682 75.3565 258.263 75.4915 257.922 75.7614C257.581 76.0265 257.323 76.3958 257.148 76.8693C256.973 77.3428 256.885 77.8897 256.885 78.5099C256.885 79.1397 256.973 79.6842 257.148 80.1435C257.328 80.598 257.586 80.9508 257.922 81.2017C258.263 81.4479 258.682 81.571 259.179 81.571ZM270.072 69.4545L269.795 79.6392H267.195L266.911 69.4545H270.072ZM268.495 84.1847C268.026 84.1847 267.624 84.0189 267.288 83.6875C266.951 83.3513 266.786 82.9489 266.79 82.4801C266.786 82.0161 266.951 81.6184 267.288 81.2869C267.624 80.9555 268.026 80.7898 268.495 80.7898C268.945 80.7898 269.34 80.9555 269.681 81.2869C270.022 81.6184 270.195 82.0161 270.2 82.4801C270.195 82.7926 270.112 83.0791 269.951 83.3395C269.795 83.5952 269.589 83.8011 269.333 83.9574C269.077 84.1089 268.798 84.1847 268.495 84.1847Z" fill="#095696"/>
</g>
<defs>
<linearGradient id="paint2_linear_3486_905" x1="75.7215" y1="64.5712" x2="133.649" y2="62.0716" gradientUnits="userSpaceOnUse">
<stop stop-color="#095696"/>
<stop offset="0.5" stop-color="#3BAFDA"/>
<stop offset="1" stop-color="#F0F9FF"/>
</linearGradient>
<linearGradient id="paint3_linear_3486_905" x1="73.9549" y1="54.9338" x2="98.9191" y2="30.9567" gradientUnits="userSpaceOnUse">
<stop stop-color="#095696"/>
<stop offset="0.5" stop-color="#3BAFDA"/>
<stop offset="1" stop-color="#F0F9FF"/>
</linearGradient>
<clipPath id="clip0_3486_905">
<rect width="303" height="133" rx="15" fill="white"/>
</clipPath>
<pattern id="pattern0_3486_905" patternUnits="userSpaceOnUse" patternTransform="matrix(203.66 0 0 303.97 67.885 -0.750001)" preserveAspectRatio="none" viewBox="0 0 75.71 113" width="1" height="1">
<use xlink:href="#pattern0_3486_905_inner" transform="translate(-75.71 0)"/>
<g id="pattern0_3486_905_inner">
<circle cx="5" cy="19" r="5" fill="#57CBF5"/>
<circle cx="62" cy="29" r="5" fill="#57CBF5"/>
<circle cx="33" cy="8" r="5" fill="#57CBF5"/>
<circle cx="51" cy="39" r="5" fill="#57CBF5"/>
<circle cx="18" cy="26" r="2" fill="#00B7F1"/>
<circle cx="18" cy="10" r="2" fill="#00B7F1"/>
<circle cx="28.5" cy="39.5" r="10.5" fill="url(#paint0_linear_3486_905)"/>
<circle cx="56.5" cy="10.5" r="10.5" fill="url(#paint1_linear_3486_905)"/>
<circle cx="10" cy="37" r="3" fill="#B9E5FB"/>
<circle cx="43" cy="26" r="3" fill="#B9E5FB"/>
<circle cx="30" cy="21" r="3" fill="#B9E5FB"/>
</g>
<use xlink:href="#pattern0_3486_905_inner" transform="translate(-37.855 56.5)"/>
<use xlink:href="#pattern0_3486_905_inner" transform="translate(37.855 56.5)"/>
</pattern><linearGradient id="paint0_linear_3486_905" x1="28.5" y1="29" x2="28.5" y2="50" gradientUnits="userSpaceOnUse">
<stop stop-color="#00B7F1"/>
<stop offset="1" stop-color="#69D7FF"/>
</linearGradient>
<linearGradient id="paint1_linear_3486_905" x1="56.5" y1="0" x2="56.5" y2="21" gradientUnits="userSpaceOnUse">
<stop stop-color="#00B7F1"/>
<stop offset="1" stop-color="#69D7FF"/>
</linearGradient>
</defs>
</svg>
