<svg width="22" height="50" viewBox="0 0 22 50" fill="none" xmlns="http://www.w3.org/2000/svg">
<path d="M11.0064 24.4245C6.49359 19.1279 2.28846 22.2176 0.75 24.4245C0.92094 31.8478 1.36538 46.8147 1.77564 47.2962C2.1859 47.7777 8.10043 48.2994 11.0064 48.5L20.2372 47.2962L20.75 24.4245C19.0406 26.6314 15.5192 29.7211 11.0064 24.4245Z" fill="#3BAFDA"/>
<path d="M5.50024 6.5V9L1.89064 11.4063C1.33422 11.7772 1 12.4017 1 13.0704V17.2499C1 18.2164 1.78356 19 2.75012 19H3.1798C3.90906 19 4.50024 19.5912 4.50024 20.3204C4.50024 20.7469 4.29429 21.1471 3.94726 21.395L2.25637 22.6027C1.46793 23.1658 1 24.075 1 25.0439V45.5C1 47.1569 2.34315 48.5 4 48.5H10.7968H18.0002C19.6571 48.5 21.0002 47.1569 21.0002 45.5V25.2652C21.0002 24.1757 20.4096 23.1718 19.4572 22.6427L17.1479 21.3598C16.7482 21.1377 16.5002 20.7164 16.5002 20.2591C16.5002 19.5637 17.064 19 17.7594 19H18.7502C19.9929 19 21.0002 17.9926 21.0002 16.75V13.0704C21.0002 12.4017 20.666 11.7772 20.1096 11.4063L16.5002 9V6.5M5.50024 6.5H10.7968H16.5002M5.50024 6.5H4.00024V2C4.00024 1.44772 4.44796 1 5.00024 1H17.0002C17.5525 1 18.0002 1.44772 18.0002 2V6.5H16.5002" stroke="black" stroke-width="2" stroke-linecap="square"/>
<path d="M11.5 32V35.5M11.5 35.5V39M11.5 35.5H15M11.5 35.5H8" stroke="white"/>
</svg>
