<svg width="27" height="30" viewBox="0 0 27 30" fill="none" xmlns="http://www.w3.org/2000/svg">
<path d="M13.8546 7.59958C8.89046 2.89149 4.26482 5.63788 2.57251 7.59958C2.76054 14.198 3.24943 27.502 3.70071 27.93C4.152 28.358 10.658 28.8217 13.8546 29L24.0084 27.93L24.5725 7.59958C22.6922 9.56129 18.8187 12.3077 13.8546 7.59958Z" fill="#3BAFDA"/>
<path d="M12.8024 1H1.07251C1.19141 2.69756 2.39209 19.4896 2.87383 26.2256C2.9861 27.7954 4.29154 29 5.86533 29H12.8691H20.7789C22.3528 29 23.6592 27.7837 23.7713 26.2138L25.5725 1H12.8024Z" stroke="black" stroke-width="2" stroke-linecap="square"/>
<path d="M13.0725 14V17.5M13.0725 17.5V21M13.0725 17.5H16.5725M13.0725 17.5H9.57251" stroke="white"/>
</svg>
