<svg width="59" height="40" viewBox="0 0 59 40" fill="none" xmlns="http://www.w3.org/2000/svg">
<g filter="url(#filter0_d_3466_1270)">
<rect width="48.6301" height="29.4521" rx="14.726" transform="matrix(-1 0 0 1 53.4247 4.10962)" fill="url(#paint0_linear_3466_1270)"/>
</g>
<path d="M17.081 17.8827C17.0508 17.5995 16.9232 17.379 16.6983 17.2212C16.4757 17.0633 16.1859 16.9844 15.8292 16.9844C15.5784 16.9844 15.3633 17.0223 15.1838 17.0979C15.0044 17.1736 14.8671 17.2763 14.772 17.406C14.6768 17.5357 14.6282 17.6838 14.626 17.8503C14.626 17.9887 14.6574 18.1087 14.7201 18.2103C14.7849 18.3119 14.8725 18.3984 14.9828 18.4697C15.093 18.5389 15.2152 18.5973 15.3492 18.6449C15.4833 18.6924 15.6184 18.7324 15.7546 18.7649L16.3773 18.9205C16.6281 18.9789 16.8691 19.0578 17.1005 19.1573C17.334 19.2567 17.5426 19.3821 17.7264 19.5335C17.9123 19.6848 18.0593 19.8675 18.1674 20.0815C18.2755 20.2956 18.3296 20.5464 18.3296 20.8339C18.3296 21.2231 18.2301 21.5658 18.0312 21.862C17.8323 22.156 17.5448 22.3863 17.1686 22.5527C16.7946 22.717 16.3416 22.7992 15.8098 22.7992C15.293 22.7992 14.8444 22.7192 14.4639 22.5592C14.0855 22.3992 13.7893 22.1657 13.5753 21.8587C13.3634 21.5517 13.2488 21.1777 13.2315 20.7366H14.4152C14.4325 20.968 14.5039 21.1604 14.6293 21.3139C14.7547 21.4674 14.9179 21.582 15.119 21.6577C15.3222 21.7333 15.5492 21.7712 15.8 21.7712C16.0616 21.7712 16.2908 21.7322 16.4875 21.6544C16.6865 21.5744 16.8421 21.4641 16.9545 21.3236C17.067 21.1809 17.1243 21.0144 17.1264 20.8242C17.1243 20.6512 17.0735 20.5085 16.974 20.3961C16.8746 20.2815 16.7351 20.1864 16.5557 20.1107C16.3784 20.0329 16.1708 19.9637 15.933 19.9032L15.1774 19.7086C14.6304 19.568 14.198 19.3551 13.8801 19.0697C13.5645 18.7821 13.4067 18.4006 13.4067 17.9249C13.4067 17.5336 13.5126 17.1909 13.7245 16.8969C13.9385 16.6028 14.2293 16.3747 14.5969 16.2126C14.9644 16.0483 15.3806 15.9661 15.8454 15.9661C16.3167 15.9661 16.7297 16.0483 17.0843 16.2126C17.441 16.3747 17.721 16.6007 17.9242 16.8904C18.1274 17.1779 18.2323 17.5087 18.2388 17.8827H17.081ZM19.3503 22.6987V17.7173H20.5243V22.6987H19.3503ZM19.9406 17.0104C19.7546 17.0104 19.5947 16.9487 19.4606 16.8255C19.3266 16.7001 19.2595 16.5499 19.2595 16.3747C19.2595 16.1974 19.3266 16.0472 19.4606 15.9239C19.5947 15.7985 19.7546 15.7358 19.9406 15.7358C20.1287 15.7358 20.2887 15.7985 20.4206 15.9239C20.5546 16.0472 20.6216 16.1974 20.6216 16.3747C20.6216 16.5499 20.5546 16.7001 20.4206 16.8255C20.2887 16.9487 20.1287 17.0104 19.9406 17.0104ZM21.7316 22.6987V17.7173H22.8536V18.5638H22.912C23.0158 18.2784 23.1877 18.0557 23.4277 17.8957C23.6677 17.7336 23.9541 17.6525 24.2871 17.6525C24.6244 17.6525 24.9087 17.7346 25.14 17.899C25.3735 18.0611 25.5378 18.2827 25.6329 18.5638H25.6848C25.7951 18.287 25.981 18.0665 26.2426 17.9022C26.5064 17.7357 26.8188 17.6525 27.1799 17.6525C27.6382 17.6525 28.0123 17.7973 28.302 18.0871C28.5917 18.3768 28.7365 18.7994 28.7365 19.3551V22.6987H27.5593V19.5367C27.5593 19.2275 27.4772 19.0016 27.3128 18.8589C27.1485 18.714 26.9475 18.6416 26.7096 18.6416C26.4264 18.6416 26.2048 18.7303 26.0448 18.9075C25.887 19.0827 25.8081 19.3108 25.8081 19.5918V22.6987H24.6568V19.4881C24.6568 19.2308 24.5789 19.0254 24.4233 18.8719C24.2698 18.7184 24.0687 18.6416 23.8201 18.6416C23.6514 18.6416 23.4979 18.6849 23.3596 18.7713C23.2212 18.8557 23.1109 18.9757 23.0288 19.1313C22.9466 19.2848 22.9055 19.4643 22.9055 19.6697V22.6987H21.7316ZM29.9275 24.5667V17.7173H31.0821V18.5411H31.1502C31.2107 18.42 31.2961 18.2914 31.4064 18.1552C31.5166 18.0168 31.6658 17.899 31.8539 17.8017C32.042 17.7022 32.282 17.6525 32.5739 17.6525C32.9587 17.6525 33.3057 17.7509 33.6149 17.9476C33.9262 18.1422 34.1727 18.4308 34.3543 18.8135C34.5381 19.194 34.63 19.661 34.63 20.2145C34.63 20.7615 34.5402 21.2263 34.3608 21.609C34.1813 21.9917 33.937 22.2836 33.6279 22.4846C33.3187 22.6857 32.9684 22.7862 32.5771 22.7862C32.2917 22.7862 32.055 22.7387 31.8669 22.6435C31.6788 22.5484 31.5274 22.4338 31.4129 22.2998C31.3004 22.1636 31.2129 22.0349 31.1502 21.9139H31.1015V24.5667H29.9275ZM31.0788 20.208C31.0788 20.5302 31.1242 20.8123 31.215 21.0544C31.308 21.2966 31.441 21.4858 31.6139 21.622C31.7891 21.756 32.0009 21.823 32.2496 21.823C32.509 21.823 32.7263 21.7539 32.9014 21.6155C33.0765 21.475 33.2084 21.2836 33.2971 21.0415C33.3879 20.7972 33.4333 20.5193 33.4333 20.208C33.4333 19.8988 33.389 19.6243 33.3003 19.3843C33.2117 19.1443 33.0798 18.9562 32.9047 18.82C32.7295 18.6838 32.5112 18.6157 32.2496 18.6157C31.9988 18.6157 31.7858 18.6816 31.6107 18.8135C31.4356 18.9454 31.3026 19.1302 31.2118 19.3681C31.1231 19.6059 31.0788 19.8859 31.0788 20.208ZM37.0687 22.7992C36.7531 22.7992 36.4688 22.743 36.2158 22.6306C35.965 22.516 35.7661 22.3473 35.6191 22.1247C35.4742 21.902 35.4018 21.6274 35.4018 21.3009C35.4018 21.0199 35.4537 20.7874 35.5575 20.6037C35.6613 20.4199 35.8029 20.2729 35.9823 20.1626C36.1618 20.0523 36.3639 19.9691 36.5888 19.9129C36.8158 19.8545 37.0504 19.8124 37.2925 19.7864C37.5844 19.7561 37.8211 19.7291 38.0027 19.7053C38.1843 19.6794 38.3162 19.6405 38.3984 19.5886C38.4827 19.5345 38.5249 19.4513 38.5249 19.3389V19.3194C38.5249 19.0751 38.4524 18.8859 38.3076 18.7519C38.1627 18.6178 37.9541 18.5508 37.6817 18.5508C37.3941 18.5508 37.166 18.6135 36.9974 18.7389C36.8309 18.8643 36.7185 19.0124 36.6601 19.1832L35.564 19.0275C35.6504 18.7249 35.7931 18.4719 35.992 18.2687C36.1909 18.0633 36.4342 17.9098 36.7217 17.8082C37.0093 17.7044 37.3271 17.6525 37.6752 17.6525C37.9152 17.6525 38.1541 17.6806 38.3919 17.7368C38.6297 17.793 38.847 17.886 39.0438 18.0157C39.2405 18.1433 39.3983 18.3173 39.5172 18.5378C39.6383 18.7584 39.6988 19.034 39.6988 19.3648V22.6987H38.5703V22.0144H38.5313C38.46 22.1528 38.3595 22.2825 38.2297 22.4036C38.1022 22.5225 37.9411 22.6187 37.7465 22.6922C37.5541 22.7635 37.3282 22.7992 37.0687 22.7992ZM37.3736 21.9366C37.6092 21.9366 37.8136 21.8901 37.9865 21.7971C38.1595 21.702 38.2924 21.5766 38.3854 21.4209C38.4805 21.2652 38.5281 21.0955 38.5281 20.9118V20.3248C38.4914 20.355 38.4287 20.3831 38.34 20.4091C38.2535 20.435 38.1562 20.4577 38.0481 20.4772C37.94 20.4966 37.833 20.5139 37.7271 20.5291C37.6211 20.5442 37.5292 20.5572 37.4514 20.568C37.2763 20.5918 37.1195 20.6307 36.9812 20.6847C36.8428 20.7388 36.7336 20.8145 36.6536 20.9118C36.5736 21.0069 36.5336 21.1301 36.5336 21.2815C36.5336 21.4977 36.6125 21.6609 36.7704 21.7712C36.9282 21.8814 37.1293 21.9366 37.3736 21.9366ZM42.0533 19.7799V22.6987H40.8793V17.7173H42.0014V18.5638H42.0598C42.1744 18.2849 42.3571 18.0633 42.6079 17.899C42.8608 17.7346 43.1732 17.6525 43.5451 17.6525C43.8889 17.6525 44.1883 17.726 44.4434 17.873C44.7007 18.02 44.8996 18.233 45.0401 18.5119C45.1828 18.7908 45.2531 19.1292 45.2509 19.527V22.6987H44.077V19.7086C44.077 19.3756 43.9905 19.1151 43.8175 18.927C43.6467 18.7389 43.41 18.6449 43.1073 18.6449C42.9019 18.6449 42.7192 18.6903 42.5592 18.7811C42.4014 18.8697 42.2771 18.9984 42.1863 19.167C42.0976 19.3356 42.0533 19.5399 42.0533 19.7799Z" fill="white"/>
<defs>
<filter id="filter0_d_3466_1270" x="-2.59876e-05" y="3.00407e-05" width="58.2192" height="39.0411" filterUnits="userSpaceOnUse" color-interpolation-filters="sRGB">
<feFlood flood-opacity="0" result="BackgroundImageFix"/>
<feColorMatrix in="SourceAlpha" type="matrix" values="0 0 0 0 0 0 0 0 0 0 0 0 0 0 0 0 0 0 127 0" result="hardAlpha"/>
<feMorphology radius="0.684932" operator="dilate" in="SourceAlpha" result="effect1_dropShadow_3466_1270"/>
<feOffset dy="0.684932"/>
<feGaussianBlur stdDeviation="2.05479"/>
<feComposite in2="hardAlpha" operator="out"/>
<feColorMatrix type="matrix" values="0 0 0 0 0.486275 0 0 0 0 0.839216 0 0 0 0 0.992157 0 0 0 1 0"/>
<feBlend mode="normal" in2="BackgroundImageFix" result="effect1_dropShadow_3466_1270"/>
<feBlend mode="normal" in="SourceGraphic" in2="effect1_dropShadow_3466_1270" result="shape"/>
</filter>
<linearGradient id="paint0_linear_3466_1270" x1="24.3151" y1="0" x2="24.3151" y2="29.4521" gradientUnits="userSpaceOnUse">
<stop stop-color="#7CD6FD"/>
<stop offset="1" stop-color="#3BAFDA"/>
</linearGradient>
</defs>
</svg>
