<svg width="24" height="24" viewBox="0 0 24 24" fill="none" xmlns="http://www.w3.org/2000/svg">
<mask id="path-1-inside-1_3399_391" fill="white">
<path d="M5.42495 19.5H18.575L17 8.5H6.99995L5.42495 19.5ZM12 7C12.425 7 12.7812 6.85625 13.0687 6.56875C13.3562 6.28125 13.5 5.925 13.5 5.5C13.5 5.075 13.3562 4.71875 13.0687 4.43125C12.7812 4.14375 12.425 4 12 4C11.575 4 11.2187 4.14375 10.9312 4.43125C10.6437 4.71875 10.5 5.075 10.5 5.5C10.5 5.925 10.6437 6.28125 10.9312 6.56875C11.2187 6.85625 11.575 7 12 7ZM3.69995 21L5.69995 7H9.39995C9.2666 6.76665 9.1666 6.5286 9.09995 6.28575C9.0333 6.0431 8.99995 5.78115 8.99995 5.5C8.99995 4.66667 9.2916 3.95833 9.87495 3.375C10.4583 2.79167 11.1666 2.5 12 2.5C12.8333 2.5 13.5416 2.79167 14.125 3.375C14.7083 3.95833 15 4.66667 15 5.5C15 5.78335 14.9666 6.04585 14.9 6.2875C14.8333 6.52915 14.7333 6.76665 14.6 7H18.3L20.3 21H3.69995Z"/>
</mask>
<path d="M5.42495 19.5L3.44514 19.2165L3.11819 21.5H5.42495V19.5ZM18.575 19.5V21.5H20.8817L20.5548 19.2165L18.575 19.5ZM17 8.5L18.9798 8.21653L18.734 6.5H17V8.5ZM6.99995 8.5V6.5H5.26592L5.02014 8.21653L6.99995 8.5ZM3.69995 21L1.72005 20.7172L1.39393 23H3.69995V21ZM5.69995 7V5H3.96536L3.72005 6.71716L5.69995 7ZM9.39995 7V9H12.8464L11.1364 6.00768L9.39995 7ZM9.09995 6.28575L11.0286 5.75642L11.0285 5.75602L9.09995 6.28575ZM14.6 7L12.8635 6.00768L11.1535 9H14.6V7ZM18.3 7L20.2799 6.71716L20.0345 5H18.3V7ZM20.3 21V23H22.606L22.2799 20.7172L20.3 21ZM5.42495 19.5V21.5H18.575V19.5V17.5H5.42495V19.5ZM18.575 19.5L20.5548 19.2165L18.9798 8.21653L17 8.5L15.0201 8.78347L16.5951 19.7835L18.575 19.5ZM17 8.5V6.5H6.99995V8.5V10.5H17V8.5ZM6.99995 8.5L5.02014 8.21653L3.44514 19.2165L5.42495 19.5L7.40476 19.7835L8.97976 8.78347L6.99995 8.5ZM12 7V9C12.9286 9 13.8018 8.66405 14.4829 7.98296L13.0687 6.56875L11.6545 5.15454C11.6895 5.11948 11.752 5.072 11.8375 5.03749C11.9213 5.00368 11.9833 5 12 5V7ZM13.0687 6.56875L14.4829 7.98296C15.164 7.30188 15.5 6.42867 15.5 5.5H13.5H11.5C11.5 5.48332 11.5036 5.42132 11.5374 5.33755C11.572 5.25201 11.6194 5.18959 11.6545 5.15454L13.0687 6.56875ZM13.5 5.5H15.5C15.5 4.57133 15.164 3.69812 14.4829 3.01704L13.0687 4.43125L11.6545 5.84546C11.6194 5.81041 11.572 5.74799 11.5374 5.66245C11.5036 5.57868 11.5 5.51668 11.5 5.5H13.5ZM13.0687 4.43125L14.4829 3.01704C13.8018 2.33595 12.9286 2 12 2V4V6C11.9833 6 11.9213 5.99632 11.8375 5.96251C11.752 5.928 11.6895 5.88052 11.6545 5.84546L13.0687 4.43125ZM12 4V2C11.0713 2 10.1981 2.33595 9.51699 3.01704L10.9312 4.43125L12.3454 5.84546C12.3104 5.88052 12.2479 5.928 12.1624 5.96251C12.0786 5.99632 12.0166 6 12 6V4ZM10.9312 4.43125L9.51699 3.01704C8.8359 3.69812 8.49995 4.57133 8.49995 5.5H10.5H12.5C12.5 5.51668 12.4963 5.57867 12.4625 5.66245C12.4279 5.74799 12.3805 5.8104 12.3454 5.84546L10.9312 4.43125ZM10.5 5.5H8.49995C8.49995 6.42867 8.8359 7.30188 9.51699 7.98296L10.9312 6.56875L12.3454 5.15454C12.3805 5.1896 12.4279 5.25201 12.4625 5.33755C12.4963 5.42133 12.5 5.48332 12.5 5.5H10.5ZM10.9312 6.56875L9.51699 7.98296C10.1981 8.66405 11.0713 9 12 9V7V5C12.0166 5 12.0786 5.00368 12.1624 5.03749C12.2479 5.072 12.3104 5.11948 12.3454 5.15454L10.9312 6.56875ZM3.69995 21L5.67985 21.2828L7.67985 7.28284L5.69995 7L3.72005 6.71716L1.72005 20.7172L3.69995 21ZM5.69995 7V9H9.39995V7V5H5.69995V7ZM9.39995 7L11.1364 6.00768C11.0807 5.91015 11.048 5.82692 11.0286 5.75642L9.09995 6.28575L7.17127 6.81508C7.28522 7.23028 7.45252 7.62315 7.66349 7.99232L9.39995 7ZM9.09995 6.28575L11.0285 5.75602C11.0144 5.70471 11 5.62273 11 5.5H8.99995H6.99995C6.99995 5.93957 7.05217 6.38149 7.17138 6.81548L9.09995 6.28575ZM8.99995 5.5H11C11 5.19102 11.0852 4.99321 11.2891 4.78923L9.87495 3.375L8.46076 1.96077C7.49804 2.92346 6.99995 4.14231 6.99995 5.5H8.99995ZM9.87495 3.375L11.2891 4.78923C11.4932 4.5852 11.691 4.5 12 4.5V2.5V0.5C10.6422 0.5 9.42342 0.998133 8.46076 1.96077L9.87495 3.375ZM12 2.5V4.5C12.3089 4.5 12.5067 4.5852 12.7108 4.78923L14.125 3.375L15.5391 1.96077C14.5765 0.998133 13.3577 0.5 12 0.5V2.5ZM14.125 3.375L12.7108 4.78923C12.9147 4.99321 13 5.19102 13 5.5H15H17C17 4.14231 16.5019 2.92346 15.5391 1.96077L14.125 3.375ZM15 5.5H13C13 5.6265 12.9851 5.70801 12.9719 5.75573L14.9 6.2875L16.828 6.81927C16.9481 6.38369 17 5.9402 17 5.5H15ZM14.9 6.2875L12.9719 5.75573C12.9527 5.82533 12.92 5.90886 12.8635 6.00768L14.6 7L16.3364 7.99232C16.5466 7.62444 16.7139 7.23297 16.828 6.81927L14.9 6.2875ZM14.6 7V9H18.3V7V5H14.6V7ZM18.3 7L16.3201 7.28284L18.3201 21.2828L20.3 21L22.2799 20.7172L20.2799 6.71716L18.3 7ZM20.3 21V19H3.69995V21V23H20.3V21Z" fill="#3BAFDA" mask="url(#path-1-inside-1_3399_391)"/>
</svg>
