<svg width="49" height="30" viewBox="0 0 49 30" fill="none" xmlns="http://www.w3.org/2000/svg">
<rect width="48.6301" height="29.4521" rx="14.726" transform="matrix(-1 0 0 1 48.6302 0)" fill="#BFBFBF"/>
<path d="M12.2865 13.7732C12.2563 13.49 12.1287 13.2695 11.9039 13.1117C11.6812 12.9538 11.3914 12.8749 11.0347 12.8749C10.7839 12.8749 10.5688 12.9128 10.3893 12.9884C10.2099 13.0641 10.0726 13.1668 9.97748 13.2965C9.88235 13.4262 9.83371 13.5743 9.83154 13.7408C9.83154 13.8792 9.86289 13.9992 9.92559 14.1008C9.99045 14.2024 10.078 14.2889 10.1883 14.3602C10.2985 14.4294 10.4207 14.4878 10.5547 14.5354C10.6888 14.5829 10.8239 14.6229 10.9601 14.6554L11.5828 14.811C11.8336 14.8694 12.0747 14.9483 12.306 15.0478C12.5395 15.1472 12.7481 15.2726 12.9319 15.424C13.1178 15.5753 13.2648 15.758 13.373 15.972C13.4811 16.1861 13.5351 16.4369 13.5351 16.7244C13.5351 17.1136 13.4356 17.4563 13.2367 17.7525C13.0378 18.0465 12.7503 18.2768 12.3741 18.4432C12.0001 18.6075 11.5471 18.6897 11.0153 18.6897C10.4985 18.6897 10.0499 18.6097 9.66939 18.4497C9.29104 18.2897 8.99484 18.0562 8.7808 17.7492C8.56892 17.4422 8.45433 17.0682 8.43703 16.6271H9.62075C9.63804 16.8585 9.70939 17.0509 9.83479 17.2044C9.96018 17.3579 10.1234 17.4725 10.3245 17.5482C10.5277 17.6238 10.7547 17.6617 11.0055 17.6617C11.2671 17.6617 11.4963 17.6227 11.6931 17.5449C11.892 17.4649 12.0476 17.3547 12.1601 17.2141C12.2725 17.0714 12.3298 16.9049 12.3319 16.7147C12.3298 16.5417 12.279 16.399 12.1795 16.2866C12.0801 16.172 11.9406 16.0769 11.7612 16.0012C11.5839 15.9234 11.3763 15.8542 11.1385 15.7937L10.3829 15.5991C9.83587 15.4586 9.40346 15.2456 9.08564 14.9602C8.76999 14.6727 8.61216 14.2911 8.61216 13.8154C8.61216 13.4241 8.7181 13.0814 8.92998 12.7874C9.14402 12.4933 9.43481 12.2652 9.80236 12.1031C10.1699 11.9388 10.5861 11.8566 11.0509 11.8566C11.5223 11.8566 11.9352 11.9388 12.2898 12.1031C12.6465 12.2652 12.9265 12.4912 13.1297 12.7809C13.333 13.0684 13.4378 13.3992 13.4443 13.7732H12.2865ZM14.5559 18.5892V13.6079H15.7298V18.5892H14.5559ZM15.1461 12.9009C14.9602 12.9009 14.8002 12.8392 14.6661 12.716C14.5321 12.5906 14.465 12.4404 14.465 12.2652C14.465 12.0879 14.5321 11.9377 14.6661 11.8144C14.8002 11.689 14.9602 11.6264 15.1461 11.6264C15.3342 11.6264 15.4942 11.689 15.6261 11.8144C15.7601 11.9377 15.8271 12.0879 15.8271 12.2652C15.8271 12.4404 15.7601 12.5906 15.6261 12.716C15.4942 12.8392 15.3342 12.9009 15.1461 12.9009ZM16.9371 18.5892V13.6079H18.0592V14.4543H18.1175C18.2213 14.1689 18.3932 13.9462 18.6332 13.7862C18.8732 13.6241 19.1596 13.543 19.4926 13.543C19.8299 13.543 20.1142 13.6251 20.3455 13.7895C20.579 13.9516 20.7433 14.1732 20.8384 14.4543H20.8903C21.0006 14.1775 21.1865 13.957 21.4481 13.7927C21.7119 13.6262 22.0243 13.543 22.3854 13.543C22.8437 13.543 23.2178 13.6878 23.5075 13.9776C23.7972 14.2673 23.942 14.6899 23.942 15.2456V18.5892H22.7648V15.4272C22.7648 15.118 22.6827 14.8921 22.5183 14.7494C22.354 14.6045 22.153 14.5321 21.9151 14.5321C21.6319 14.5321 21.4103 14.6208 21.2503 14.7981C21.0925 14.9732 21.0136 15.2013 21.0136 15.4823V18.5892H19.8623V15.3786C19.8623 15.1213 19.7845 14.9159 19.6288 14.7624C19.4753 14.6089 19.2742 14.5321 19.0256 14.5321C18.8569 14.5321 18.7034 14.5754 18.5651 14.6618C18.4267 14.7462 18.3164 14.8662 18.2343 15.0218C18.1521 15.1753 18.111 15.3548 18.111 15.5602V18.5892H16.9371ZM25.133 20.4572V13.6079H26.2876V14.4316H26.3557C26.4162 14.3105 26.5016 14.1819 26.6119 14.0457C26.7221 13.9073 26.8713 13.7895 27.0594 13.6922C27.2475 13.5927 27.4875 13.543 27.7794 13.543C28.1642 13.543 28.5112 13.6414 28.8204 13.8381C29.1317 14.0327 29.3782 14.3213 29.5598 14.704C29.7436 15.0845 29.8355 15.5515 29.8355 16.105C29.8355 16.652 29.7457 17.1168 29.5663 17.4995C29.3868 17.8822 29.1425 18.1741 28.8334 18.3751C28.5242 18.5762 28.1739 18.6767 27.7826 18.6767C27.4972 18.6767 27.2605 18.6292 27.0724 18.534C26.8843 18.4389 26.733 18.3243 26.6184 18.1903C26.5059 18.0541 26.4184 17.9254 26.3557 17.8044H26.307V20.4572H25.133ZM26.2843 16.0985C26.2843 16.4207 26.3297 16.7028 26.4205 16.9449C26.5135 17.1871 26.6465 17.3763 26.8194 17.5125C26.9946 17.6465 27.2064 17.7135 27.4551 17.7135C27.7145 17.7135 27.9318 17.6444 28.1069 17.506C28.282 17.3655 28.4139 17.1741 28.5026 16.932C28.5934 16.6877 28.6388 16.4098 28.6388 16.0985C28.6388 15.7893 28.5945 15.5148 28.5058 15.2748C28.4172 15.0348 28.2853 14.8467 28.1102 14.7105C27.935 14.5743 27.7167 14.5062 27.4551 14.5062C27.2043 14.5062 26.9913 14.5721 26.8162 14.704C26.6411 14.8359 26.5081 15.0207 26.4173 15.2586C26.3287 15.4964 26.2843 15.7764 26.2843 16.0985ZM32.2742 18.6897C31.9586 18.6897 31.6743 18.6335 31.4213 18.5211C31.1705 18.4065 30.9716 18.2378 30.8246 18.0152C30.6797 17.7925 30.6073 17.5179 30.6073 17.1914C30.6073 16.9104 30.6592 16.6779 30.763 16.4942C30.8668 16.3104 31.0084 16.1634 31.1878 16.0531C31.3673 15.9428 31.5694 15.8596 31.7943 15.8034C32.0213 15.745 32.2559 15.7029 32.498 15.6769C32.7899 15.6466 33.0266 15.6196 33.2082 15.5958C33.3898 15.5699 33.5217 15.531 33.6039 15.4791C33.6882 15.425 33.7304 15.3418 33.7304 15.2294V15.2099C33.7304 14.9656 33.6579 14.7764 33.5131 14.6424C33.3682 14.5083 33.1596 14.4413 32.8872 14.4413C32.5996 14.4413 32.3715 14.504 32.2029 14.6294C32.0364 14.7548 31.924 14.9029 31.8656 15.0737L30.7695 14.918C30.8559 14.6154 30.9986 14.3624 31.1975 14.1592C31.3965 13.9538 31.6397 13.8003 31.9272 13.6987C32.2148 13.5949 32.5326 13.543 32.8807 13.543C33.1207 13.543 33.3596 13.5711 33.5974 13.6273C33.8352 13.6835 34.0525 13.7765 34.2493 13.9062C34.446 14.0338 34.6038 14.2078 34.7227 14.4283C34.8438 14.6489 34.9044 14.9245 34.9044 15.2553V18.5892H33.7758V17.9049H33.7369C33.6655 18.0433 33.565 18.173 33.4353 18.2941C33.3077 18.413 33.1466 18.5092 32.952 18.5827C32.7596 18.654 32.5337 18.6897 32.2742 18.6897ZM32.5791 17.8271C32.8147 17.8271 33.0191 17.7806 33.192 17.6876C33.365 17.5925 33.4979 17.4671 33.5909 17.3114C33.686 17.1557 33.7336 16.986 33.7336 16.8023V16.2153C33.6969 16.2455 33.6342 16.2736 33.5455 16.2996C33.459 16.3255 33.3617 16.3482 33.2536 16.3677C33.1455 16.3871 33.0385 16.4044 32.9326 16.4196C32.8266 16.4347 32.7348 16.4477 32.6569 16.4585C32.4818 16.4823 32.325 16.5212 32.1867 16.5752C32.0483 16.6293 31.9391 16.705 31.8591 16.8023C31.7791 16.8974 31.7391 17.0206 31.7391 17.172C31.7391 17.3882 31.8181 17.5514 31.9759 17.6617C32.1337 17.7719 32.3348 17.8271 32.5791 17.8271ZM37.2588 15.6704V18.5892H36.0848V13.6079H37.2069V14.4543H37.2653C37.3799 14.1754 37.5626 13.9538 37.8134 13.7895C38.0663 13.6251 38.3787 13.543 38.7506 13.543C39.0944 13.543 39.3938 13.6165 39.6489 13.7635C39.9062 13.9105 40.1051 14.1235 40.2456 14.4024C40.3883 14.6813 40.4586 15.0197 40.4564 15.4175V18.5892H39.2825V15.5991C39.2825 15.2661 39.196 15.0056 39.023 14.8175C38.8522 14.6294 38.6155 14.5354 38.3128 14.5354C38.1074 14.5354 37.9247 14.5808 37.7647 14.6716C37.6069 14.7602 37.4826 14.8889 37.3918 15.0575C37.3031 15.2261 37.2588 15.4304 37.2588 15.6704Z" fill="white"/>
</svg>
