<svg width="24" height="24" viewBox="0 0 24 24" fill="none" xmlns="http://www.w3.org/2000/svg">
<path d="M12 12.9583V2.41663L19.6667 6.24996L12 10.0833" stroke="#3BAFDA" stroke-width="2" stroke-linecap="round" stroke-linejoin="round"/>
<path d="M20.2043 10.296C20.7143 11.8678 20.762 13.553 20.3418 15.1512C19.9215 16.7493 19.0511 18.1931 17.8339 19.3108C16.6168 20.4284 15.1042 21.1729 13.4761 21.4557C11.848 21.7384 10.1729 21.5475 8.6502 20.9056C7.12748 20.2638 5.8212 19.198 4.88676 17.8351C3.95232 16.4723 3.42906 14.8696 3.37923 13.2179C3.3294 11.5662 3.75511 9.93494 4.60569 8.51821C5.45628 7.10147 6.69595 5.95891 8.17721 5.22644" stroke="#3BAFDA" stroke-width="2" stroke-linecap="round" stroke-linejoin="round"/>
<path d="M8.16858 10.0804C7.68836 10.7197 7.37573 11.4689 7.25916 12.2599C7.1426 13.0508 7.2258 13.8584 7.5012 14.609C7.7766 15.3596 8.23543 16.0293 8.8359 16.5572C9.43636 17.0851 10.1594 17.4543 10.9391 17.6313C11.7187 17.8083 12.5303 17.7873 13.2998 17.5704C14.0693 17.3534 14.7724 16.9474 15.3448 16.3892C15.9172 15.8311 16.3409 15.1386 16.5772 14.3748C16.8135 13.611 16.855 12.8002 16.6977 12.0163" stroke="#3BAFDA" stroke-width="2" stroke-linecap="round" stroke-linejoin="round"/>
</svg>
