<svg width="375" height="368" viewBox="0 0 375 368" fill="none" xmlns="http://www.w3.org/2000/svg">
<g filter="url(#filter0_f_3486_583)">
<ellipse cx="187.5" cy="184" rx="138.5" ry="84" fill="white"/>
</g>
<path d="M119.258 178.843C116.596 179.637 113.856 181.192 111.967 182.401C110.484 183.349 109.931 185.197 110.51 186.859L123.808 225.023C125.567 230.071 130.811 233.019 136.039 231.898L169.139 224.8C174.373 223.677 177.948 218.829 177.473 213.497L174.105 175.656C173.96 174.031 172.863 172.649 171.278 172.264C168.009 171.469 162.262 170.428 157.706 171.497C150.42 173.206 147.272 178.531 139.987 180.242C132.008 182.117 127.114 176.497 119.258 178.843Z" fill="#3BAFDA"/>
<path d="M134.882 146.722C144.432 144.674 153.283 143.527 159.893 143.347C163.18 143.257 166.018 143.403 168.141 143.84C169.194 144.057 170.194 144.37 171.008 144.843C171.817 145.313 172.687 146.093 172.948 147.313C172.987 147.494 173.008 147.672 173.017 147.846L180.021 211.569C180.866 219.26 175.755 226.342 168.191 227.964L138.154 234.406C130.619 236.022 123.078 231.698 120.666 224.379L100.569 163.402C100.53 163.302 100.493 163.2 100.462 163.094L100.406 162.87L100.366 162.643C100.204 161.518 100.652 160.534 101.163 159.822C101.711 159.056 102.495 158.361 103.367 157.731C105.124 156.462 107.652 155.165 110.687 153.899C116.79 151.353 125.333 148.769 134.882 146.722ZM169.462 152.816C167.742 153.968 165.413 155.14 162.667 156.285C156.565 158.83 148.022 161.414 138.472 163.462C128.923 165.51 120.072 166.656 113.462 166.837C110.502 166.918 107.907 166.806 105.87 166.465L124.538 223.103C126.298 228.444 131.801 231.599 137.299 230.42L167.336 223.979C172.856 222.795 176.585 217.627 175.968 212.015L169.462 152.816ZM135.737 150.707C126.355 152.719 118.065 155.238 112.256 157.661C109.336 158.879 107.139 160.035 105.754 161.035C105.244 161.403 104.898 161.712 104.675 161.954C104.977 162.083 105.42 162.224 106.036 162.351C107.71 162.696 110.188 162.848 113.35 162.762C119.642 162.59 128.236 161.488 137.618 159.476C147 157.464 155.29 154.945 161.098 152.522C164.018 151.304 166.215 150.149 167.6 149.148C168.11 148.78 168.456 148.47 168.678 148.228C168.376 148.099 167.933 147.959 167.318 147.833C165.644 147.488 163.167 147.335 160.005 147.421C153.713 147.593 145.119 148.695 135.737 150.707Z" fill="#095696"/>
<path d="M146.463 155.159C146.463 155.159 148.621 137.937 154.464 128.987C156.298 126.177 159.048 123.337 161.903 120.797C167.589 115.738 176.156 118.726 178.613 125.931L179.432 128.334C182.474 137.258 172.562 145.28 163.272 146.885C156.063 148.132 146.463 155.159 146.463 155.159Z" fill="url(#paint0_linear_3486_583)"/>
<path d="M141.661 149.149C141.661 149.149 135.832 140.582 134.918 134.268C134.631 132.285 134.742 129.928 135.019 127.664C135.57 123.153 140.587 121.112 144.53 123.37L145.846 124.123C150.73 126.92 149.455 134.425 145.927 138.81C143.189 142.213 141.661 149.149 141.661 149.149Z" fill="url(#paint1_linear_3486_583)"/>
<path d="M131.103 191.308C132.864 190.931 134.636 192.23 135.061 194.212C135.486 196.193 134.402 198.105 132.641 198.483C130.88 198.86 129.109 197.56 128.684 195.579C128.259 193.598 129.342 191.686 131.103 191.308ZM156.612 185.838C158.373 185.46 160.145 186.76 160.57 188.741C160.995 190.722 159.912 192.635 158.151 193.012C156.39 193.39 154.617 192.09 154.193 190.109C153.768 188.128 154.851 186.215 156.612 185.838Z" fill="#095696"/>
<path d="M139.191 203.749C139.191 203.749 144.053 206.458 147.533 205.712C151.014 204.966 154.337 200.501 154.337 200.501" stroke="#095696" stroke-width="3.26117" stroke-linecap="round"/>
<path d="M198.404 181.737C197.193 181.737 195.953 181.636 194.684 181.434C193.444 181.261 192.247 181.002 191.093 180.655C189.968 180.309 188.959 179.877 188.065 179.358C187.431 179.012 186.984 178.565 186.724 178.017C186.464 177.44 186.364 176.863 186.421 176.286C186.508 175.71 186.724 175.205 187.07 174.772C187.445 174.311 187.906 174.022 188.454 173.907C189.031 173.763 189.666 173.864 190.358 174.21C191.54 174.873 192.823 175.364 194.208 175.681C195.621 175.998 197.02 176.157 198.404 176.157C200.509 176.157 202.009 175.839 202.903 175.205C203.797 174.542 204.244 173.72 204.244 172.739C204.244 171.903 203.927 171.24 203.292 170.749C202.658 170.259 201.547 169.841 199.961 169.495L195.073 168.457C192.304 167.88 190.242 166.899 188.887 165.515C187.56 164.102 186.897 162.256 186.897 159.978C186.897 158.536 187.2 157.224 187.805 156.041C188.411 154.859 189.262 153.835 190.358 152.97C191.454 152.105 192.751 151.441 194.251 150.98C195.779 150.519 197.452 150.288 199.269 150.288C200.884 150.288 202.47 150.49 204.027 150.894C205.585 151.268 206.955 151.831 208.137 152.581C208.714 152.927 209.103 153.374 209.305 153.922C209.536 154.441 209.608 154.974 209.521 155.522C209.464 156.041 209.247 156.503 208.872 156.906C208.526 157.31 208.079 157.57 207.531 157.685C206.983 157.801 206.32 157.671 205.542 157.296C204.59 156.806 203.58 156.445 202.513 156.214C201.446 155.984 200.35 155.868 199.226 155.868C198.015 155.868 196.976 156.027 196.111 156.344C195.275 156.661 194.626 157.108 194.164 157.685C193.732 158.262 193.516 158.925 193.516 159.675C193.516 160.511 193.818 161.189 194.424 161.708C195.03 162.227 196.082 162.645 197.582 162.963L202.47 164.001C205.296 164.607 207.402 165.587 208.786 166.942C210.17 168.269 210.862 170.028 210.862 172.22C210.862 173.662 210.574 174.974 209.997 176.157C209.42 177.31 208.584 178.305 207.488 179.141C206.392 179.978 205.08 180.627 203.552 181.088C202.023 181.521 200.307 181.737 198.404 181.737ZM217.075 181.607C216.008 181.607 215.186 181.304 214.61 180.699C214.062 180.064 213.788 179.185 213.788 178.06V163.266C213.788 162.112 214.062 161.232 214.61 160.627C215.186 159.992 216.008 159.675 217.075 159.675C218.114 159.675 218.907 159.992 219.455 160.627C220.031 161.232 220.32 162.112 220.32 163.266V178.06C220.32 179.185 220.046 180.064 219.498 180.699C218.95 181.304 218.142 181.607 217.075 181.607ZM217.075 156.128C215.864 156.128 214.927 155.854 214.264 155.306C213.629 154.729 213.312 153.922 213.312 152.883C213.312 151.816 213.629 151.009 214.264 150.461C214.927 149.884 215.864 149.596 217.075 149.596C218.287 149.596 219.209 149.884 219.844 150.461C220.478 151.009 220.796 151.816 220.796 152.883C220.796 153.922 220.478 154.729 219.844 155.306C219.209 155.854 218.287 156.128 217.075 156.128ZM227.785 189.437C226.718 189.437 225.896 189.149 225.32 188.572C224.772 188.024 224.498 187.202 224.498 186.106V162.963C224.498 161.896 224.772 161.088 225.32 160.54C225.896 159.963 226.689 159.675 227.699 159.675C228.766 159.675 229.573 159.963 230.121 160.54C230.669 161.088 230.943 161.896 230.943 162.963V165.904L230.467 164.217C230.9 162.833 231.765 161.723 233.063 160.886C234.389 160.021 235.903 159.589 237.605 159.589C239.451 159.589 241.066 160.036 242.45 160.93C243.863 161.824 244.959 163.092 245.738 164.736C246.516 166.38 246.906 168.341 246.906 170.619C246.906 172.898 246.516 174.873 245.738 176.546C244.959 178.219 243.877 179.502 242.493 180.396C241.109 181.29 239.48 181.737 237.605 181.737C235.932 181.737 234.447 181.333 233.149 180.526C231.852 179.689 230.972 178.608 230.511 177.281H231.03V186.106C231.03 187.202 230.741 188.024 230.164 188.572C229.617 189.149 228.823 189.437 227.785 189.437ZM235.658 176.849C236.581 176.849 237.389 176.618 238.081 176.157C238.802 175.695 239.35 175.017 239.725 174.123C240.128 173.201 240.33 172.033 240.33 170.619C240.33 168.514 239.898 166.971 239.033 165.991C238.167 164.981 237.043 164.477 235.658 164.477C234.735 164.477 233.914 164.693 233.193 165.126C232.5 165.558 231.953 166.236 231.549 167.159C231.145 168.053 230.943 169.206 230.943 170.619C230.943 172.725 231.376 174.296 232.241 175.335C233.106 176.344 234.245 176.849 235.658 176.849ZM198.404 215.737C197.193 215.737 195.953 215.636 194.684 215.434C193.444 215.261 192.247 215.002 191.093 214.655C189.968 214.309 188.959 213.877 188.065 213.358C187.431 213.012 186.984 212.565 186.724 212.017C186.464 211.44 186.364 210.863 186.421 210.286C186.508 209.71 186.724 209.205 187.07 208.772C187.445 208.311 187.906 208.022 188.454 207.907C189.031 207.763 189.666 207.864 190.358 208.21C191.54 208.873 192.823 209.364 194.208 209.681C195.621 209.998 197.02 210.157 198.404 210.157C200.509 210.157 202.009 209.839 202.903 209.205C203.797 208.542 204.244 207.72 204.244 206.739C204.244 205.903 203.927 205.24 203.292 204.749C202.658 204.259 201.547 203.841 199.961 203.495L195.073 202.457C192.304 201.88 190.242 200.899 188.887 199.515C187.56 198.102 186.897 196.256 186.897 193.978C186.897 192.536 187.2 191.224 187.805 190.041C188.411 188.859 189.262 187.835 190.358 186.97C191.454 186.105 192.751 185.441 194.251 184.98C195.779 184.519 197.452 184.288 199.269 184.288C200.884 184.288 202.47 184.49 204.027 184.894C205.585 185.268 206.955 185.831 208.137 186.581C208.714 186.927 209.103 187.374 209.305 187.922C209.536 188.441 209.608 188.974 209.521 189.522C209.464 190.041 209.247 190.503 208.872 190.906C208.526 191.31 208.079 191.57 207.531 191.685C206.983 191.801 206.32 191.671 205.542 191.296C204.59 190.806 203.58 190.445 202.513 190.214C201.446 189.984 200.35 189.868 199.226 189.868C198.015 189.868 196.976 190.027 196.111 190.344C195.275 190.661 194.626 191.108 194.164 191.685C193.732 192.262 193.516 192.925 193.516 193.675C193.516 194.511 193.818 195.189 194.424 195.708C195.03 196.227 196.082 196.645 197.582 196.963L202.47 198.001C205.296 198.607 207.402 199.587 208.786 200.942C210.17 202.269 210.862 204.028 210.862 206.22C210.862 207.662 210.574 208.974 209.997 210.157C209.42 211.31 208.584 212.305 207.488 213.141C206.392 213.978 205.08 214.627 203.552 215.088C202.023 215.521 200.307 215.737 198.404 215.737ZM217.075 215.607C216.008 215.607 215.186 215.304 214.61 214.699C214.062 214.064 213.788 213.185 213.788 212.06V197.266C213.788 196.112 214.062 195.232 214.61 194.627C215.186 193.992 216.008 193.675 217.075 193.675C218.114 193.675 218.907 193.992 219.455 194.627C220.031 195.232 220.32 196.112 220.32 197.266V212.06C220.32 213.185 220.046 214.064 219.498 214.699C218.95 215.304 218.142 215.607 217.075 215.607ZM217.075 190.128C215.864 190.128 214.927 189.854 214.264 189.306C213.629 188.729 213.312 187.922 213.312 186.883C213.312 185.816 213.629 185.009 214.264 184.461C214.927 183.884 215.864 183.596 217.075 183.596C218.287 183.596 219.209 183.884 219.844 184.461C220.478 185.009 220.796 185.816 220.796 186.883C220.796 187.922 220.478 188.729 219.844 189.306C219.209 189.854 218.287 190.128 217.075 190.128ZM227.785 223.437C226.718 223.437 225.896 223.149 225.32 222.572C224.772 222.024 224.498 221.202 224.498 220.106V196.963C224.498 195.896 224.772 195.088 225.32 194.54C225.896 193.963 226.689 193.675 227.699 193.675C228.766 193.675 229.573 193.963 230.121 194.54C230.669 195.088 230.943 195.896 230.943 196.963V199.904L230.467 198.217C230.9 196.833 231.765 195.723 233.063 194.886C234.389 194.021 235.903 193.589 237.605 193.589C239.451 193.589 241.066 194.036 242.45 194.93C243.863 195.824 244.959 197.092 245.738 198.736C246.516 200.38 246.906 202.341 246.906 204.619C246.906 206.898 246.516 208.873 245.738 210.546C244.959 212.219 243.877 213.502 242.493 214.396C241.109 215.29 239.48 215.737 237.605 215.737C235.932 215.737 234.447 215.333 233.149 214.526C231.852 213.689 230.972 212.608 230.511 211.281H231.03V220.106C231.03 221.202 230.741 222.024 230.164 222.572C229.617 223.149 228.823 223.437 227.785 223.437ZM235.658 210.849C236.581 210.849 237.389 210.618 238.081 210.157C238.802 209.695 239.35 209.017 239.725 208.123C240.128 207.201 240.33 206.033 240.33 204.619C240.33 202.514 239.898 200.971 239.033 199.991C238.167 198.981 237.043 198.477 235.658 198.477C234.735 198.477 233.914 198.693 233.193 199.126C232.5 199.558 231.953 200.236 231.549 201.159C231.145 202.053 230.943 203.206 230.943 204.619C230.943 206.725 231.376 208.296 232.241 209.335C233.106 210.344 234.245 210.849 235.658 210.849Z" fill="#095696"/>
<path d="M262.086 196.451C260.923 196.451 260.004 196.084 259.331 195.349C258.719 194.615 258.352 193.574 258.229 192.228L255.475 157.155C255.291 154.89 255.781 153.084 256.944 151.738C258.107 150.33 259.821 149.626 262.086 149.626C264.289 149.626 265.942 150.33 267.043 151.738C268.206 153.084 268.696 154.89 268.513 157.155L265.758 192.228C265.697 193.574 265.33 194.615 264.656 195.349C264.044 196.084 263.187 196.451 262.086 196.451ZM262.086 215.549C260.004 215.549 258.321 214.906 257.036 213.62C255.812 212.335 255.199 210.682 255.199 208.662C255.199 206.704 255.812 205.112 257.036 203.888C258.321 202.603 260.004 201.96 262.086 201.96C264.228 201.96 265.881 202.603 267.043 203.888C268.268 205.112 268.88 206.704 268.88 208.662C268.88 210.682 268.268 212.335 267.043 213.62C265.881 214.906 264.228 215.549 262.086 215.549Z" fill="#095696"/>
<defs>
<filter id="filter0_f_3486_583" x="-51" y="0" width="477" height="368" filterUnits="userSpaceOnUse" color-interpolation-filters="sRGB">
<feFlood flood-opacity="0" result="BackgroundImageFix"/>
<feBlend mode="normal" in="SourceGraphic" in2="BackgroundImageFix" result="shape"/>
<feGaussianBlur stdDeviation="50" result="effect1_foregroundBlur_3486_583"/>
</filter>
<linearGradient id="paint0_linear_3486_583" x1="146.402" y1="154.656" x2="183.905" y2="130.198" gradientUnits="userSpaceOnUse">
<stop stop-color="#095696"/>
<stop offset="0.5" stop-color="#3BAFDA"/>
<stop offset="1" stop-color="#F0F9FF"/>
</linearGradient>
<linearGradient id="paint1_linear_3486_583" x1="141.435" y1="148.948" x2="148.585" y2="123.193" gradientUnits="userSpaceOnUse">
<stop stop-color="#095696"/>
<stop offset="0.5" stop-color="#3BAFDA"/>
<stop offset="1" stop-color="#F0F9FF"/>
</linearGradient>
</defs>
</svg>
