<svg width="24" height="24" viewBox="0 0 24 24" fill="none" xmlns="http://www.w3.org/2000/svg">
<path d="M11.25 18.1248V5.8748L9.575 7.5248C9.425 7.6748 9.25 7.7498 9.05 7.7498C8.85 7.7498 8.675 7.6748 8.525 7.5248C8.375 7.3748 8.3 7.1998 8.3 6.9998C8.3 6.7998 8.375 6.6248 8.525 6.4748L11.475 3.5248C11.5583 3.44147 11.6417 3.38314 11.725 3.3498C11.8083 3.31647 11.9 3.2998 12 3.2998C12.1 3.2998 12.1917 3.31647 12.275 3.3498C12.3583 3.38314 12.4417 3.44147 12.525 3.5248L15.475 6.4748C15.625 6.6248 15.7 6.7998 15.7 6.9998C15.7 7.1998 15.625 7.3748 15.475 7.5248C15.325 7.6748 15.1458 7.7498 14.9375 7.7498C14.7292 7.7498 14.55 7.6748 14.4 7.5248L12.75 5.8748V18.1248L14.425 16.4748C14.575 16.3414 14.75 16.2707 14.95 16.2623C15.15 16.254 15.325 16.3248 15.475 16.4748C15.625 16.6248 15.7 16.7998 15.7 16.9998C15.7 17.1998 15.625 17.3748 15.475 17.5248L12.525 20.4748C12.4417 20.5581 12.3583 20.6164 12.275 20.6498C12.1917 20.6831 12.1 20.6998 12 20.6998C11.9 20.6998 11.8083 20.6831 11.725 20.6498C11.6417 20.6164 11.5583 20.5581 11.475 20.4748L8.525 17.5248C8.375 17.3748 8.3 17.1998 8.3 16.9998C8.3 16.7998 8.375 16.6248 8.525 16.4748C8.675 16.3248 8.85 16.254 9.05 16.2623C9.25 16.2707 9.425 16.3414 9.575 16.4748L11.25 18.1248Z" fill="#3BAFDA"/>
</svg>
