<svg width="30" height="19" viewBox="0 0 30 19" fill="none" xmlns="http://www.w3.org/2000/svg">
<path d="M12.3414 5.51642C7.37727 2.77004 2.75163 4.37209 1.05933 5.51642C1.24736 9.36553 1.73625 17.1262 2.18753 17.3758C2.63881 17.6255 9.1448 17.896 12.3414 18L22.4952 17.3758L23.0593 5.51642C21.179 6.66075 17.3055 8.26281 12.3414 5.51642Z" fill="#3BAFDA"/>
<path d="M23.3525 4.51724L23.5595 1H11.856H1.05933C1.16662 2.86013 1.63711 10.8447 1.89259 15.1772C1.98608 16.7627 3.29906 18 4.88727 18H11.856H19.7306C21.319 18 22.6321 16.7619 22.7254 15.1762L22.8007 13.8966M23.3525 4.51724C24.9215 4.51724 28.0593 5.45517 28.0593 9.2069C28.0593 12.9586 24.9215 13.8966 23.3525 13.8966H22.8007M23.3525 4.51724L22.8007 13.8966" stroke="black" stroke-width="2" stroke-linecap="square"/>
</svg>
