<svg width="24" height="24" viewBox="0 0 24 24" fill="none" xmlns="http://www.w3.org/2000/svg">
<path d="M21.2099 15.89C20.5737 17.3944 19.5787 18.7202 18.3118 19.7513C17.0449 20.7823 15.5447 21.4874 13.9424 21.8047C12.34 22.1221 10.6843 22.0421 9.12006 21.5718C7.55578 21.1014 6.13054 20.255 4.96893 19.1066C3.80733 17.9582 2.94473 16.5427 2.45655 14.9839C1.96837 13.4251 1.86948 11.7704 2.16851 10.1646C2.46755 8.55874 3.15541 7.05058 4.17196 5.77199C5.18851 4.49339 6.5028 3.48327 7.99992 2.82996" stroke="#2C3E50" stroke-width="2" stroke-linecap="round" stroke-linejoin="round"/>
<path d="M22 12C22 10.6868 21.7413 9.38642 21.2388 8.17317C20.7362 6.95991 19.9997 5.85752 19.0711 4.92893C18.1425 4.00035 17.0401 3.26375 15.8268 2.7612C14.6136 2.25866 13.3132 2 12 2V12H22Z" stroke="#2C3E50" stroke-width="2" stroke-linecap="round" stroke-linejoin="round"/>
</svg>
