<svg width="346" height="89" viewBox="0 0 346 89" fill="none" xmlns="http://www.w3.org/2000/svg">
<g filter="url(#filter0_d_3496_2025)">
<rect x="6" y="3" width="334" height="77" rx="38.5" fill="white" shape-rendering="crispEdges"/>
<path d="M81.4005 36.7643C80.2019 36.859 78.9007 37.2683 77.9911 37.6085C77.2776 37.8754 76.8756 38.6073 76.9698 39.3633L79.1343 56.7256C79.4207 59.0225 81.373 60.7465 83.6877 60.7465H98.3436C100.661 60.7465 102.615 59.0186 102.898 56.7185L104.907 40.3942C104.993 39.6932 104.654 39.0088 104.018 38.7018C102.707 38.0687 100.369 37.1062 98.3429 37.1449C95.1034 37.207 93.2877 39.1754 90.0482 39.2386C86.5008 39.3078 84.9389 36.4845 81.4005 36.7643Z" fill="#3BAFDA"/>
<path d="M90.9312 24.5854C95.1592 24.5855 99.0105 24.9047 101.825 25.4282C103.224 25.6886 104.412 26.0076 105.271 26.3853C105.697 26.5727 106.092 26.7956 106.394 27.0698C106.693 27.3422 106.991 27.7523 106.991 28.2925C106.991 28.3223 106.986 28.3514 106.984 28.3804L106.987 28.3813L106.979 28.4507C106.977 28.4671 106.976 28.4834 106.974 28.4995L104.152 56.1333C103.812 59.4652 101.005 61.9992 97.6558 61.9995H84.356C81.0199 61.9995 78.2206 59.4853 77.8638 56.1685L74.8911 28.5259C74.8891 28.5135 74.886 28.5013 74.8843 28.4888L74.8774 28.4038L74.8765 28.3862V28.3853L74.8706 28.2925L74.8843 28.0952C74.9454 27.6513 75.2062 27.3081 75.4683 27.0698C75.7699 26.7956 76.1651 26.5727 76.5913 26.3853C77.4501 26.0076 78.638 25.6886 80.0376 25.4282C82.8519 24.9047 86.7031 24.5854 90.9312 24.5854ZM105.016 30.3032C104.183 30.6348 103.091 30.9201 101.825 31.1558C99.0105 31.6793 95.1592 31.9985 90.9312 31.9985C86.7031 31.9985 82.8519 31.6793 80.0376 31.1558C78.7769 30.9212 77.6882 30.6378 76.8569 30.3081L79.6177 55.979C79.8779 58.3995 81.9215 60.2349 84.356 60.2349H97.6558C100.1 60.2345 102.147 58.3857 102.396 55.9546L105.016 30.3032ZM90.9312 26.3511C86.7772 26.3511 83.0387 26.6642 80.3599 27.1626C79.0135 27.4131 77.9785 27.7026 77.3013 28.0005C77.0527 28.1098 76.8783 28.2095 76.7622 28.2915C76.8783 28.3735 77.0527 28.4741 77.3013 28.5835C77.9785 28.8813 79.0136 29.1709 80.3599 29.4214C83.0387 29.9197 86.7773 30.2329 90.9312 30.2329C95.0848 30.2329 98.8227 29.9197 101.501 29.4214C102.848 29.1709 103.884 28.8814 104.561 28.5835C104.809 28.4742 104.983 28.3735 105.099 28.2915C104.983 28.2096 104.809 28.1096 104.561 28.0005C103.884 27.7026 102.848 27.4131 101.501 27.1626C98.8227 26.6643 95.0848 26.3511 90.9312 26.3511Z" fill="#095696"/>
<path d="M95.0669 29.2083C95.0669 29.2083 97.5439 22.114 100.829 18.8561C101.861 17.8329 103.283 16.8803 104.722 16.0644C107.588 14.4389 110.944 16.4817 111.329 19.7543L111.458 20.8463C111.936 24.8997 107.012 27.3957 102.934 27.2321C99.7685 27.1052 95.0669 29.2083 95.0669 29.2083Z" fill="url(#paint0_linear_3496_2025)"/>
<path d="M93.5795 26.2285C93.5795 26.2285 91.8899 22.0731 92.0762 19.3172C92.1347 18.4517 92.3958 17.4639 92.7185 16.5306C93.3612 14.6713 95.6703 14.2625 97.1345 15.5764L97.623 16.0149C99.4364 17.6422 98.2154 20.7033 96.3239 22.2392C94.8559 23.4312 93.5795 26.2285 93.5795 26.2285Z" fill="url(#paint1_linear_3496_2025)"/>
<path d="M83.9622 44.1711C83.9622 44.1711 84.6514 45.037 85.261 45.037C85.8706 45.037 86.5598 44.1711 86.5598 44.1711" stroke="#095696" stroke-width="0.865867" stroke-linecap="round"/>
<path d="M95.2185 44.1711C95.2185 44.1711 95.9077 45.037 96.5173 45.037C97.1269 45.037 97.8161 44.1711 97.8161 44.1711" stroke="#095696" stroke-width="0.865867" stroke-linecap="round"/>
<path d="M87.5775 50.7051C87.5775 50.7051 89.3895 49.1167 90.9306 49.1167C92.4718 49.1167 94.2838 50.7051 94.2838 50.7051" stroke="#095696" stroke-width="1.41187" stroke-linecap="round"/>
<path d="M130.587 37.6385C130.427 37.1209 130.207 36.6577 129.925 36.2487C129.651 35.8334 129.318 35.4787 128.929 35.1848C128.545 34.8908 128.104 34.6704 127.606 34.5234C127.107 34.3701 126.564 34.2934 125.976 34.2934C124.922 34.2934 123.983 34.5586 123.158 35.0889C122.334 35.6193 121.686 36.3989 121.213 37.4277C120.746 38.4501 120.513 39.6961 120.513 41.1658C120.513 42.6483 120.746 43.9039 121.213 44.9327C121.679 45.9615 122.328 46.7443 123.158 47.281C123.989 47.8114 124.954 48.0766 126.053 48.0766C127.05 48.0766 127.913 47.8849 128.641 47.5015C129.376 47.1181 129.941 46.5749 130.338 45.872C130.734 45.1627 130.932 44.332 130.932 43.3799L131.737 43.5045H126.408V40.7249H134.373V43.0828C134.373 44.7634 134.015 46.2171 133.299 47.444C132.584 48.6708 131.6 49.6166 130.347 50.2811C129.095 50.9393 127.657 51.2684 126.034 51.2684C124.226 51.2684 122.638 50.8626 121.27 50.0511C119.909 49.2332 118.845 48.0734 118.078 46.5717C117.318 45.0637 116.938 43.2745 116.938 41.2041C116.938 39.6194 117.161 38.2041 117.609 36.958C118.062 35.712 118.695 34.6544 119.507 33.7854C120.318 32.9099 121.27 32.2454 122.363 31.7917C123.456 31.3316 124.644 31.1016 125.928 31.1016C127.015 31.1016 128.028 31.2613 128.967 31.5808C129.906 31.8939 130.74 32.3412 131.469 32.9227C132.203 33.5042 132.807 34.1943 133.28 34.9931C133.753 35.7918 134.063 36.6736 134.21 37.6385H130.587ZM141.895 51.2971C140.962 51.2971 140.121 51.131 139.374 50.7987C138.633 50.46 138.045 49.9616 137.61 49.3035C137.182 48.6453 136.968 47.8338 136.968 46.8689C136.968 46.0382 137.121 45.3513 137.428 44.8081C137.735 44.265 138.153 43.8304 138.684 43.5045C139.214 43.1787 139.812 42.9326 140.476 42.7665C141.147 42.594 141.84 42.4694 142.556 42.3927C143.419 42.3032 144.118 42.2234 144.655 42.1531C145.192 42.0764 145.582 41.9614 145.824 41.808C146.074 41.6483 146.198 41.4022 146.198 41.07V41.0125C146.198 40.2904 145.984 39.7313 145.556 39.3351C145.128 38.9389 144.511 38.7408 143.706 38.7408C142.856 38.7408 142.182 38.9261 141.684 39.2967C141.192 39.6674 140.859 40.1051 140.687 40.6099L137.447 40.1498C137.703 39.2552 138.125 38.5076 138.712 37.9069C139.3 37.2999 140.019 36.8462 140.869 36.5458C141.719 36.2391 142.658 36.0858 143.687 36.0858C144.396 36.0858 145.102 36.1688 145.805 36.335C146.508 36.5011 147.15 36.7759 147.732 37.1593C148.313 37.5363 148.78 38.0507 149.131 38.7025C149.489 39.3542 149.668 40.169 149.668 41.1466V51H146.332V48.9776H146.217C146.007 49.3865 145.709 49.7699 145.326 50.1278C144.949 50.4792 144.473 50.7636 143.898 50.9808C143.329 51.1917 142.661 51.2971 141.895 51.2971ZM142.796 48.7475C143.492 48.7475 144.096 48.6101 144.607 48.3354C145.118 48.0542 145.511 47.6836 145.786 47.2235C146.067 46.7634 146.208 46.2618 146.208 45.7187V43.9838C146.099 44.0733 145.914 44.1563 145.652 44.233C145.396 44.3097 145.109 44.3768 144.789 44.4343C144.47 44.4918 144.153 44.5429 143.84 44.5876C143.527 44.6324 143.256 44.6707 143.026 44.7027C142.508 44.773 142.045 44.888 141.636 45.0477C141.227 45.2075 140.904 45.4311 140.668 45.7187C140.431 45.9998 140.313 46.3641 140.313 46.8114C140.313 47.4504 140.546 47.9328 141.013 48.2587C141.479 48.5846 142.074 48.7475 142.796 48.7475ZM159.56 56.8277C158.314 56.8277 157.243 56.6583 156.349 56.3197C155.454 55.9874 154.735 55.5401 154.192 54.9778C153.649 54.4154 153.272 53.7924 153.061 53.1087L156.186 52.3515C156.326 52.639 156.531 52.9234 156.799 53.2045C157.068 53.4921 157.429 53.7285 157.882 53.9138C158.342 54.1055 158.921 54.2014 159.617 54.2014C160.601 54.2014 161.416 53.9618 162.061 53.4825C162.707 53.0097 163.03 52.2301 163.03 51.1438V48.3545H162.857C162.678 48.7124 162.416 49.0798 162.071 49.4568C161.732 49.8338 161.282 50.1501 160.72 50.4057C160.164 50.6613 159.464 50.7891 158.62 50.7891C157.489 50.7891 156.464 50.5239 155.544 49.9936C154.63 49.4568 153.901 48.6581 153.358 47.5973C152.822 46.5302 152.553 45.1947 152.553 43.5908C152.553 41.9741 152.822 40.6099 153.358 39.498C153.901 38.3798 154.633 37.5331 155.553 36.958C156.473 36.3765 157.499 36.0858 158.63 36.0858C159.493 36.0858 160.202 36.2327 160.758 36.5267C161.32 36.8142 161.767 37.1625 162.1 37.5714C162.432 37.974 162.684 38.3542 162.857 38.7121H163.049V36.2775H166.471V51.2396C166.471 52.4985 166.17 53.54 165.57 54.3643C164.969 55.1886 164.148 55.8053 163.106 56.2142C162.065 56.6232 160.882 56.8277 159.56 56.8277ZM159.589 48.067C160.323 48.067 160.95 47.8881 161.467 47.5302C161.985 47.1724 162.378 46.658 162.646 45.9871C162.915 45.3161 163.049 44.511 163.049 43.5716C163.049 42.6451 162.915 41.8336 162.646 41.1371C162.384 40.4405 161.994 39.9006 161.477 39.5172C160.966 39.1274 160.336 38.9325 159.589 38.9325C158.815 38.9325 158.17 39.1338 157.652 39.5364C157.135 39.9389 156.745 40.4917 156.483 41.1946C156.221 41.8911 156.09 42.6834 156.09 43.5716C156.09 44.4726 156.221 45.2618 156.483 45.9391C156.751 46.6101 157.144 47.1341 157.662 47.5111C158.186 47.8817 158.828 48.067 159.589 48.067ZM174.263 51.2971C173.33 51.2971 172.49 51.131 171.742 50.7987C171.001 50.46 170.413 49.9616 169.979 49.3035C169.551 48.6453 169.336 47.8338 169.336 46.8689C169.336 46.0382 169.49 45.3513 169.797 44.8081C170.103 44.265 170.522 43.8304 171.052 43.5045C171.583 43.1787 172.18 42.9326 172.845 42.7665C173.515 42.594 174.209 42.4694 174.924 42.3927C175.787 42.3032 176.487 42.2234 177.024 42.1531C177.56 42.0764 177.95 41.9614 178.193 41.808C178.442 41.6483 178.567 41.4022 178.567 41.07V41.0125C178.567 40.2904 178.353 39.7313 177.925 39.3351C177.496 38.9389 176.88 38.7408 176.075 38.7408C175.225 38.7408 174.551 38.9261 174.052 39.2967C173.56 39.6674 173.228 40.1051 173.055 40.6099L169.816 40.1498C170.071 39.2552 170.493 38.5076 171.081 37.9069C171.669 37.2999 172.388 36.8462 173.238 36.5458C174.087 36.2391 175.027 36.0858 176.056 36.0858C176.765 36.0858 177.471 36.1688 178.174 36.335C178.877 36.5011 179.519 36.7759 180.1 37.1593C180.682 37.5363 181.148 38.0507 181.5 38.7025C181.858 39.3542 182.037 40.169 182.037 41.1466V51H178.701V48.9776H178.586C178.375 49.3865 178.078 49.7699 177.695 50.1278C177.318 50.4792 176.841 50.7636 176.266 50.9808C175.698 51.1917 175.03 51.2971 174.263 51.2971ZM175.164 48.7475C175.861 48.7475 176.464 48.6101 176.976 48.3354C177.487 48.0542 177.88 47.6836 178.155 47.2235C178.436 46.7634 178.576 46.2618 178.576 45.7187V43.9838C178.468 44.0733 178.282 44.1563 178.02 44.233C177.765 44.3097 177.477 44.3768 177.158 44.4343C176.838 44.4918 176.522 44.5429 176.209 44.5876C175.896 44.6324 175.624 44.6707 175.394 44.7027C174.877 44.773 174.413 44.888 174.004 45.0477C173.595 45.2075 173.273 45.4311 173.036 45.7187C172.8 45.9998 172.682 46.3641 172.682 46.8114C172.682 47.4504 172.915 47.9328 173.381 48.2587C173.848 48.5846 174.442 48.7475 175.164 48.7475ZM188.995 31.37V51H185.525V31.37H188.995ZM206.064 51H199.412V31.37H206.198C208.147 31.37 209.821 31.7629 211.22 32.5489C212.626 33.3285 213.706 34.4499 214.46 35.9132C215.214 37.3765 215.591 39.1274 215.591 41.1658C215.591 43.2106 215.211 44.9679 214.451 46.4375C213.697 47.9072 212.607 49.0351 211.182 49.821C209.763 50.607 208.057 51 206.064 51ZM202.968 47.9232H205.891C207.259 47.9232 208.399 47.674 209.313 47.1756C210.227 46.6708 210.914 45.92 211.374 44.9231C211.834 43.9199 212.064 42.6675 212.064 41.1658C212.064 39.6642 211.834 38.4181 211.374 37.4277C210.914 36.4308 210.233 35.6864 209.332 35.1944C208.438 34.6959 207.326 34.4467 205.997 34.4467H202.968V47.9232ZM223.053 51.2971C222.12 51.2971 221.28 51.131 220.532 50.7987C219.791 50.46 219.203 49.9616 218.769 49.3035C218.34 48.6453 218.126 47.8338 218.126 46.8689C218.126 46.0382 218.28 45.3513 218.586 44.8081C218.893 44.265 219.312 43.8304 219.842 43.5045C220.372 43.1787 220.97 42.9326 221.634 42.7665C222.305 42.594 222.999 42.4694 223.714 42.3927C224.577 42.3032 225.277 42.2234 225.814 42.1531C226.35 42.0764 226.74 41.9614 226.983 41.808C227.232 41.6483 227.357 41.4022 227.357 41.07V41.0125C227.357 40.2904 227.143 39.7313 226.715 39.3351C226.286 38.9389 225.67 38.7408 224.865 38.7408C224.015 38.7408 223.341 38.9261 222.842 39.2967C222.35 39.6674 222.018 40.1051 221.845 40.6099L218.606 40.1498C218.861 39.2552 219.283 38.5076 219.871 37.9069C220.459 37.2999 221.178 36.8462 222.027 36.5458C222.877 36.2391 223.817 36.0858 224.845 36.0858C225.555 36.0858 226.261 36.1688 226.964 36.335C227.667 36.5011 228.309 36.7759 228.89 37.1593C229.472 37.5363 229.938 38.0507 230.29 38.7025C230.648 39.3542 230.826 40.169 230.826 41.1466V51H227.491V48.9776H227.376C227.165 49.3865 226.868 49.7699 226.484 50.1278C226.107 50.4792 225.631 50.7636 225.056 50.9808C224.488 51.1917 223.82 51.2971 223.053 51.2971ZM223.954 48.7475C224.651 48.7475 225.254 48.6101 225.766 48.3354C226.277 48.0542 226.67 47.6836 226.945 47.2235C227.226 46.7634 227.366 46.2618 227.366 45.7187V43.9838C227.258 44.0733 227.072 44.1563 226.81 44.233C226.555 44.3097 226.267 44.3768 225.948 44.4343C225.628 44.4918 225.312 44.5429 224.999 44.5876C224.686 44.6324 224.414 44.6707 224.184 44.7027C223.667 44.773 223.203 44.888 222.794 45.0477C222.385 45.2075 222.063 45.4311 221.826 45.7187C221.59 45.9998 221.472 46.3641 221.472 46.8114C221.472 47.4504 221.705 47.9328 222.171 48.2587C222.638 48.5846 223.232 48.7475 223.954 48.7475ZM241.773 36.2775V38.9613H233.069V36.2775H241.773ZM235.245 51V34.8876C235.245 33.8972 235.45 33.0729 235.859 32.4147C236.274 31.7566 236.83 31.2645 237.526 30.9386C238.223 30.6127 238.996 30.4498 239.846 30.4498C240.447 30.4498 240.98 30.4977 241.447 30.5936C241.913 30.6894 242.258 30.7757 242.482 30.8524L241.792 33.5362C241.645 33.4914 241.459 33.4467 241.236 33.402C241.012 33.3509 240.763 33.3253 240.488 33.3253C239.843 33.3253 239.386 33.4819 239.117 33.795C238.856 34.1017 238.725 34.5426 238.725 35.1177V51H235.245ZM251.842 36.2775V38.9613H243.378V36.2775H251.842ZM245.468 32.7502H248.937V46.5717C248.937 47.0382 249.008 47.396 249.148 47.6453C249.295 47.8881 249.487 48.0542 249.723 48.1437C249.96 48.2331 250.222 48.2779 250.509 48.2779C250.726 48.2779 250.925 48.2619 251.104 48.2299C251.289 48.198 251.429 48.1692 251.525 48.1437L252.11 50.8562C251.925 50.9201 251.659 50.9904 251.314 51.0671C250.976 51.1438 250.56 51.1885 250.068 51.2013C249.199 51.2268 248.417 51.0958 247.72 50.8083C247.023 50.5144 246.471 50.0607 246.062 49.4472C245.659 48.8338 245.461 48.067 245.468 47.1468V32.7502ZM258.98 51.2971C258.047 51.2971 257.207 51.131 256.459 50.7987C255.718 50.46 255.13 49.9616 254.695 49.3035C254.267 48.6453 254.053 47.8338 254.053 46.8689C254.053 46.0382 254.207 45.3513 254.513 44.8081C254.82 44.265 255.239 43.8304 255.769 43.5045C256.299 43.1787 256.897 42.9326 257.561 42.7665C258.232 42.594 258.926 42.4694 259.641 42.3927C260.504 42.3032 261.204 42.2234 261.74 42.1531C262.277 42.0764 262.667 41.9614 262.91 41.808C263.159 41.6483 263.284 41.4022 263.284 41.07V41.0125C263.284 40.2904 263.07 39.7313 262.641 39.3351C262.213 38.9389 261.597 38.7408 260.792 38.7408C259.942 38.7408 259.268 38.9261 258.769 39.2967C258.277 39.6674 257.945 40.1051 257.772 40.6099L254.533 40.1498C254.788 39.2552 255.21 38.5076 255.798 37.9069C256.386 37.2999 257.105 36.8462 257.954 36.5458C258.804 36.2391 259.744 36.0858 260.772 36.0858C261.482 36.0858 262.188 36.1688 262.891 36.335C263.594 36.5011 264.236 36.7759 264.817 37.1593C265.399 37.5363 265.865 38.0507 266.217 38.7025C266.574 39.3542 266.753 40.169 266.753 41.1466V51H263.418V48.9776H263.303C263.092 49.3865 262.795 49.7699 262.411 50.1278C262.034 50.4792 261.558 50.7636 260.983 50.9808C260.415 51.1917 259.747 51.2971 258.98 51.2971ZM259.881 48.7475C260.577 48.7475 261.181 48.6101 261.693 48.3354C262.204 48.0542 262.597 47.6836 262.871 47.2235C263.153 46.7634 263.293 46.2618 263.293 45.7187V43.9838C263.185 44.0733 262.999 44.1563 262.737 44.233C262.482 44.3097 262.194 44.3768 261.875 44.4343C261.555 44.4918 261.239 44.5429 260.926 44.5876C260.613 44.6324 260.341 44.6707 260.111 44.7027C259.593 44.773 259.13 44.888 258.721 45.0477C258.312 45.2075 257.99 45.4311 257.753 45.7187C257.517 45.9998 257.398 46.3641 257.398 46.8114C257.398 47.4504 257.632 47.9328 258.098 48.2587C258.565 48.5846 259.159 48.7475 259.881 48.7475ZM270.242 51V36.2775H273.607V38.7312H273.76C274.028 37.8814 274.488 37.2264 275.14 36.7663C275.798 36.2998 276.549 36.0666 277.393 36.0666C277.584 36.0666 277.798 36.0762 278.035 36.0954C278.278 36.1081 278.479 36.1305 278.639 36.1624V39.3542C278.492 39.3031 278.259 39.2584 277.939 39.2201C277.626 39.1753 277.322 39.153 277.028 39.153C276.396 39.153 275.827 39.2903 275.322 39.5651C274.824 39.8335 274.431 40.2073 274.143 40.6866C273.856 41.1658 273.712 41.7185 273.712 42.3448V51H270.242Z" fill="#790000"/>
</g>
<defs>
<filter id="filter0_d_3496_2025" x="0" y="0" width="346" height="89" filterUnits="userSpaceOnUse" color-interpolation-filters="sRGB">
<feFlood flood-opacity="0" result="BackgroundImageFix"/>
<feColorMatrix in="SourceAlpha" type="matrix" values="0 0 0 0 0 0 0 0 0 0 0 0 0 0 0 0 0 0 127 0" result="hardAlpha"/>
<feOffset dy="3"/>
<feGaussianBlur stdDeviation="3"/>
<feComposite in2="hardAlpha" operator="out"/>
<feColorMatrix type="matrix" values="0 0 0 0 0 0 0 0 0 0 0 0 0 0 0 0 0 0 0.25 0"/>
<feBlend mode="normal" in2="BackgroundImageFix" result="effect1_dropShadow_3496_2025"/>
<feBlend mode="normal" in="SourceGraphic" in2="effect1_dropShadow_3496_2025" result="shape"/>
</filter>
<linearGradient id="paint0_linear_3496_2025" x1="95.0865" y1="28.9901" x2="113.182" y2="22.0411" gradientUnits="userSpaceOnUse">
<stop stop-color="#095696"/>
<stop offset="0.5" stop-color="#3BAFDA"/>
<stop offset="1" stop-color="#F0F9FF"/>
</linearGradient>
<linearGradient id="paint1_linear_3496_2025" x1="93.5022" y1="26.1231" x2="98.8669" y2="15.8697" gradientUnits="userSpaceOnUse">
<stop stop-color="#095696"/>
<stop offset="0.5" stop-color="#3BAFDA"/>
<stop offset="1" stop-color="#F0F9FF"/>
</linearGradient>
</defs>
</svg>
