<svg width="346" height="89" viewBox="0 0 346 89" fill="none" xmlns="http://www.w3.org/2000/svg">
<g filter="url(#filter0_d_3496_1967)">
<rect x="6" y="3" width="334" height="77" rx="38.5" fill="white" shape-rendering="crispEdges"/>
<path d="M78.9005 36.7643C77.7019 36.859 76.4007 37.2683 75.4911 37.6085C74.7776 37.8754 74.3756 38.6073 74.4698 39.3633L76.6343 56.7256C76.9207 59.0225 78.873 60.7465 81.1877 60.7465H95.8436C98.161 60.7465 100.115 59.0186 100.398 56.7185L102.407 40.3942C102.493 39.6932 102.154 39.0088 101.518 38.7018C100.207 38.0687 97.8685 37.1062 95.8429 37.1449C92.6034 37.207 90.7877 39.1754 87.5482 39.2386C84.0008 39.3078 82.4389 36.4845 78.9005 36.7643Z" fill="#3BAFDA"/>
<path d="M88.4312 24.5854C92.6592 24.5855 96.5105 24.9047 99.3247 25.4282C100.724 25.6886 101.912 26.0076 102.771 26.3853C103.197 26.5727 103.592 26.7956 103.894 27.0698C104.193 27.3422 104.491 27.7523 104.491 28.2925C104.491 28.3223 104.486 28.3514 104.484 28.3804L104.487 28.3813L104.479 28.4507C104.477 28.4671 104.476 28.4834 104.474 28.4995L101.652 56.1333C101.312 59.4652 98.5049 61.9992 95.1558 61.9995H81.856C78.5199 61.9995 75.7206 59.4853 75.3638 56.1685L72.3911 28.5259C72.3891 28.5135 72.386 28.5013 72.3843 28.4888L72.3774 28.4038L72.3765 28.3862V28.3853L72.3706 28.2925L72.3843 28.0952C72.4454 27.6513 72.7062 27.3081 72.9683 27.0698C73.2699 26.7956 73.6651 26.5727 74.0913 26.3853C74.9501 26.0076 76.138 25.6886 77.5376 25.4282C80.3519 24.9047 84.2031 24.5854 88.4312 24.5854ZM102.516 30.3032C101.683 30.6348 100.591 30.9201 99.3247 31.1558C96.5105 31.6793 92.6592 31.9985 88.4312 31.9985C84.2031 31.9985 80.3519 31.6793 77.5376 31.1558C76.2769 30.9212 75.1882 30.6378 74.3569 30.3081L77.1177 55.979C77.3779 58.3995 79.4215 60.2349 81.856 60.2349H95.1558C97.5995 60.2345 99.6475 58.3857 99.896 55.9546L102.516 30.3032ZM88.4312 26.3511C84.2772 26.3511 80.5387 26.6642 77.8599 27.1626C76.5135 27.4131 75.4785 27.7026 74.8013 28.0005C74.5527 28.1098 74.3783 28.2095 74.2622 28.2915C74.3783 28.3735 74.5527 28.4741 74.8013 28.5835C75.4785 28.8813 76.5136 29.1709 77.8599 29.4214C80.5387 29.9197 84.2773 30.2329 88.4312 30.2329C92.5848 30.2329 96.3227 29.9197 99.0015 29.4214C100.348 29.1709 101.384 28.8814 102.061 28.5835C102.309 28.4742 102.483 28.3735 102.599 28.2915C102.483 28.2096 102.309 28.1096 102.061 28.0005C101.384 27.7026 100.348 27.4131 99.0015 27.1626C96.3227 26.6643 92.5848 26.3511 88.4312 26.3511Z" fill="#095696"/>
<path d="M92.5669 29.2083C92.5669 29.2083 95.0439 22.114 98.3294 18.8561C99.3612 17.8329 100.783 16.8803 102.222 16.0644C105.088 14.4389 108.444 16.4817 108.829 19.7543L108.958 20.8463C109.436 24.8997 104.512 27.3957 100.434 27.2321C97.2685 27.1052 92.5669 29.2083 92.5669 29.2083Z" fill="url(#paint0_linear_3496_1967)"/>
<path d="M91.0795 26.2285C91.0795 26.2285 89.3899 22.0731 89.5762 19.3172C89.6347 18.4517 89.8958 17.4639 90.2185 16.5306C90.8612 14.6713 93.1703 14.2625 94.6345 15.5764L95.123 16.0149C96.9364 17.6422 95.7154 20.7033 93.8239 22.2392C92.3559 23.4312 91.0795 26.2285 91.0795 26.2285Z" fill="url(#paint1_linear_3496_1967)"/>
<path d="M81.4622 44.1711C81.4622 44.1711 82.1514 45.037 82.761 45.037C83.3706 45.037 84.0598 44.1711 84.0598 44.1711" stroke="#095696" stroke-width="0.865867" stroke-linecap="round"/>
<path d="M92.7185 44.1711C92.7185 44.1711 93.4077 45.037 94.0173 45.037C94.6269 45.037 95.3161 44.1711 95.3161 44.1711" stroke="#095696" stroke-width="0.865867" stroke-linecap="round"/>
<path d="M85.0775 50.7051C85.0775 50.7051 86.8895 49.1167 88.4306 49.1167C89.9718 49.1167 91.7838 50.7051 91.7838 50.7051" stroke="#095696" stroke-width="1.41187" stroke-linecap="round"/>
<path d="M128.087 37.6385C127.927 37.1209 127.707 36.6577 127.425 36.2487C127.151 35.8334 126.818 35.4787 126.429 35.1848C126.045 34.8908 125.604 34.6704 125.106 34.5234C124.607 34.3701 124.064 34.2934 123.476 34.2934C122.422 34.2934 121.483 34.5586 120.658 35.0889C119.834 35.6193 119.186 36.3989 118.713 37.4277C118.246 38.4501 118.013 39.6961 118.013 41.1658C118.013 42.6483 118.246 43.9039 118.713 44.9327C119.179 45.9615 119.828 46.7443 120.658 47.281C121.489 47.8114 122.454 48.0766 123.553 48.0766C124.55 48.0766 125.413 47.8849 126.141 47.5015C126.876 47.1181 127.441 46.5749 127.838 45.872C128.234 45.1627 128.432 44.332 128.432 43.3799L129.237 43.5045H123.908V40.7249H131.873V43.0828C131.873 44.7634 131.515 46.2171 130.799 47.444C130.084 48.6708 129.1 49.6166 127.847 50.2811C126.595 50.9393 125.157 51.2684 123.534 51.2684C121.726 51.2684 120.138 50.8626 118.77 50.0511C117.409 49.2332 116.345 48.0734 115.578 46.5717C114.818 45.0637 114.438 43.2745 114.438 41.2041C114.438 39.6194 114.661 38.2041 115.109 36.958C115.562 35.712 116.195 34.6544 117.007 33.7854C117.818 32.9099 118.77 32.2454 119.863 31.7917C120.956 31.3316 122.144 31.1016 123.428 31.1016C124.515 31.1016 125.528 31.2613 126.467 31.5808C127.406 31.8939 128.24 32.3412 128.969 32.9227C129.703 33.5042 130.307 34.1943 130.78 34.9931C131.253 35.7918 131.563 36.6736 131.71 37.6385H128.087ZM139.395 51.2971C138.462 51.2971 137.621 51.131 136.874 50.7987C136.133 50.46 135.545 49.9616 135.11 49.3035C134.682 48.6453 134.468 47.8338 134.468 46.8689C134.468 46.0382 134.621 45.3513 134.928 44.8081C135.235 44.265 135.653 43.8304 136.184 43.5045C136.714 43.1787 137.312 42.9326 137.976 42.7665C138.647 42.594 139.34 42.4694 140.056 42.3927C140.919 42.3032 141.618 42.2234 142.155 42.1531C142.692 42.0764 143.082 41.9614 143.324 41.808C143.574 41.6483 143.698 41.4022 143.698 41.07V41.0125C143.698 40.2904 143.484 39.7313 143.056 39.3351C142.628 38.9389 142.011 38.7408 141.206 38.7408C140.356 38.7408 139.682 38.9261 139.184 39.2967C138.692 39.6674 138.359 40.1051 138.187 40.6099L134.947 40.1498C135.203 39.2552 135.625 38.5076 136.212 37.9069C136.8 37.2999 137.519 36.8462 138.369 36.5458C139.219 36.2391 140.158 36.0858 141.187 36.0858C141.896 36.0858 142.602 36.1688 143.305 36.335C144.008 36.5011 144.65 36.7759 145.232 37.1593C145.813 37.5363 146.28 38.0507 146.631 38.7025C146.989 39.3542 147.168 40.169 147.168 41.1466V51H143.832V48.9776H143.717C143.507 49.3865 143.209 49.7699 142.826 50.1278C142.449 50.4792 141.973 50.7636 141.398 50.9808C140.829 51.1917 140.161 51.2971 139.395 51.2971ZM140.296 48.7475C140.992 48.7475 141.596 48.6101 142.107 48.3354C142.618 48.0542 143.011 47.6836 143.286 47.2235C143.567 46.7634 143.708 46.2618 143.708 45.7187V43.9838C143.599 44.0733 143.414 44.1563 143.152 44.233C142.896 44.3097 142.609 44.3768 142.289 44.4343C141.97 44.4918 141.653 44.5429 141.34 44.5876C141.027 44.6324 140.756 44.6707 140.526 44.7027C140.008 44.773 139.545 44.888 139.136 45.0477C138.727 45.2075 138.404 45.4311 138.168 45.7187C137.931 45.9998 137.813 46.3641 137.813 46.8114C137.813 47.4504 138.046 47.9328 138.513 48.2587C138.979 48.5846 139.574 48.7475 140.296 48.7475ZM157.06 56.8277C155.814 56.8277 154.743 56.6583 153.849 56.3197C152.954 55.9874 152.235 55.5401 151.692 54.9778C151.149 54.4154 150.772 53.7924 150.561 53.1087L153.686 52.3515C153.826 52.639 154.031 52.9234 154.299 53.2045C154.568 53.4921 154.929 53.7285 155.382 53.9138C155.842 54.1055 156.421 54.2014 157.117 54.2014C158.101 54.2014 158.916 53.9618 159.561 53.4825C160.207 53.0097 160.53 52.2301 160.53 51.1438V48.3545H160.357C160.178 48.7124 159.916 49.0798 159.571 49.4568C159.232 49.8338 158.782 50.1501 158.22 50.4057C157.664 50.6613 156.964 50.7891 156.12 50.7891C154.989 50.7891 153.964 50.5239 153.044 49.9936C152.13 49.4568 151.401 48.6581 150.858 47.5973C150.322 46.5302 150.053 45.1947 150.053 43.5908C150.053 41.9741 150.322 40.6099 150.858 39.498C151.401 38.3798 152.133 37.5331 153.053 36.958C153.973 36.3765 154.999 36.0858 156.13 36.0858C156.993 36.0858 157.702 36.2327 158.258 36.5267C158.82 36.8142 159.267 37.1625 159.6 37.5714C159.932 37.974 160.184 38.3542 160.357 38.7121H160.549V36.2775H163.971V51.2396C163.971 52.4985 163.67 53.54 163.07 54.3643C162.469 55.1886 161.648 55.8053 160.606 56.2142C159.565 56.6232 158.382 56.8277 157.06 56.8277ZM157.089 48.067C157.823 48.067 158.45 47.8881 158.967 47.5302C159.485 47.1724 159.878 46.658 160.146 45.9871C160.415 45.3161 160.549 44.511 160.549 43.5716C160.549 42.6451 160.415 41.8336 160.146 41.1371C159.884 40.4405 159.494 39.9006 158.977 39.5172C158.466 39.1274 157.836 38.9325 157.089 38.9325C156.315 38.9325 155.67 39.1338 155.152 39.5364C154.635 39.9389 154.245 40.4917 153.983 41.1946C153.721 41.8911 153.59 42.6834 153.59 43.5716C153.59 44.4726 153.721 45.2618 153.983 45.9391C154.251 46.6101 154.644 47.1341 155.162 47.5111C155.686 47.8817 156.328 48.067 157.089 48.067ZM171.763 51.2971C170.83 51.2971 169.99 51.131 169.242 50.7987C168.501 50.46 167.913 49.9616 167.479 49.3035C167.051 48.6453 166.836 47.8338 166.836 46.8689C166.836 46.0382 166.99 45.3513 167.297 44.8081C167.603 44.265 168.022 43.8304 168.552 43.5045C169.083 43.1787 169.68 42.9326 170.345 42.7665C171.015 42.594 171.709 42.4694 172.424 42.3927C173.287 42.3032 173.987 42.2234 174.524 42.1531C175.06 42.0764 175.45 41.9614 175.693 41.808C175.942 41.6483 176.067 41.4022 176.067 41.07V41.0125C176.067 40.2904 175.853 39.7313 175.425 39.3351C174.996 38.9389 174.38 38.7408 173.575 38.7408C172.725 38.7408 172.051 38.9261 171.552 39.2967C171.06 39.6674 170.728 40.1051 170.555 40.6099L167.316 40.1498C167.571 39.2552 167.993 38.5076 168.581 37.9069C169.169 37.2999 169.888 36.8462 170.738 36.5458C171.587 36.2391 172.527 36.0858 173.556 36.0858C174.265 36.0858 174.971 36.1688 175.674 36.335C176.377 36.5011 177.019 36.7759 177.6 37.1593C178.182 37.5363 178.648 38.0507 179 38.7025C179.358 39.3542 179.537 40.169 179.537 41.1466V51H176.201V48.9776H176.086C175.875 49.3865 175.578 49.7699 175.195 50.1278C174.818 50.4792 174.341 50.7636 173.766 50.9808C173.198 51.1917 172.53 51.2971 171.763 51.2971ZM172.664 48.7475C173.361 48.7475 173.964 48.6101 174.476 48.3354C174.987 48.0542 175.38 47.6836 175.655 47.2235C175.936 46.7634 176.076 46.2618 176.076 45.7187V43.9838C175.968 44.0733 175.782 44.1563 175.52 44.233C175.265 44.3097 174.977 44.3768 174.658 44.4343C174.338 44.4918 174.022 44.5429 173.709 44.5876C173.396 44.6324 173.124 44.6707 172.894 44.7027C172.377 44.773 171.913 44.888 171.504 45.0477C171.095 45.2075 170.773 45.4311 170.536 45.7187C170.3 45.9998 170.182 46.3641 170.182 46.8114C170.182 47.4504 170.415 47.9328 170.881 48.2587C171.348 48.5846 171.942 48.7475 172.664 48.7475ZM186.495 31.37V51H183.025V31.37H186.495ZM196.912 31.37H201.263L207.091 45.5941H207.321L213.149 31.37H217.5V51H214.088V37.5139H213.906L208.481 50.9425H205.931L200.506 37.4852H200.324V51H196.912V31.37ZM225.456 51.2971C224.523 51.2971 223.683 51.131 222.935 50.7987C222.194 50.46 221.606 49.9616 221.171 49.3035C220.743 48.6453 220.529 47.8338 220.529 46.8689C220.529 46.0382 220.682 45.3513 220.989 44.8081C221.296 44.265 221.714 43.8304 222.245 43.5045C222.775 43.1787 223.373 42.9326 224.037 42.7665C224.708 42.594 225.401 42.4694 226.117 42.3927C226.98 42.3032 227.679 42.2234 228.216 42.1531C228.753 42.0764 229.143 41.9614 229.386 41.808C229.635 41.6483 229.759 41.4022 229.759 41.07V41.0125C229.759 40.2904 229.545 39.7313 229.117 39.3351C228.689 38.9389 228.072 38.7408 227.267 38.7408C226.417 38.7408 225.743 38.9261 225.245 39.2967C224.753 39.6674 224.421 40.1051 224.248 40.6099L221.008 40.1498C221.264 39.2552 221.686 38.5076 222.274 37.9069C222.861 37.2999 223.58 36.8462 224.43 36.5458C225.28 36.2391 226.219 36.0858 227.248 36.0858C227.957 36.0858 228.664 36.1688 229.366 36.335C230.069 36.5011 230.712 36.7759 231.293 37.1593C231.875 37.5363 232.341 38.0507 232.692 38.7025C233.05 39.3542 233.229 40.169 233.229 41.1466V51H229.894V48.9776H229.779C229.568 49.3865 229.271 49.7699 228.887 50.1278C228.51 50.4792 228.034 50.7636 227.459 50.9808C226.89 51.1917 226.223 51.2971 225.456 51.2971ZM226.357 48.7475C227.053 48.7475 227.657 48.6101 228.168 48.3354C228.68 48.0542 229.073 47.6836 229.347 47.2235C229.628 46.7634 229.769 46.2618 229.769 45.7187V43.9838C229.66 44.0733 229.475 44.1563 229.213 44.233C228.957 44.3097 228.67 44.3768 228.35 44.4343C228.031 44.4918 227.715 44.5429 227.402 44.5876C227.088 44.6324 226.817 44.6707 226.587 44.7027C226.069 44.773 225.606 44.888 225.197 45.0477C224.788 45.2075 224.465 45.4311 224.229 45.7187C223.992 45.9998 223.874 46.3641 223.874 46.8114C223.874 47.4504 224.107 47.9328 224.574 48.2587C225.04 48.5846 225.635 48.7475 226.357 48.7475ZM248.354 40.169L245.191 40.514C245.102 40.1945 244.945 39.8942 244.722 39.613C244.504 39.3319 244.21 39.105 243.84 38.9325C243.469 38.76 243.015 38.6737 242.479 38.6737C241.757 38.6737 241.15 38.8303 240.658 39.1434C240.172 39.4565 239.932 39.8623 239.939 40.3607C239.932 40.7888 240.089 41.1371 240.408 41.4054C240.734 41.6738 241.271 41.8943 242.019 42.0668L244.53 42.6036C245.923 42.9039 246.958 43.3799 247.635 44.0317C248.319 44.6835 248.664 45.5366 248.671 46.5909C248.664 47.5175 248.393 48.3354 247.856 49.0447C247.326 49.7476 246.587 50.2971 245.642 50.6933C244.696 51.0895 243.61 51.2875 242.383 51.2875C240.581 51.2875 239.13 50.9105 238.031 50.1565C236.932 49.3961 236.277 48.3386 236.066 46.9839L239.45 46.658C239.603 47.3226 239.929 47.8242 240.428 48.1628C240.926 48.5015 241.575 48.6708 242.373 48.6708C243.198 48.6708 243.859 48.5015 244.357 48.1628C244.862 47.8242 245.115 47.4056 245.115 46.9072C245.115 46.4855 244.952 46.1372 244.626 45.8625C244.306 45.5877 243.808 45.3768 243.13 45.2298L240.619 44.7027C239.207 44.4087 238.162 43.9135 237.485 43.217C236.808 42.5141 236.472 41.6259 236.479 40.5524C236.472 39.645 236.718 38.859 237.217 38.1945C237.721 37.5235 238.421 37.0059 239.316 36.6417C240.217 36.2711 241.255 36.0858 242.431 36.0858C244.156 36.0858 245.514 36.4532 246.504 37.188C247.501 37.9229 248.118 38.9165 248.354 40.169ZM260.915 44.8081V36.2775H264.385V51H261.021V48.3833H260.867C260.535 49.2076 259.989 49.8818 259.228 50.4057C258.474 50.9297 257.545 51.1917 256.439 51.1917C255.474 51.1917 254.621 50.9776 253.88 50.5495C253.145 50.115 252.57 49.4856 252.155 48.6613C251.739 47.8306 251.532 46.8273 251.532 45.6516V36.2775H255.001V45.1148C255.001 46.0478 255.257 46.789 255.768 47.3385C256.279 47.8881 256.95 48.1628 257.781 48.1628C258.292 48.1628 258.788 48.0382 259.267 47.789C259.746 47.5398 260.139 47.1692 260.446 46.6772C260.759 46.1788 260.915 45.5557 260.915 44.8081ZM271.116 46.38L271.107 42.1914H271.663L276.953 36.2775H281.008L274.5 43.5237H273.781L271.116 46.38ZM267.953 51V31.37H271.423V51H267.953ZM277.193 51L272.401 44.3001L274.739 41.8559L281.343 51H277.193Z" fill="#790000"/>
</g>
<defs>
<filter id="filter0_d_3496_1967" x="0" y="0" width="346" height="89" filterUnits="userSpaceOnUse" color-interpolation-filters="sRGB">
<feFlood flood-opacity="0" result="BackgroundImageFix"/>
<feColorMatrix in="SourceAlpha" type="matrix" values="0 0 0 0 0 0 0 0 0 0 0 0 0 0 0 0 0 0 127 0" result="hardAlpha"/>
<feOffset dy="3"/>
<feGaussianBlur stdDeviation="3"/>
<feComposite in2="hardAlpha" operator="out"/>
<feColorMatrix type="matrix" values="0 0 0 0 0 0 0 0 0 0 0 0 0 0 0 0 0 0 0.25 0"/>
<feBlend mode="normal" in2="BackgroundImageFix" result="effect1_dropShadow_3496_1967"/>
<feBlend mode="normal" in="SourceGraphic" in2="effect1_dropShadow_3496_1967" result="shape"/>
</filter>
<linearGradient id="paint0_linear_3496_1967" x1="92.5865" y1="28.9901" x2="110.682" y2="22.0411" gradientUnits="userSpaceOnUse">
<stop stop-color="#095696"/>
<stop offset="0.5" stop-color="#3BAFDA"/>
<stop offset="1" stop-color="#F0F9FF"/>
</linearGradient>
<linearGradient id="paint1_linear_3496_1967" x1="91.0022" y1="26.1231" x2="96.3669" y2="15.8697" gradientUnits="userSpaceOnUse">
<stop stop-color="#095696"/>
<stop offset="0.5" stop-color="#3BAFDA"/>
<stop offset="1" stop-color="#F0F9FF"/>
</linearGradient>
</defs>
</svg>
