<svg width="346" height="89" viewBox="0 0 346 89" fill="none" xmlns="http://www.w3.org/2000/svg">
<g filter="url(#filter0_d_3487_5131)">
<rect x="6" y="3" width="334" height="77" rx="38.5" fill="white" shape-rendering="crispEdges"/>
<g clip-path="url(#clip0_3487_5131)">
<path d="M55.0307 39.3596C53.8543 39.6077 52.6165 40.1809 51.7582 40.6352C51.0849 40.9916 50.7803 41.7691 50.971 42.5067L55.3496 59.4467C55.9289 61.6877 58.0866 63.1464 60.3821 62.8489L74.9164 60.9647C77.2146 60.6668 78.9299 58.702 78.915 56.3846L78.8089 39.9375C78.8044 39.2312 78.3802 38.5961 77.7099 38.3734C76.3279 37.9142 73.8854 37.2602 71.8815 37.5591C68.6769 38.037 67.1293 40.2225 63.9248 40.7017C60.4157 41.2263 58.5038 38.6273 55.0307 39.3596Z" fill="#3BAFDA"/>
<path d="M62.9167 26.0566C67.1096 25.5131 70.97 25.3345 73.8282 25.492C75.2496 25.5703 76.4688 25.7338 77.3689 25.998C77.8155 26.1291 78.2363 26.2994 78.5706 26.5325C78.9026 26.7641 79.2501 27.1326 79.3195 27.6683C79.3233 27.6978 79.3221 27.7274 79.3241 27.7563L79.3271 27.7569L79.3282 27.8267C79.3286 27.8432 79.3299 27.8595 79.3297 27.8758L80.0834 55.6431C80.1742 58.991 77.7166 61.8648 74.3953 62.2957L61.2059 64.0055C57.8976 64.4344 54.7982 62.3009 54.018 59.0575L47.5163 32.0264C47.5127 32.0144 47.5081 32.0027 47.5047 31.9905L47.487 31.9071L47.4838 31.8898L47.4837 31.8889L47.4659 31.7976L47.4541 31.6002C47.4577 31.1521 47.6722 30.7783 47.9015 30.5083C48.1654 30.1975 48.5286 29.9257 48.9272 29.685C49.7303 29.2001 50.8673 28.731 52.2218 28.2929C54.9455 27.4119 58.7237 26.6002 62.9167 26.0566ZM77.6198 29.9162C76.8367 30.3521 75.7901 30.7755 74.5645 31.172C71.8409 32.053 68.0627 32.8646 63.8697 33.4082C59.6767 33.9517 55.8164 34.1303 52.9582 33.9729C51.6778 33.9023 50.5617 33.7612 49.6949 33.5411L55.733 58.6441C56.3022 61.0111 58.5648 62.5685 60.979 62.2555L74.1685 60.5457C76.5919 60.2312 78.3852 58.1345 78.3191 55.6916L77.6198 29.9162ZM63.1436 27.8076C59.0242 28.3416 55.357 29.1328 52.7644 29.9714C51.4614 30.3929 50.4722 30.8131 49.8389 31.1956C49.6065 31.3359 49.4464 31.4572 49.3417 31.5535C49.4674 31.6199 49.6532 31.6972 49.9139 31.7737C50.6237 31.982 51.6875 32.1361 53.0548 32.2115C55.7755 32.3613 59.5233 32.1912 63.6427 31.6572C67.7619 31.1232 71.4285 30.3321 74.021 29.4935C75.3241 29.072 76.3141 28.6517 76.9474 28.2693C77.1797 28.129 77.3389 28.0067 77.4435 27.9105C77.3179 27.8443 77.1323 27.7674 76.8725 27.6911C76.1626 27.4828 75.0981 27.3288 73.7306 27.2535C71.01 27.1037 67.2628 27.2736 63.1436 27.8076Z" fill="#095696"/>
<path d="M67.6124 30.1093C67.6124 30.1093 69.1569 22.7555 71.9962 19.1022C72.8879 17.9548 74.1756 16.8274 75.4976 15.8332C78.1313 13.8527 81.7213 15.4472 82.5246 18.6431L82.7926 19.7095C83.7875 23.6678 79.225 26.7761 75.1597 27.1382C72.0046 27.4192 67.6124 30.1093 67.6124 30.1093Z" fill="url(#paint0_linear_3487_5131)"/>
<path d="M65.7544 27.3455C65.7544 27.3455 63.5446 23.4417 63.375 20.6847C63.3218 19.8189 63.4537 18.8057 63.6537 17.8387C64.0521 15.9122 66.2895 15.21 67.9104 16.3247L68.4512 16.6967C70.4588 18.0774 69.6414 21.2701 67.9631 23.0364C66.6605 24.4073 65.7544 27.3455 65.7544 27.3455Z" fill="url(#paint1_linear_3487_5131)"/>
<path d="M70.3178 49.8C70.4611 50.9049 68.9027 53.7614 66.8872 54.0226C64.8716 54.2839 62.3036 51.9624 62.1604 50.8575C62.0171 49.7526 64.3529 50.2827 66.3685 50.0214C68.384 49.7601 70.1746 48.6951 70.3178 49.8Z" fill="#095696"/>
<path d="M69.1809 49.4488C69.2239 49.7803 67.2927 51.1324 66.2319 51.2699C65.1711 51.4074 63.4278 50.5316 63.3848 50.2002C63.3418 49.8687 65.0142 50.1973 66.075 50.0598C67.1358 49.9223 69.1379 49.1173 69.1809 49.4488Z" fill="white"/>
<path d="M69.5175 52.0454C69.5605 52.3769 68.2109 53.851 67.1501 53.9886C65.4327 54.2112 63.9777 53.0901 63.7352 52.9033C63.6922 52.5718 65.167 52.0628 66.2278 51.9253C67.2886 51.7878 69.4745 51.7139 69.5175 52.0454Z" fill="#0064B8"/>
<path d="M58.6348 47.2344C58.6348 47.2344 59.2069 46.2871 59.8115 46.2088C60.416 46.1304 61.2108 46.9005 61.2108 46.9005" stroke="#095696" stroke-width="0.865867" stroke-linecap="round"/>
<path d="M69.7976 45.7873C69.7976 45.7873 70.3698 44.84 70.9743 44.7616C71.5788 44.6832 72.3736 45.4533 72.3736 45.4533" stroke="#095696" stroke-width="0.865867" stroke-linecap="round"/>
</g>
<path d="M102.508 36.7663C102.419 35.9292 102.042 35.2774 101.377 34.811C100.719 34.3445 99.8626 34.1113 98.8083 34.1113C98.067 34.1113 97.4312 34.2231 96.9008 34.4467C96.3705 34.6704 95.9647 34.9739 95.6836 35.3573C95.4024 35.7407 95.2586 36.1784 95.2522 36.6705C95.2522 37.0794 95.3449 37.4341 95.5302 37.7344C95.7219 38.0347 95.9807 38.2903 96.3066 38.5012C96.6325 38.7057 96.9935 38.8782 97.3897 39.0188C97.7859 39.1594 98.1852 39.2776 98.5878 39.3734L100.428 39.8335C101.169 40.006 101.882 40.2393 102.566 40.5332C103.256 40.8271 103.872 41.1978 104.415 41.6451C104.965 42.0924 105.4 42.6323 105.719 43.2649C106.039 43.8975 106.198 44.6388 106.198 45.4886C106.198 46.6388 105.904 47.6516 105.316 48.5271C104.729 49.3961 103.879 50.0766 102.767 50.5687C101.661 51.0543 100.323 51.2971 98.7507 51.2971C97.2235 51.2971 95.8976 51.0607 94.773 50.5878C93.6547 50.115 92.7793 49.4249 92.1467 48.5175C91.5205 47.6101 91.1818 46.5046 91.1307 45.2011H94.6292C94.6803 45.8848 94.8912 46.4535 95.2618 46.9072C95.6324 47.3609 96.1149 47.6996 96.7091 47.9232C97.3098 48.1469 97.9808 48.2587 98.722 48.2587C99.4952 48.2587 100.173 48.1437 100.754 47.9136C101.342 47.6772 101.802 47.3513 102.134 46.936C102.467 46.5142 102.636 46.0222 102.642 45.4599C102.636 44.9487 102.486 44.5269 102.192 44.1947C101.898 43.856 101.486 43.5748 100.955 43.3512C100.431 43.1211 99.8179 42.9167 99.115 42.7377L96.8817 42.1626C95.265 41.7473 93.987 41.1179 93.0477 40.2744C92.1147 39.4245 91.6483 38.2967 91.6483 36.8909C91.6483 35.7343 91.9614 34.7215 92.5876 33.8525C93.2202 32.9834 94.0797 32.3093 95.166 31.83C96.2523 31.3444 97.4823 31.1016 98.8562 31.1016C100.249 31.1016 101.47 31.3444 102.518 31.83C103.572 32.3093 104.399 32.977 105 33.8333C105.601 34.6832 105.911 35.6608 105.93 36.7663H102.508ZM115.733 51.2875C114.257 51.2875 112.982 50.9808 111.909 50.3674C110.841 49.7476 110.02 48.8721 109.445 47.7411C108.87 46.6037 108.583 45.265 108.583 43.725C108.583 42.2106 108.87 40.8815 109.445 39.7376C110.027 38.5875 110.838 37.6929 111.88 37.0539C112.921 36.4085 114.145 36.0858 115.551 36.0858C116.458 36.0858 117.314 36.2327 118.12 36.5267C118.931 36.8142 119.647 37.2615 120.267 37.8686C120.893 38.4756 121.385 39.2488 121.743 40.1881C122.101 41.1211 122.279 42.2329 122.279 43.5237V44.5876H110.212V42.2489H118.953C118.947 41.5844 118.803 40.9933 118.522 40.4757C118.241 39.9517 117.848 39.5396 117.343 39.2392C116.845 38.9389 116.263 38.7887 115.599 38.7887C114.889 38.7887 114.266 38.9613 113.73 39.3063C113.193 39.645 112.774 40.0923 112.474 40.6482C112.18 41.1978 112.03 41.8016 112.024 42.4598V44.5014C112.024 45.3576 112.18 46.0925 112.493 46.7059C112.806 47.313 113.244 47.7794 113.806 48.1053C114.369 48.4248 115.027 48.5846 115.781 48.5846C116.286 48.5846 116.743 48.5143 117.152 48.3737C117.56 48.2267 117.915 48.0127 118.215 47.7315C118.516 47.4504 118.743 47.1021 118.896 46.6868L122.136 47.051C121.931 47.9072 121.541 48.6549 120.966 49.2939C120.398 49.9265 119.669 50.4185 118.781 50.77C117.893 51.115 116.877 51.2875 115.733 51.2875ZM128.685 31.37V51H125.215V31.37H128.685ZM136.489 51.2971C135.556 51.2971 134.716 51.131 133.968 50.7987C133.227 50.46 132.639 49.9616 132.205 49.3035C131.777 48.6453 131.563 47.8338 131.563 46.8689C131.563 46.0382 131.716 45.3513 132.023 44.8081C132.329 44.265 132.748 43.8304 133.278 43.5045C133.809 43.1787 134.406 42.9326 135.071 42.7665C135.742 42.594 136.435 42.4694 137.151 42.3927C138.013 42.3032 138.713 42.2234 139.25 42.1531C139.786 42.0764 140.176 41.9614 140.419 41.808C140.668 41.6483 140.793 41.4022 140.793 41.07V41.0125C140.793 40.2904 140.579 39.7313 140.151 39.3351C139.723 38.9389 139.106 38.7408 138.301 38.7408C137.451 38.7408 136.777 38.9261 136.278 39.2967C135.786 39.6674 135.454 40.1051 135.282 40.6099L132.042 40.1498C132.297 39.2552 132.719 38.5076 133.307 37.9069C133.895 37.2999 134.614 36.8462 135.464 36.5458C136.313 36.2391 137.253 36.0858 138.282 36.0858C138.991 36.0858 139.697 36.1688 140.4 36.335C141.103 36.5011 141.745 36.7759 142.326 37.1593C142.908 37.5363 143.374 38.0507 143.726 38.7025C144.084 39.3542 144.263 40.169 144.263 41.1466V51H140.927V48.9776H140.812C140.601 49.3865 140.304 49.7699 139.921 50.1278C139.544 50.4792 139.068 50.7636 138.492 50.9808C137.924 51.1917 137.256 51.2971 136.489 51.2971ZM137.39 48.7475C138.087 48.7475 138.691 48.6101 139.202 48.3354C139.713 48.0542 140.106 47.6836 140.381 47.2235C140.662 46.7634 140.802 46.2618 140.802 45.7187V43.9838C140.694 44.0733 140.509 44.1563 140.247 44.233C139.991 44.3097 139.703 44.3768 139.384 44.4343C139.064 44.4918 138.748 44.5429 138.435 44.5876C138.122 44.6324 137.85 44.6707 137.62 44.7027C137.103 44.773 136.639 44.888 136.23 45.0477C135.821 45.2075 135.499 45.4311 135.262 45.7187C135.026 45.9998 134.908 46.3641 134.908 46.8114C134.908 47.4504 135.141 47.9328 135.607 48.2587C136.074 48.5846 136.668 48.7475 137.39 48.7475ZM147.752 51V36.2775H151.068V38.7791H151.24C151.547 37.9357 152.055 37.2775 152.765 36.8046C153.474 36.3254 154.32 36.0858 155.305 36.0858C156.301 36.0858 157.142 36.3286 157.825 36.8142C158.515 37.2935 159.001 37.9485 159.282 38.7791H159.436C159.762 37.9612 160.311 37.3095 161.084 36.8238C161.864 36.3318 162.787 36.0858 163.854 36.0858C165.209 36.0858 166.314 36.5139 167.171 37.3702C168.027 38.2264 168.455 39.4757 168.455 41.1179V51H164.976V41.6546C164.976 40.7409 164.733 40.0731 164.247 39.6514C163.762 39.2233 163.167 39.0092 162.465 39.0092C161.627 39.0092 160.972 39.2712 160.5 39.7952C160.033 40.3127 159.8 40.9869 159.8 41.8176V51H156.397V41.5109C156.397 40.7505 156.167 40.1434 155.707 39.6897C155.253 39.236 154.659 39.0092 153.924 39.0092C153.426 39.0092 152.972 39.137 152.563 39.3926C152.154 39.6418 151.828 39.9964 151.586 40.4565C151.343 40.9102 151.221 41.4406 151.221 42.0476V51H147.752ZM176.212 51.2971C175.279 51.2971 174.439 51.131 173.691 50.7987C172.95 50.46 172.362 49.9616 171.927 49.3035C171.499 48.6453 171.285 47.8338 171.285 46.8689C171.285 46.0382 171.438 45.3513 171.745 44.8081C172.052 44.265 172.47 43.8304 173.001 43.5045C173.531 43.1787 174.129 42.9326 174.793 42.7665C175.464 42.594 176.157 42.4694 176.873 42.3927C177.736 42.3032 178.435 42.2234 178.972 42.1531C179.509 42.0764 179.899 41.9614 180.142 41.808C180.391 41.6483 180.515 41.4022 180.515 41.07V41.0125C180.515 40.2904 180.301 39.7313 179.873 39.3351C179.445 38.9389 178.828 38.7408 178.023 38.7408C177.173 38.7408 176.499 38.9261 176.001 39.2967C175.509 39.6674 175.177 40.1051 175.004 40.6099L171.764 40.1498C172.02 39.2552 172.442 38.5076 173.03 37.9069C173.617 37.2999 174.336 36.8462 175.186 36.5458C176.036 36.2391 176.975 36.0858 178.004 36.0858C178.713 36.0858 179.42 36.1688 180.122 36.335C180.825 36.5011 181.468 36.7759 182.049 37.1593C182.631 37.5363 183.097 38.0507 183.448 38.7025C183.806 39.3542 183.985 40.169 183.985 41.1466V51H180.65V48.9776H180.535C180.324 49.3865 180.027 49.7699 179.643 50.1278C179.266 50.4792 178.79 50.7636 178.215 50.9808C177.646 51.1917 176.979 51.2971 176.212 51.2971ZM177.113 48.7475C177.809 48.7475 178.413 48.6101 178.924 48.3354C179.436 48.0542 179.828 47.6836 180.103 47.2235C180.384 46.7634 180.525 46.2618 180.525 45.7187V43.9838C180.416 44.0733 180.231 44.1563 179.969 44.233C179.713 44.3097 179.426 44.3768 179.106 44.4343C178.787 44.4918 178.471 44.5429 178.158 44.5876C177.844 44.6324 177.573 44.6707 177.343 44.7027C176.825 44.773 176.362 44.888 175.953 45.0477C175.544 45.2075 175.221 45.4311 174.985 45.7187C174.748 45.9998 174.63 46.3641 174.63 46.8114C174.63 47.4504 174.863 47.9328 175.33 48.2587C175.796 48.5846 176.391 48.7475 177.113 48.7475ZM194.826 36.2775V38.9613H186.362V36.2775H194.826ZM188.452 32.7502H191.922V46.5717C191.922 47.0382 191.992 47.396 192.132 47.6453C192.279 47.8881 192.471 48.0542 192.708 48.1437C192.944 48.2331 193.206 48.2779 193.493 48.2779C193.711 48.2779 193.909 48.2619 194.088 48.2299C194.273 48.198 194.414 48.1692 194.509 48.1437L195.094 50.8562C194.909 50.9201 194.644 50.9904 194.299 51.0671C193.96 51.1438 193.545 51.1885 193.053 51.2013C192.184 51.2268 191.401 51.0958 190.704 50.8083C190.008 50.5144 189.455 50.0607 189.046 49.4472C188.643 48.8338 188.445 48.067 188.452 47.1468V32.7502ZM211.228 51H204.576V31.37H211.362C213.311 31.37 214.985 31.7629 216.385 32.5489C217.791 33.3285 218.871 34.4499 219.625 35.9132C220.379 37.3765 220.756 39.1274 220.756 41.1658C220.756 43.2106 220.375 44.9679 219.615 46.4375C218.861 47.9072 217.771 49.0351 216.346 49.821C214.928 50.607 213.222 51 211.228 51ZM208.132 47.9232H211.056C212.423 47.9232 213.564 47.674 214.477 47.1756C215.391 46.6708 216.078 45.92 216.538 44.9231C216.998 43.9199 217.228 42.6675 217.228 41.1658C217.228 39.6642 216.998 38.4181 216.538 37.4277C216.078 36.4308 215.398 35.6864 214.497 35.1944C213.602 34.6959 212.49 34.4467 211.161 34.4467H208.132V47.9232ZM228.217 51.2971C227.285 51.2971 226.444 51.131 225.697 50.7987C224.955 50.46 224.368 49.9616 223.933 49.3035C223.505 48.6453 223.291 47.8338 223.291 46.8689C223.291 46.0382 223.444 45.3513 223.751 44.8081C224.058 44.265 224.476 43.8304 225.007 43.5045C225.537 43.1787 226.134 42.9326 226.799 42.7665C227.47 42.594 228.163 42.4694 228.879 42.3927C229.741 42.3032 230.441 42.2234 230.978 42.1531C231.515 42.0764 231.904 41.9614 232.147 41.808C232.397 41.6483 232.521 41.4022 232.521 41.07V41.0125C232.521 40.2904 232.307 39.7313 231.879 39.3351C231.451 38.9389 230.834 38.7408 230.029 38.7408C229.179 38.7408 228.505 38.9261 228.007 39.2967C227.515 39.6674 227.182 40.1051 227.01 40.6099L223.77 40.1498C224.026 39.2552 224.447 38.5076 225.035 37.9069C225.623 37.2999 226.342 36.8462 227.192 36.5458C228.042 36.2391 228.981 36.0858 230.01 36.0858C230.719 36.0858 231.425 36.1688 232.128 36.335C232.831 36.5011 233.473 36.7759 234.055 37.1593C234.636 37.5363 235.103 38.0507 235.454 38.7025C235.812 39.3542 235.991 40.169 235.991 41.1466V51H232.655V48.9776H232.54C232.329 49.3865 232.032 49.7699 231.649 50.1278C231.272 50.4792 230.796 50.7636 230.221 50.9808C229.652 51.1917 228.984 51.2971 228.217 51.2971ZM229.118 48.7475C229.815 48.7475 230.419 48.6101 230.93 48.3354C231.441 48.0542 231.834 47.6836 232.109 47.2235C232.39 46.7634 232.531 46.2618 232.531 45.7187V43.9838C232.422 44.0733 232.237 44.1563 231.975 44.233C231.719 44.3097 231.432 44.3768 231.112 44.4343C230.793 44.4918 230.476 44.5429 230.163 44.5876C229.85 44.6324 229.579 44.6707 229.349 44.7027C228.831 44.773 228.368 44.888 227.959 45.0477C227.55 45.2075 227.227 45.4311 226.991 45.7187C226.754 45.9998 226.636 46.3641 226.636 46.8114C226.636 47.4504 226.869 47.9328 227.336 48.2587C227.802 48.5846 228.396 48.7475 229.118 48.7475ZM246.832 36.2775V38.9613H238.368V36.2775H246.832ZM240.457 32.7502H243.927V46.5717C243.927 47.0382 243.998 47.396 244.138 47.6453C244.285 47.8881 244.477 48.0542 244.713 48.1437C244.95 48.2331 245.212 48.2779 245.499 48.2779C245.716 48.2779 245.915 48.2619 246.093 48.2299C246.279 48.198 246.419 48.1692 246.515 48.1437L247.1 50.8562C246.915 50.9201 246.649 50.9904 246.304 51.0671C245.966 51.1438 245.55 51.1885 245.058 51.2013C244.189 51.2268 243.406 51.0958 242.71 50.8083C242.013 50.5144 241.461 50.0607 241.052 49.4472C240.649 48.8338 240.451 48.067 240.457 47.1468V32.7502ZM253.97 51.2971C253.037 51.2971 252.197 51.131 251.449 50.7987C250.708 50.46 250.12 49.9616 249.685 49.3035C249.257 48.6453 249.043 47.8338 249.043 46.8689C249.043 46.0382 249.197 45.3513 249.503 44.8081C249.81 44.265 250.229 43.8304 250.759 43.5045C251.289 43.1787 251.887 42.9326 252.551 42.7665C253.222 42.594 253.916 42.4694 254.631 42.3927C255.494 42.3032 256.194 42.2234 256.73 42.1531C257.267 42.0764 257.657 41.9614 257.9 41.808C258.149 41.6483 258.274 41.4022 258.274 41.07V41.0125C258.274 40.2904 258.06 39.7313 257.631 39.3351C257.203 38.9389 256.587 38.7408 255.781 38.7408C254.932 38.7408 254.257 38.9261 253.759 39.2967C253.267 39.6674 252.935 40.1051 252.762 40.6099L249.522 40.1498C249.778 39.2552 250.2 38.5076 250.788 37.9069C251.376 37.2999 252.094 36.8462 252.944 36.5458C253.794 36.2391 254.734 36.0858 255.762 36.0858C256.472 36.0858 257.178 36.1688 257.881 36.335C258.583 36.5011 259.226 36.7759 259.807 37.1593C260.389 37.5363 260.855 38.0507 261.207 38.7025C261.564 39.3542 261.743 40.169 261.743 41.1466V51H258.408V48.9776H258.293C258.082 49.3865 257.785 49.7699 257.401 50.1278C257.024 50.4792 256.548 50.7636 255.973 50.9808C255.404 51.1917 254.737 51.2971 253.97 51.2971ZM254.871 48.7475C255.567 48.7475 256.171 48.6101 256.682 48.3354C257.194 48.0542 257.587 47.6836 257.861 47.2235C258.143 46.7634 258.283 46.2618 258.283 45.7187V43.9838C258.175 44.0733 257.989 44.1563 257.727 44.233C257.472 44.3097 257.184 44.3768 256.865 44.4343C256.545 44.4918 256.229 44.5429 255.916 44.5876C255.603 44.6324 255.331 44.6707 255.101 44.7027C254.583 44.773 254.12 44.888 253.711 45.0477C253.302 45.2075 252.979 45.4311 252.743 45.7187C252.507 45.9998 252.388 46.3641 252.388 46.8114C252.388 47.4504 252.622 47.9328 253.088 48.2587C253.555 48.5846 254.149 48.7475 254.871 48.7475ZM268.702 42.3735V51H265.232V36.2775H268.549V38.7791H268.721C269.06 37.9548 269.6 37.2999 270.341 36.8142C271.089 36.3286 272.012 36.0858 273.111 36.0858C274.127 36.0858 275.012 36.303 275.766 36.7375C276.527 37.1721 277.114 37.8015 277.53 38.6258C277.952 39.4501 278.159 40.4501 278.153 41.6259V51H274.683V42.1626C274.683 41.1786 274.427 40.4086 273.916 39.8527C273.411 39.2967 272.712 39.0188 271.817 39.0188C271.21 39.0188 270.67 39.153 270.197 39.4213C269.731 39.6833 269.363 40.0635 269.095 40.562C268.833 41.0604 268.702 41.6642 268.702 42.3735ZM288.083 56.8277C286.837 56.8277 285.766 56.6583 284.872 56.3197C283.977 55.9874 283.258 55.5401 282.715 54.9778C282.172 54.4154 281.795 53.7924 281.584 53.1087L284.709 52.3515C284.85 52.639 285.054 52.9234 285.322 53.2045C285.591 53.4921 285.952 53.7285 286.405 53.9138C286.866 54.1055 287.444 54.2014 288.14 54.2014C289.124 54.2014 289.939 53.9618 290.585 53.4825C291.23 53.0097 291.553 52.2301 291.553 51.1438V48.3545H291.38C291.201 48.7124 290.939 49.0798 290.594 49.4568C290.255 49.8338 289.805 50.1501 289.243 50.4057C288.687 50.6613 287.987 50.7891 287.144 50.7891C286.012 50.7891 284.987 50.5239 284.067 49.9936C283.153 49.4568 282.425 48.6581 281.881 47.5973C281.345 46.5302 281.076 45.1947 281.076 43.5908C281.076 41.9741 281.345 40.6099 281.881 39.498C282.425 38.3798 283.156 37.5331 284.076 36.958C284.996 36.3765 286.022 36.0858 287.153 36.0858C288.016 36.0858 288.725 36.2327 289.281 36.5267C289.843 36.8142 290.291 37.1625 290.623 37.5714C290.955 37.974 291.208 38.3542 291.38 38.7121H291.572V36.2775H294.994V51.2396C294.994 52.4985 294.693 53.54 294.093 54.3643C293.492 55.1886 292.671 55.8053 291.629 56.2142C290.588 56.6232 289.406 56.8277 288.083 56.8277ZM288.112 48.067C288.846 48.067 289.473 47.8881 289.99 47.5302C290.508 47.1724 290.901 46.658 291.169 45.9871C291.438 45.3161 291.572 44.511 291.572 43.5716C291.572 42.6451 291.438 41.8336 291.169 41.1371C290.907 40.4405 290.517 39.9006 290 39.5172C289.489 39.1274 288.859 38.9325 288.112 38.9325C287.338 38.9325 286.693 39.1338 286.175 39.5364C285.658 39.9389 285.268 40.4917 285.006 41.1946C284.744 41.8911 284.613 42.6834 284.613 43.5716C284.613 44.4726 284.744 45.2618 285.006 45.9391C285.274 46.6101 285.667 47.1341 286.185 47.5111C286.709 47.8817 287.351 48.067 288.112 48.067ZM302.796 31.37L302.479 45.2298H299.393L299.086 31.37H302.796ZM300.936 51.2109C300.355 51.2109 299.856 51.0064 299.441 50.5974C299.032 50.1885 298.828 49.6901 298.828 49.1022C298.828 48.5271 299.032 48.035 299.441 47.6261C299.856 47.2171 300.355 47.0126 300.936 47.0126C301.505 47.0126 301.997 47.2171 302.412 47.6261C302.834 48.035 303.045 48.5271 303.045 49.1022C303.045 49.492 302.946 49.8466 302.748 50.1661C302.556 50.4856 302.301 50.7412 301.981 50.9329C301.668 51.1182 301.32 51.2109 300.936 51.2109Z" fill="#095696"/>
</g>
<defs>
<filter id="filter0_d_3487_5131" x="0" y="0" width="346" height="89" filterUnits="userSpaceOnUse" color-interpolation-filters="sRGB">
<feFlood flood-opacity="0" result="BackgroundImageFix"/>
<feColorMatrix in="SourceAlpha" type="matrix" values="0 0 0 0 0 0 0 0 0 0 0 0 0 0 0 0 0 0 127 0" result="hardAlpha"/>
<feOffset dy="3"/>
<feGaussianBlur stdDeviation="3"/>
<feComposite in2="hardAlpha" operator="out"/>
<feColorMatrix type="matrix" values="0 0 0 0 0 0 0 0 0 0 0 0 0 0 0 0 0 0 0.25 0"/>
<feBlend mode="normal" in2="BackgroundImageFix" result="effect1_dropShadow_3487_5131"/>
<feBlend mode="normal" in="SourceGraphic" in2="effect1_dropShadow_3487_5131" result="shape"/>
</filter>
<linearGradient id="paint0_linear_3487_5131" x1="67.6038" y1="29.8904" x2="84.6562" y2="20.6726" gradientUnits="userSpaceOnUse">
<stop stop-color="#095696"/>
<stop offset="0.5" stop-color="#3BAFDA"/>
<stop offset="1" stop-color="#F0F9FF"/>
</linearGradient>
<linearGradient id="paint1_linear_3487_5131" x1="65.6642" y1="27.2508" x2="69.6661" y2="16.3928" gradientUnits="userSpaceOnUse">
<stop stop-color="#095696"/>
<stop offset="0.5" stop-color="#3BAFDA"/>
<stop offset="1" stop-color="#F0F9FF"/>
</linearGradient>
<clipPath id="clip0_3487_5131">
<rect width="57" height="60" fill="white" transform="translate(40.5 11.5)"/>
</clipPath>
</defs>
</svg>
