<svg width="346" height="89" viewBox="0 0 346 89" fill="none" xmlns="http://www.w3.org/2000/svg">
<g filter="url(#filter0_d_3487_4483)">
<rect x="6" y="3" width="334" height="77" rx="38.5" fill="white" shape-rendering="crispEdges"/>
<g clip-path="url(#clip0_3487_4483)">
<path d="M66.5307 39.3596C65.3543 39.6077 64.1165 40.1809 63.2582 40.6352C62.5849 40.9916 62.2803 41.7691 62.471 42.5067L66.8496 59.4467C67.4289 61.6877 69.5866 63.1464 71.8821 62.8489L86.4164 60.9647C88.7146 60.6668 90.4299 58.702 90.415 56.3846L90.3089 39.9375C90.3044 39.2312 89.8802 38.5961 89.2099 38.3734C87.8279 37.9142 85.3854 37.2602 83.3815 37.5591C80.1769 38.037 78.6293 40.2225 75.4248 40.7017C71.9157 41.2263 70.0038 38.6273 66.5307 39.3596Z" fill="#3BAFDA"/>
<path d="M74.4167 26.0566C78.6096 25.5131 82.47 25.3345 85.3282 25.492C86.7496 25.5703 87.9688 25.7338 88.8689 25.998C89.3155 26.1291 89.7363 26.2994 90.0706 26.5325C90.4026 26.7641 90.7501 27.1326 90.8195 27.6683C90.8233 27.6978 90.8221 27.7274 90.8241 27.7563L90.8271 27.7569L90.8282 27.8267C90.8286 27.8432 90.8299 27.8595 90.8297 27.8758L91.5834 55.6431C91.6742 58.991 89.2166 61.8648 85.8953 62.2957L72.7059 64.0055C69.3976 64.4344 66.2982 62.3009 65.518 59.0575L59.0163 32.0264C59.0127 32.0144 59.0081 32.0027 59.0047 31.9905L58.987 31.9071L58.9838 31.8898L58.9837 31.8889L58.9659 31.7976L58.9541 31.6002C58.9577 31.1521 59.1722 30.7783 59.4015 30.5083C59.6654 30.1975 60.0286 29.9257 60.4272 29.685C61.2303 29.2001 62.3673 28.731 63.7218 28.2929C66.4455 27.4119 70.2237 26.6002 74.4167 26.0566ZM89.1198 29.9162C88.3367 30.3521 87.2901 30.7755 86.0645 31.172C83.3409 32.053 79.5627 32.8646 75.3697 33.4082C71.1767 33.9517 67.3164 34.1303 64.4582 33.9729C63.1778 33.9023 62.0617 33.7612 61.1949 33.5411L67.233 58.6441C67.8022 61.0111 70.0648 62.5685 72.479 62.2555L85.6685 60.5457C88.0919 60.2312 89.8852 58.1345 89.8191 55.6916L89.1198 29.9162ZM74.6436 27.8076C70.5242 28.3416 66.857 29.1328 64.2644 29.9714C62.9614 30.3929 61.9722 30.8131 61.3389 31.1956C61.1065 31.3359 60.9464 31.4572 60.8417 31.5535C60.9674 31.6199 61.1532 31.6972 61.4139 31.7737C62.1237 31.982 63.1875 32.1361 64.5548 32.2115C67.2755 32.3613 71.0233 32.1912 75.1427 31.6572C79.2619 31.1232 82.9285 30.3321 85.521 29.4935C86.8241 29.072 87.8141 28.6517 88.4474 28.2693C88.6797 28.129 88.8389 28.0067 88.9435 27.9105C88.8179 27.8443 88.6323 27.7674 88.3725 27.6911C87.6626 27.4828 86.5981 27.3288 85.2306 27.2535C82.51 27.1037 78.7628 27.2736 74.6436 27.8076Z" fill="#095696"/>
<path d="M79.1124 30.1093C79.1124 30.1093 80.6569 22.7555 83.4962 19.1022C84.3879 17.9548 85.6756 16.8274 86.9976 15.8332C89.6313 13.8527 93.2213 15.4472 94.0246 18.6431L94.2926 19.7095C95.2875 23.6678 90.725 26.7761 86.6597 27.1382C83.5046 27.4192 79.1124 30.1093 79.1124 30.1093Z" fill="url(#paint0_linear_3487_4483)"/>
<path d="M77.2544 27.3455C77.2544 27.3455 75.0446 23.4417 74.875 20.6847C74.8218 19.8189 74.9537 18.8057 75.1537 17.8387C75.5521 15.9122 77.7895 15.21 79.4104 16.3247L79.9512 16.6967C81.9588 18.0774 81.1414 21.2701 79.4631 23.0364C78.1605 24.4073 77.2544 27.3455 77.2544 27.3455Z" fill="url(#paint1_linear_3487_4483)"/>
<path d="M81.8178 49.8C81.9611 50.9049 80.4027 53.7614 78.3872 54.0226C76.3716 54.2839 73.8036 51.9624 73.6604 50.8575C73.5171 49.7526 75.8529 50.2827 77.8685 50.0214C79.884 49.7601 81.6746 48.6951 81.8178 49.8Z" fill="#095696"/>
<path d="M80.6809 49.4488C80.7239 49.7803 78.7927 51.1324 77.7319 51.2699C76.6711 51.4074 74.9278 50.5316 74.8848 50.2002C74.8418 49.8687 76.5142 50.1973 77.575 50.0598C78.6358 49.9223 80.6379 49.1173 80.6809 49.4488Z" fill="white"/>
<path d="M81.0175 52.0454C81.0605 52.3769 79.7109 53.851 78.6501 53.9886C76.9327 54.2112 75.4777 53.0901 75.2352 52.9033C75.1922 52.5718 76.667 52.0628 77.7278 51.9253C78.7886 51.7878 80.9745 51.7139 81.0175 52.0454Z" fill="#0064B8"/>
<path d="M70.1348 47.2344C70.1348 47.2344 70.7069 46.2871 71.3115 46.2088C71.916 46.1304 72.7108 46.9005 72.7108 46.9005" stroke="#095696" stroke-width="0.865867" stroke-linecap="round"/>
<path d="M81.2976 45.7873C81.2976 45.7873 81.8698 44.84 82.4743 44.7616C83.0788 44.6832 83.8736 45.4533 83.8736 45.4533" stroke="#095696" stroke-width="0.865867" stroke-linecap="round"/>
</g>
<path d="M102.936 51V31.37H110.451C111.869 31.37 113.048 31.5936 113.988 32.0409C114.933 32.4818 115.639 33.0857 116.106 33.8525C116.579 34.6193 116.815 35.4883 116.815 36.4596C116.815 37.2583 116.662 37.9421 116.355 38.5108C116.048 39.0731 115.636 39.53 115.119 39.8814C114.601 40.2329 114.023 40.4853 113.384 40.6386V40.8303C114.08 40.8687 114.748 41.0827 115.387 41.4725C116.032 41.8559 116.56 42.3991 116.969 43.102C117.378 43.8049 117.582 44.6547 117.582 45.6516C117.582 46.6676 117.336 47.5814 116.844 48.3929C116.352 49.198 115.611 49.8338 114.62 50.3003C113.63 50.7668 112.384 51 110.882 51H102.936ZM106.492 48.0287H110.317C111.607 48.0287 112.537 47.7826 113.106 47.2906C113.681 46.7922 113.968 46.1532 113.968 45.3736C113.968 44.7921 113.825 44.2681 113.537 43.8017C113.25 43.3288 112.841 42.9582 112.31 42.6898C111.78 42.4151 111.147 42.2777 110.412 42.2777H106.492V48.0287ZM106.492 39.7185H110.01C110.623 39.7185 111.176 39.6067 111.668 39.383C112.16 39.153 112.547 38.8303 112.828 38.4149C113.115 37.9932 113.259 37.4948 113.259 36.9197C113.259 36.1593 112.991 35.533 112.454 35.041C111.924 34.549 111.135 34.303 110.087 34.303H106.492V39.7185ZM127.04 51.2875C125.564 51.2875 124.289 50.9808 123.216 50.3674C122.148 49.7476 121.327 48.8721 120.752 47.7411C120.177 46.6037 119.89 45.265 119.89 43.725C119.89 42.2106 120.177 40.8815 120.752 39.7376C121.334 38.5875 122.145 37.6929 123.187 37.0539C124.228 36.4085 125.452 36.0858 126.858 36.0858C127.765 36.0858 128.622 36.2327 129.427 36.5267C130.238 36.8142 130.954 37.2615 131.574 37.8686C132.2 38.4756 132.692 39.2488 133.05 40.1881C133.408 41.1211 133.587 42.2329 133.587 43.5237V44.5876H121.519V42.2489H130.261C130.254 41.5844 130.11 40.9933 129.829 40.4757C129.548 39.9517 129.155 39.5396 128.65 39.2392C128.152 38.9389 127.57 38.7887 126.906 38.7887C126.197 38.7887 125.573 38.9613 125.037 39.3063C124.5 39.645 124.081 40.0923 123.781 40.6482C123.487 41.1978 123.337 41.8016 123.331 42.4598V44.5014C123.331 45.3576 123.487 46.0925 123.8 46.7059C124.113 47.313 124.551 47.7794 125.113 48.1053C125.676 48.4248 126.334 48.5846 127.088 48.5846C127.593 48.5846 128.05 48.5143 128.459 48.3737C128.868 48.2267 129.222 48.0127 129.523 47.7315C129.823 47.4504 130.05 47.1021 130.203 46.6868L133.443 47.051C133.238 47.9072 132.848 48.6549 132.273 49.2939C131.705 49.9265 130.976 50.4185 130.088 50.77C129.2 51.115 128.184 51.2875 127.04 51.2875ZM136.522 51V36.2775H139.886V38.7312H140.04C140.308 37.8814 140.768 37.2264 141.42 36.7663C142.078 36.2998 142.829 36.0666 143.672 36.0666C143.864 36.0666 144.078 36.0762 144.315 36.0954C144.557 36.1081 144.759 36.1305 144.918 36.1624V39.3542C144.771 39.3031 144.538 39.2584 144.219 39.2201C143.906 39.1753 143.602 39.153 143.308 39.153C142.675 39.153 142.107 39.2903 141.602 39.5651C141.104 39.8335 140.711 40.2073 140.423 40.6866C140.135 41.1658 139.992 41.7185 139.992 42.3448V51H136.522ZM150.693 42.3735V51H147.224V31.37H150.617V38.7791H150.789C151.134 37.9485 151.668 37.2935 152.39 36.8142C153.118 36.3286 154.045 36.0858 155.17 36.0858C156.192 36.0858 157.083 36.2998 157.844 36.728C158.604 37.1561 159.192 37.7823 159.607 38.6066C160.029 39.4309 160.24 40.4374 160.24 41.6259V51H156.77V42.1626C156.77 41.1722 156.515 40.4022 156.003 39.8527C155.499 39.2967 154.789 39.0188 153.876 39.0188C153.262 39.0188 152.713 39.153 152.227 39.4213C151.748 39.6833 151.371 40.0635 151.096 40.562C150.828 41.0604 150.693 41.6642 150.693 42.3735ZM168.013 51.2971C167.08 51.2971 166.24 51.131 165.493 50.7987C164.751 50.46 164.163 49.9616 163.729 49.3035C163.301 48.6453 163.087 47.8338 163.087 46.8689C163.087 46.0382 163.24 45.3513 163.547 44.8081C163.854 44.265 164.272 43.8304 164.802 43.5045C165.333 43.1787 165.93 42.9326 166.595 42.7665C167.266 42.594 167.959 42.4694 168.675 42.3927C169.537 42.3032 170.237 42.2234 170.774 42.1531C171.311 42.0764 171.7 41.9614 171.943 41.808C172.192 41.6483 172.317 41.4022 172.317 41.07V41.0125C172.317 40.2904 172.103 39.7313 171.675 39.3351C171.247 38.9389 170.63 38.7408 169.825 38.7408C168.975 38.7408 168.301 38.9261 167.803 39.2967C167.31 39.6674 166.978 40.1051 166.806 40.6099L163.566 40.1498C163.822 39.2552 164.243 38.5076 164.831 37.9069C165.419 37.2999 166.138 36.8462 166.988 36.5458C167.838 36.2391 168.777 36.0858 169.806 36.0858C170.515 36.0858 171.221 36.1688 171.924 36.335C172.627 36.5011 173.269 36.7759 173.851 37.1593C174.432 37.5363 174.899 38.0507 175.25 38.7025C175.608 39.3542 175.787 40.169 175.787 41.1466V51H172.451V48.9776H172.336C172.125 49.3865 171.828 49.7699 171.445 50.1278C171.068 50.4792 170.592 50.7636 170.017 50.9808C169.448 51.1917 168.78 51.2971 168.013 51.2971ZM168.914 48.7475C169.611 48.7475 170.215 48.6101 170.726 48.3354C171.237 48.0542 171.63 47.6836 171.905 47.2235C172.186 46.7634 172.327 46.2618 172.327 45.7187V43.9838C172.218 44.0733 172.033 44.1563 171.771 44.233C171.515 44.3097 171.228 44.3768 170.908 44.4343C170.589 44.4918 170.272 44.5429 169.959 44.5876C169.646 44.6324 169.374 44.6707 169.144 44.7027C168.627 44.773 168.164 44.888 167.755 45.0477C167.346 45.2075 167.023 45.4311 166.787 45.7187C166.55 45.9998 166.432 46.3641 166.432 46.8114C166.432 47.4504 166.665 47.9328 167.132 48.2587C167.598 48.5846 168.192 48.7475 168.914 48.7475ZM190.912 40.169L187.749 40.514C187.659 40.1945 187.503 39.8942 187.279 39.613C187.062 39.3319 186.768 39.105 186.397 38.9325C186.027 38.76 185.573 38.6737 185.036 38.6737C184.314 38.6737 183.707 38.8303 183.215 39.1434C182.73 39.4565 182.49 39.8623 182.496 40.3607C182.49 40.7888 182.646 41.1371 182.966 41.4054C183.292 41.6738 183.829 41.8943 184.576 42.0668L187.088 42.6036C188.481 42.9039 189.516 43.3799 190.193 44.0317C190.877 44.6835 191.222 45.5366 191.228 46.5909C191.222 47.5175 190.95 48.3354 190.413 49.0447C189.883 49.7476 189.145 50.2971 188.199 50.6933C187.254 51.0895 186.167 51.2875 184.94 51.2875C183.138 51.2875 181.688 50.9105 180.589 50.1565C179.49 49.3961 178.835 48.3386 178.624 46.9839L182.007 46.658C182.161 47.3226 182.487 47.8242 182.985 48.1628C183.484 48.5015 184.132 48.6708 184.931 48.6708C185.755 48.6708 186.417 48.5015 186.915 48.1628C187.42 47.8242 187.672 47.4056 187.672 46.9072C187.672 46.4855 187.509 46.1372 187.183 45.8625C186.864 45.5877 186.365 45.3768 185.688 45.2298L183.177 44.7027C181.765 44.4087 180.72 43.9135 180.043 43.217C179.365 42.5141 179.03 41.6259 179.036 40.5524C179.03 39.645 179.276 38.859 179.774 38.1945C180.279 37.5235 180.979 37.0059 181.873 36.6417C182.774 36.2711 183.813 36.0858 184.988 36.0858C186.714 36.0858 188.072 36.4532 189.062 37.188C190.059 37.9229 190.675 38.9165 190.912 40.169ZM194.089 51V36.2775H197.559V51H194.089ZM195.834 34.1879C195.284 34.1879 194.811 34.0058 194.415 33.6416C194.019 33.271 193.821 32.8269 193.821 32.3093C193.821 31.7853 194.019 31.3412 194.415 30.977C194.811 30.6064 195.284 30.421 195.834 30.421C196.39 30.421 196.863 30.6064 197.252 30.977C197.649 31.3412 197.847 31.7853 197.847 32.3093C197.847 32.8269 197.649 33.271 197.252 33.6416C196.863 34.0058 196.39 34.1879 195.834 34.1879ZM204.597 31.37V51H201.127V31.37H204.597ZM215.013 51V31.37H218.569V48.0191H227.215V51H215.013ZM236.57 51.2875C235.132 51.2875 233.886 50.9712 232.832 50.3386C231.777 49.706 230.96 48.821 230.378 47.6836C229.803 46.5462 229.515 45.2171 229.515 43.6962C229.515 42.1754 229.803 40.8431 230.378 39.6993C230.96 38.5555 231.777 37.6673 232.832 37.0347C233.886 36.4021 235.132 36.0858 236.57 36.0858C238.008 36.0858 239.254 36.4021 240.308 37.0347C241.362 37.6673 242.177 38.5555 242.752 39.6993C243.334 40.8431 243.625 42.1754 243.625 43.6962C243.625 45.2171 243.334 46.5462 242.752 47.6836C242.177 48.821 241.362 49.706 240.308 50.3386C239.254 50.9712 238.008 51.2875 236.57 51.2875ZM236.589 48.5079C237.369 48.5079 238.02 48.2938 238.544 47.8657C239.068 47.4312 239.458 46.8497 239.714 46.1212C239.976 45.3928 240.107 44.5813 240.107 43.6867C240.107 42.7857 239.976 41.9709 239.714 41.2425C239.458 40.5076 239.068 39.923 238.544 39.4884C238.02 39.0539 237.369 38.8367 236.589 38.8367C235.79 38.8367 235.126 39.0539 234.595 39.4884C234.071 39.923 233.678 40.5076 233.417 41.2425C233.161 41.9709 233.033 42.7857 233.033 43.6867C233.033 44.5813 233.161 45.3928 233.417 46.1212C233.678 46.8497 234.071 47.4312 234.595 47.8657C235.126 48.2938 235.79 48.5079 236.589 48.5079ZM252.972 56.8277C251.726 56.8277 250.656 56.6583 249.761 56.3197C248.867 55.9874 248.148 55.5401 247.605 54.9778C247.062 54.4154 246.685 53.7924 246.474 53.1087L249.598 52.3515C249.739 52.639 249.943 52.9234 250.212 53.2045C250.48 53.4921 250.841 53.7285 251.295 53.9138C251.755 54.1055 252.333 54.2014 253.03 54.2014C254.014 54.2014 254.829 53.9618 255.474 53.4825C256.119 53.0097 256.442 52.2301 256.442 51.1438V48.3545H256.269C256.091 48.7124 255.829 49.0798 255.484 49.4568C255.145 49.8338 254.694 50.1501 254.132 50.4057C253.576 50.6613 252.876 50.7891 252.033 50.7891C250.902 50.7891 249.876 50.5239 248.956 49.9936C248.042 49.4568 247.314 48.6581 246.771 47.5973C246.234 46.5302 245.966 45.1947 245.966 43.5908C245.966 41.9741 246.234 40.6099 246.771 39.498C247.314 38.3798 248.046 37.5331 248.966 36.958C249.886 36.3765 250.911 36.0858 252.043 36.0858C252.905 36.0858 253.614 36.2327 254.17 36.5267C254.733 36.8142 255.18 37.1625 255.512 37.5714C255.845 37.974 256.097 38.3542 256.269 38.7121H256.461V36.2775H259.883V51.2396C259.883 52.4985 259.583 53.54 258.982 54.3643C258.381 55.1886 257.56 55.8053 256.519 56.2142C255.477 56.6232 254.295 56.8277 252.972 56.8277ZM253.001 48.067C253.736 48.067 254.362 47.8881 254.88 47.5302C255.397 47.1724 255.79 46.658 256.059 45.9871C256.327 45.3161 256.461 44.511 256.461 43.5716C256.461 42.6451 256.327 41.8336 256.059 41.1371C255.797 40.4405 255.407 39.9006 254.889 39.5172C254.378 39.1274 253.749 38.9325 253.001 38.9325C252.228 38.9325 251.582 39.1338 251.065 39.5364C250.547 39.9389 250.157 40.4917 249.895 41.1946C249.633 41.8911 249.502 42.6834 249.502 43.5716C249.502 44.4726 249.633 45.2618 249.895 45.9391C250.164 46.6101 250.557 47.1341 251.074 47.5111C251.598 47.8817 252.241 48.067 253.001 48.067ZM263.439 51V36.2775H266.909V51H263.439ZM265.184 34.1879C264.634 34.1879 264.161 34.0058 263.765 33.6416C263.369 33.271 263.171 32.8269 263.171 32.3093C263.171 31.7853 263.369 31.3412 263.765 30.977C264.161 30.6064 264.634 30.421 265.184 30.421C265.739 30.421 266.212 30.6064 266.602 30.977C266.998 31.3412 267.196 31.7853 267.196 32.3093C267.196 32.8269 266.998 33.271 266.602 33.6416C266.212 34.0058 265.739 34.1879 265.184 34.1879ZM273.947 42.3735V51H270.477V36.2775H273.793V38.7791H273.966C274.304 37.9548 274.844 37.2999 275.586 36.8142C276.333 36.3286 277.257 36.0858 278.356 36.0858C279.372 36.0858 280.257 36.303 281.011 36.7375C281.771 37.1721 282.359 37.8015 282.774 38.6258C283.196 39.4501 283.404 40.4501 283.397 41.6259V51H279.928V42.1626C279.928 41.1786 279.672 40.4086 279.161 39.8527C278.656 39.2967 277.956 39.0188 277.062 39.0188C276.455 39.0188 275.915 39.153 275.442 39.4213C274.975 39.6833 274.608 40.0635 274.34 40.562C274.078 41.0604 273.947 41.6642 273.947 42.3735ZM291.171 31.37L290.854 45.2298H287.768L287.461 31.37H291.171ZM289.311 51.2109C288.73 51.2109 288.231 51.0064 287.816 50.5974C287.407 50.1885 287.203 49.6901 287.203 49.1022C287.203 48.5271 287.407 48.035 287.816 47.6261C288.231 47.2171 288.73 47.0126 289.311 47.0126C289.88 47.0126 290.372 47.2171 290.787 47.6261C291.209 48.035 291.42 48.5271 291.42 49.1022C291.42 49.492 291.321 49.8466 291.123 50.1661C290.931 50.4856 290.676 50.7412 290.356 50.9329C290.043 51.1182 289.695 51.2109 289.311 51.2109Z" fill="#095696"/>
</g>
<defs>
<filter id="filter0_d_3487_4483" x="0" y="0" width="346" height="89" filterUnits="userSpaceOnUse" color-interpolation-filters="sRGB">
<feFlood flood-opacity="0" result="BackgroundImageFix"/>
<feColorMatrix in="SourceAlpha" type="matrix" values="0 0 0 0 0 0 0 0 0 0 0 0 0 0 0 0 0 0 127 0" result="hardAlpha"/>
<feOffset dy="3"/>
<feGaussianBlur stdDeviation="3"/>
<feComposite in2="hardAlpha" operator="out"/>
<feColorMatrix type="matrix" values="0 0 0 0 0 0 0 0 0 0 0 0 0 0 0 0 0 0 0.25 0"/>
<feBlend mode="normal" in2="BackgroundImageFix" result="effect1_dropShadow_3487_4483"/>
<feBlend mode="normal" in="SourceGraphic" in2="effect1_dropShadow_3487_4483" result="shape"/>
</filter>
<linearGradient id="paint0_linear_3487_4483" x1="79.1038" y1="29.8904" x2="96.1562" y2="20.6726" gradientUnits="userSpaceOnUse">
<stop stop-color="#095696"/>
<stop offset="0.5" stop-color="#3BAFDA"/>
<stop offset="1" stop-color="#F0F9FF"/>
</linearGradient>
<linearGradient id="paint1_linear_3487_4483" x1="77.1642" y1="27.2508" x2="81.1661" y2="16.3928" gradientUnits="userSpaceOnUse">
<stop stop-color="#095696"/>
<stop offset="0.5" stop-color="#3BAFDA"/>
<stop offset="1" stop-color="#F0F9FF"/>
</linearGradient>
<clipPath id="clip0_3487_4483">
<rect width="57" height="60" fill="white" transform="translate(52 11.5)"/>
</clipPath>
</defs>
</svg>
